Titillium Math Sans Pro Zanichelli-Semibold Italic.ufo
<glyph name="exclam" format="2">
  <advance width="245"/>
  <unicode hex="0021"/>
  <note>
exclam
</note>
  <outline>
    <contour>
      <point x="166" y="243" type="line"/>
      <point x="275" y="705" type="line"/>
      <point x="164" y="705" type="line"/>
      <point x="74" y="243" type="line"/>
    </contour>
    <contour>
      <point x="43" y="131" type="line"/>
      <point x="15" y="0" type="line"/>
      <point x="127" y="0" type="line"/>
      <point x="155" y="131" type="line"/>
    </contour>
  </outline>
</glyph>
<glyph name="quotedbl" format="2">
  <advance width="386"/>
  <unicode hex="0022"/>
  <note>
quotedbl
</note>
  <outline>
    <contour>
      <point x="203" y="494" type="line"/>
      <point x="260" y="730" type="line"/>
      <point x="157" y="730" type="line"/>
      <point x="112" y="494" type="line"/>
    </contour>
    <contour>
      <point x="328" y="730" type="line"/>
      <point x="283" y="494" type="line"/>
      <point x="375" y="494" type="line"/>
      <point x="432" y="730" type="line"/>
    </contour>
  </outline>
</glyph>
<glyph name="numbersign" format="2">
  <advance width="620"/>
  <unicode hex="0023"/>
  <note>
numbersign
</note>
  <outline>
    <contour>
      <point x="322" y="0" type="line"/>
      <point x="413" y="0" type="line"/>
      <point x="448" y="162" type="line"/>
      <point x="551" y="162" type="line"/>
      <point x="569" y="249" type="line"/>
      <point x="465" y="249" type="line"/>
      <point x="499" y="403" type="line"/>
      <point x="602" y="403" type="line"/>
      <point x="621" y="490" type="line"/>
      <point x="517" y="490" type="line"/>
      <point x="553" y="660" type="line"/>
      <point x="462" y="660" type="line"/>
      <point x="426" y="490" type="line"/>
      <point x="296" y="490" type="line"/>
      <point x="332" y="660" type="line"/>
      <point x="241" y="660" type="line"/>
      <point x="205" y="490" type="line"/>
      <point x="101" y="490" type="line"/>
      <point x="83" y="403" type="line"/>
      <point x="186" y="403" type="line"/>
      <point x="153" y="249" type="line"/>
      <point x="49" y="249" type="line"/>
      <point x="32" y="162" type="line"/>
      <point x="135" y="162" type="line"/>
      <point x="101" y="0" type="line"/>
      <point x="192" y="0" type="line"/>
      <point x="227" y="162" type="line"/>
      <point x="356" y="162" type="line"/>
    </contour>
    <contour>
      <point x="377" y="246" type="line"/>
      <point x="241" y="246" type="line"/>
      <point x="275" y="406" type="line"/>
      <point x="411" y="406" type="line"/>
    </contour>
  </outline>
</glyph>
<glyph name="dollar" format="2">
  <advance width="500"/>
  <unicode hex="0024"/>
  <note>
dollar
</note>
  <outline>
    <contour>
      <point x="497" y="556" type="curve"/>
      <point x="522" y="637" type="line"/>
      <point x="522" y="637"/>
      <point x="469" y="647"/>
      <point x="407" y="653" type="curve"/>
      <point x="460" y="804" type="line"/>
      <point x="398" y="804" type="line"/>
      <point x="349" y="657" type="line"/>
      <point x="331" y="657" type="line" smooth="yes"/>
      <point x="169" y="657"/>
      <point x="89" y="562"/>
      <point x="89" y="444" type="curve" smooth="yes"/>
      <point x="89" y="372"/>
      <point x="135" y="324"/>
      <point x="224" y="296" type="curve"/>
      <point x="153" y="92" type="line"/>
      <point x="90" y="95"/>
      <point x="20" y="106"/>
      <point x="20" y="106" type="curve"/>
      <point x="-6" y="27" type="line"/>
      <point x="-6" y="27"/>
      <point x="60" y="13"/>
      <point x="127" y="7" type="curve"/>
      <point x="83" y="-123" type="line"/>
      <point x="145" y="-123" type="line"/>
      <point x="187" y="3" type="line"/>
      <point x="195" y="3" type="line" smooth="yes"/>
      <point x="379" y="3"/>
      <point x="456" y="124"/>
      <point x="456" y="237" type="curve" smooth="yes"/>
      <point x="456" y="307"/>
      <point x="409" y="349"/>
      <point x="311" y="378" type="curve"/>
      <point x="376" y="568" type="line"/>
      <point x="432" y="564"/>
      <point x="497" y="556"/>
    </contour>
    <contour>
      <point x="192" y="460" type="curve" smooth="yes"/>
      <point x="192" y="513"/>
      <point x="226" y="570"/>
      <point x="309" y="570" type="curve" smooth="yes"/>
      <point x="316" y="570" type="line"/>
      <point x="257" y="394" type="line"/>
      <point x="213" y="411"/>
      <point x="192" y="426"/>
    </contour>
    <contour>
      <point x="219" y="90" type="curve" smooth="yes"/>
      <point x="214" y="90" type="line"/>
      <point x="279" y="281" type="line"/>
      <point x="329" y="266"/>
      <point x="352" y="248"/>
      <point x="352" y="214" type="curve" smooth="yes"/>
      <point x="352" y="158"/>
      <point x="309" y="90"/>
    </contour>
  </outline>
</glyph>
<glyph name="percent" format="2">
  <advance width="665"/>
  <unicode hex="0025"/>
  <note>
percent
</note>
  <outline>
    <contour>
      <point x="249" y="713" type="curve" smooth="yes"/>
      <point x="122" y="713"/>
      <point x="89" y="561"/>
      <point x="89" y="478" type="curve" smooth="yes"/>
      <point x="89" y="404"/>
      <point x="132" y="374"/>
      <point x="194" y="374" type="curve" smooth="yes"/>
      <point x="325" y="374"/>
      <point x="354" y="537"/>
      <point x="354" y="609" type="curve" smooth="yes"/>
      <point x="354" y="683"/>
      <point x="311" y="713"/>
    </contour>
    <contour>
      <point x="617" y="710" type="line"/>
      <point x="42" y="29" type="line"/>
      <point x="85" y="-12" type="line"/>
      <point x="663" y="669" type="line"/>
    </contour>
    <contour>
      <point x="174" y="482" type="curve" smooth="yes"/>
      <point x="174" y="513"/>
      <point x="196" y="640"/>
      <point x="243" y="640" type="curve" smooth="yes"/>
      <point x="260" y="640"/>
      <point x="269" y="632"/>
      <point x="269" y="606" type="curve" smooth="yes"/>
      <point x="269" y="578"/>
      <point x="249" y="448"/>
      <point x="201" y="448" type="curve" smooth="yes"/>
      <point x="185" y="448"/>
      <point x="174" y="455"/>
    </contour>
    <contour>
      <point x="353" y="92" type="curve" smooth="yes"/>
      <point x="353" y="18"/>
      <point x="396" y="-12"/>
      <point x="458" y="-12" type="curve" smooth="yes"/>
      <point x="588" y="-12"/>
      <point x="618" y="151"/>
      <point x="618" y="223" type="curve" smooth="yes"/>
      <point x="618" y="297"/>
      <point x="575" y="327"/>
      <point x="513" y="327" type="curve" smooth="yes"/>
      <point x="385" y="327"/>
      <point x="353" y="175"/>
    </contour>
    <contour>
      <point x="438" y="96" type="curve" smooth="yes"/>
      <point x="438" y="127"/>
      <point x="460" y="254"/>
      <point x="506" y="254" type="curve" smooth="yes"/>
      <point x="523" y="254"/>
      <point x="533" y="246"/>
      <point x="533" y="220" type="curve" smooth="yes"/>
      <point x="533" y="192"/>
      <point x="513" y="62"/>
      <point x="465" y="62" type="curve" smooth="yes"/>
      <point x="448" y="62"/>
      <point x="438" y="69"/>
    </contour>
  </outline>
</glyph>
<glyph name="ampersand" format="2">
  <advance width="651"/>
  <unicode hex="0026"/>
  <note>
ampersand
</note>
  <outline>
    <contour>
      <point x="393" y="720" type="curve" smooth="yes"/>
      <point x="279" y="720"/>
      <point x="198" y="658"/>
      <point x="198" y="531" type="curve" smooth="yes"/>
      <point x="198" y="490"/>
      <point x="208" y="459"/>
      <point x="227" y="425" type="curve"/>
      <point x="86" y="373"/>
      <point x="25" y="315"/>
      <point x="25" y="182" type="curve" smooth="yes"/>
      <point x="25" y="73"/>
      <point x="89" y="-12"/>
      <point x="227" y="-12" type="curve" smooth="yes"/>
      <point x="320" y="-12"/>
      <point x="388" y="27"/>
      <point x="446" y="91" type="curve"/>
      <point x="528" y="-18" type="line"/>
      <point x="603" y="39" type="line"/>
      <point x="511" y="156" type="line"/>
      <point x="546" y="201"/>
      <point x="592" y="293"/>
      <point x="610" y="361" type="curve"/>
      <point x="513" y="361" type="line"/>
      <point x="502" y="316"/>
      <point x="476" y="254"/>
      <point x="458" y="226" type="curve"/>
      <point x="364" y="378" type="line"/>
      <point x="486" y="430"/>
      <point x="551" y="483"/>
      <point x="551" y="586" type="curve" smooth="yes"/>
      <point x="551" y="677"/>
      <point x="489" y="720"/>
    </contour>
    <contour>
      <point x="131" y="182" type="curve" smooth="yes"/>
      <point x="131" y="268"/>
      <point x="163" y="320"/>
      <point x="265" y="363" type="curve"/>
      <point x="396" y="156" type="line"/>
      <point x="361" y="110"/>
      <point x="303" y="77"/>
      <point x="242" y="77" type="curve" smooth="yes"/>
      <point x="174" y="77"/>
      <point x="131" y="112"/>
    </contour>
    <contour>
      <point x="299" y="528" type="curve" smooth="yes"/>
      <point x="299" y="591"/>
      <point x="329" y="635"/>
      <point x="389" y="635" type="curve" smooth="yes"/>
      <point x="427" y="635"/>
      <point x="448" y="616"/>
      <point x="448" y="575" type="curve" smooth="yes"/>
      <point x="448" y="513"/>
      <point x="420" y="479"/>
      <point x="326" y="436" type="curve"/>
      <point x="311" y="459"/>
      <point x="299" y="491"/>
    </contour>
  </outline>
</glyph>
<glyph name="quotesingle" format="2">
  <advance width="215"/>
  <unicode hex="0027"/>
  <note>
quotesingle
</note>
  <outline>
    <contour>
      <point x="203" y="494" type="line"/>
      <point x="260" y="730" type="line"/>
      <point x="157" y="730" type="line"/>
      <point x="112" y="494" type="line"/>
    </contour>
  </outline>
</glyph>
<glyph name="parenleft" format="2">
  <advance width="284"/>
  <unicode hex="0028"/>
  <note>
parenleft
</note>
  <outline>
    <contour>
      <point x="356" y="750" type="curve"/>
      <point x="262" y="750" type="line"/>
      <point x="116" y="526"/>
      <point x="39" y="341"/>
      <point x="39" y="134" type="curve" smooth="yes"/>
      <point x="39" y="-13"/>
      <point x="76" y="-125"/>
      <point x="76" y="-125" type="curve"/>
      <point x="170" y="-125" type="line"/>
      <point x="170" y="-125"/>
      <point x="148" y="-16"/>
      <point x="148" y="119" type="curve" smooth="yes"/>
      <point x="148" y="342"/>
      <point x="222" y="503"/>
    </contour>
  </outline>
</glyph>
<glyph name="parenright" format="2">
  <advance width="284"/>
  <unicode hex="0029"/>
  <note>
parenright
</note>
  <outline>
    <contour>
      <point x="-46" y="-125" type="curve"/>
      <point x="48" y="-125" type="line"/>
      <point x="194" y="99"/>
      <point x="271" y="284"/>
      <point x="271" y="491" type="curve" smooth="yes"/>
      <point x="271" y="638"/>
      <point x="234" y="750"/>
      <point x="234" y="750" type="curve"/>
      <point x="140" y="750" type="line"/>
      <point x="140" y="750"/>
      <point x="162" y="641"/>
      <point x="162" y="506" type="curve" smooth="yes"/>
      <point x="162" y="283"/>
      <point x="88" y="122"/>
    </contour>
  </outline>
</glyph>
<glyph name="asterisk" format="2">
  <advance width="434"/>
  <unicode hex="002A"/>
  <note>
asterisk
</note>
  <outline>
    <contour>
      <point x="299" y="363" type="line"/>
      <point x="359" y="381" type="line"/>
      <point x="320" y="503" type="line"/>
      <point x="447" y="503" type="line"/>
      <point x="447" y="565" type="line"/>
      <point x="321" y="565" type="line"/>
      <point x="360" y="690" type="line"/>
      <point x="298" y="710" type="line"/>
      <point x="258" y="586" type="line"/>
      <point x="155" y="662" type="line"/>
      <point x="116" y="610" type="line"/>
      <point x="220" y="535" type="line"/>
      <point x="114" y="456" type="line"/>
      <point x="153" y="407" type="line"/>
      <point x="258" y="486" type="line"/>
    </contour>
  </outline>
</glyph>
<glyph name="plus" format="2">
  <advance width="560"/>
  <unicode hex="002B"/>
  <note>
plus
</note>
  <outline>
    <contour>
      <point x="289" y="516" type="line"/>
      <point x="249" y="327" type="line"/>
      <point x="69" y="327" type="line"/>
      <point x="50" y="236" type="line"/>
      <point x="230" y="236" type="line"/>
      <point x="190" y="46" type="line"/>
      <point x="284" y="46" type="line"/>
      <point x="324" y="236" type="line"/>
      <point x="505" y="236" type="line"/>
      <point x="523" y="327" type="line"/>
      <point x="343" y="327" type="line"/>
      <point x="384" y="516" type="line"/>
    </contour>
  </outline>
</glyph>
<glyph name="comma" format="2">
  <advance width="239"/>
  <unicode hex="002C"/>
  <note>
comma
</note>
  <outline>
    <contour>
      <point x="32" y="-123" type="line"/>
      <point x="166" y="139" type="line"/>
      <point x="52" y="139" type="line"/>
      <point x="-52" y="-123" type="line"/>
    </contour>
  </outline>
</glyph>
<glyph name="hyphen" format="2">
  <advance width="416"/>
  <unicode hex="002D"/>
  <note>
hyphen
</note>
  <outline>
    <contour>
      <point x="362" y="234" type="line"/>
      <point x="381" y="328" type="line"/>
      <point x="67" y="328" type="line"/>
      <point x="47" y="234" type="line"/>
    </contour>
  </outline>
</glyph>
<glyph name="slash" format="2">
  <advance width="404"/>
  <unicode hex="002F"/>
  <note>
slash
</note>
  <outline>
    <contour>
      <point x="43" y="-24" type="line"/>
      <point x="475" y="667" type="line"/>
      <point x="399" y="714" type="line"/>
      <point x="-31" y="22" type="line"/>
    </contour>
  </outline>
</glyph>
<glyph name="zero" format="2">
  <advance width="600"/>
  <unicode hex="0030"/>
  <note>
zero
</note>
  <outline>
    <contour>
      <point x="379" y="676" type="curve" smooth="yes"/>
      <point x="120" y="676"/>
      <point x="59" y="362"/>
      <point x="59" y="207" type="curve" smooth="yes"/>
      <point x="59" y="55"/>
      <point x="134" y="-15"/>
      <point x="260" y="-13" type="curve" smooth="yes"/>
      <point x="510" y="-8"/>
      <point x="576" y="292"/>
      <point x="576" y="456" type="curve" smooth="yes"/>
      <point x="576" y="613"/>
      <point x="497" y="676"/>
    </contour>
    <contour>
      <point x="166" y="203" type="curve" smooth="yes"/>
      <point x="166" y="319"/>
      <point x="203" y="582"/>
      <point x="369" y="582" type="curve" smooth="yes"/>
      <point x="436" y="582"/>
      <point x="469" y="550"/>
      <point x="469" y="459" type="curve" smooth="yes"/>
      <point x="469" y="343"/>
      <point x="427" y="80"/>
      <point x="268" y="80" type="curve" smooth="yes"/>
      <point x="205" y="80"/>
      <point x="166" y="112"/>
    </contour>
  </outline>
</glyph>
<glyph name="one" format="2">
  <advance width="396"/>
  <unicode hex="0031"/>
  <note>
one
</note>
  <outline>
    <contour>
      <point x="262" y="0" type="line"/>
      <point x="402" y="665" type="line"/>
      <point x="308" y="665" type="line"/>
      <point x="68" y="522" type="line"/>
      <point x="100" y="441" type="line"/>
      <point x="274" y="541" type="line"/>
      <point x="159" y="0" type="line"/>
    </contour>
  </outline>
</glyph>
<glyph name="two" format="2">
  <advance width="507"/>
  <unicode hex="0032"/>
  <note>
two
</note>
  <outline>
    <contour>
      <point x="225" y="277" type="curve" smooth="yes"/>
      <point x="9" y="90" type="line"/>
      <point x="-10" y="0" type="line"/>
      <point x="409" y="0" type="line"/>
      <point x="429" y="93" type="line"/>
      <point x="129" y="93" type="line"/>
      <point x="308" y="239" type="line" smooth="yes"/>
      <point x="420" y="332"/>
      <point x="503" y="401"/>
      <point x="503" y="520" type="curve" smooth="yes"/>
      <point x="503" y="625"/>
      <point x="445" y="676"/>
      <point x="322" y="676" type="curve" smooth="yes"/>
      <point x="230" y="676"/>
      <point x="136" y="647"/>
      <point x="136" y="647" type="curve"/>
      <point x="124" y="563" type="line"/>
      <point x="124" y="563"/>
      <point x="218" y="581"/>
      <point x="285" y="581" type="curve" smooth="yes"/>
      <point x="358" y="581"/>
      <point x="397" y="560"/>
      <point x="397" y="504" type="curve" smooth="yes"/>
      <point x="397" y="425"/>
      <point x="324" y="362"/>
    </contour>
  </outline>
</glyph>
<glyph name="three" format="2">
  <advance width="529"/>
  <unicode hex="0033"/>
  <note>
three
</note>
  <outline>
    <contour>
      <point x="131" y="650" type="curve"/>
      <point x="121" y="566" type="line"/>
      <point x="121" y="566"/>
      <point x="222" y="582"/>
      <point x="294" y="582" type="curve" smooth="yes"/>
      <point x="373" y="582"/>
      <point x="403" y="555"/>
      <point x="403" y="500" type="curve" smooth="yes"/>
      <point x="403" y="428"/>
      <point x="341" y="385"/>
      <point x="278" y="385" type="curve" smooth="yes"/>
      <point x="148" y="385" type="line"/>
      <point x="129" y="296" type="line"/>
      <point x="264" y="296" type="line" smooth="yes"/>
      <point x="324" y="296"/>
      <point x="355" y="265"/>
      <point x="355" y="203" type="curve" smooth="yes"/>
      <point x="355" y="131"/>
      <point x="312" y="81"/>
      <point x="202" y="80" type="curve" smooth="yes"/>
      <point x="125" y="80"/>
      <point x="25" y="103"/>
      <point x="25" y="103" type="curve"/>
      <point x="1" y="19" type="line"/>
      <point x="1" y="19"/>
      <point x="103" y="-13"/>
      <point x="207" y="-13" type="curve" smooth="yes"/>
      <point x="404" y="-13"/>
      <point x="464" y="96"/>
      <point x="464" y="206" type="curve" smooth="yes"/>
      <point x="464" y="288"/>
      <point x="430" y="326"/>
      <point x="381" y="341" type="curve"/>
      <point x="478" y="380"/>
      <point x="507" y="453"/>
      <point x="507" y="521" type="curve" smooth="yes"/>
      <point x="507" y="615"/>
      <point x="452" y="676"/>
      <point x="319" y="676" type="curve" smooth="yes"/>
      <point x="233" y="676"/>
      <point x="131" y="650"/>
    </contour>
  </outline>
</glyph>
<glyph name="four" format="2">
  <advance width="535"/>
  <unicode hex="0034"/>
  <note>
four
</note>
  <outline>
    <contour>
      <point x="27" y="201" type="line"/>
      <point x="9" y="119" type="line"/>
      <point x="304" y="119" type="line"/>
      <point x="279" y="0" type="line"/>
      <point x="382" y="0" type="line"/>
      <point x="408" y="119" type="line"/>
      <point x="481" y="119" type="line"/>
      <point x="500" y="212" type="line"/>
      <point x="425" y="212" type="line"/>
      <point x="467" y="408" type="line"/>
      <point x="367" y="408" type="line"/>
      <point x="324" y="212" type="line"/>
      <point x="134" y="212" type="line"/>
      <point x="415" y="665" type="line"/>
      <point x="297" y="665" type="line"/>
    </contour>
  </outline>
</glyph>
<glyph name="five" format="2">
  <advance width="546"/>
  <unicode hex="0035"/>
  <note>
five
</note>
  <outline>
    <contour>
      <point x="233" y="571" type="line"/>
      <point x="534" y="571" type="line"/>
      <point x="553" y="665" type="line"/>
      <point x="167" y="665" type="line"/>
      <point x="75" y="315" type="line"/>
      <point x="145" y="302" type="line"/>
      <point x="145" y="302"/>
      <point x="207" y="333"/>
      <point x="276" y="333" type="curve" smooth="yes"/>
      <point x="344" y="333"/>
      <point x="385" y="305"/>
      <point x="385" y="226" type="curve" smooth="yes"/>
      <point x="385" y="151"/>
      <point x="339" y="80"/>
      <point x="202" y="80" type="curve" smooth="yes"/>
      <point x="126" y="80"/>
      <point x="34" y="102"/>
      <point x="34" y="102" type="curve"/>
      <point x="7" y="17" type="line"/>
      <point x="7" y="17"/>
      <point x="113" y="-13"/>
      <point x="212" y="-13" type="curve" smooth="yes"/>
      <point x="410" y="-13"/>
      <point x="494" y="112"/>
      <point x="494" y="244" type="curve" smooth="yes"/>
      <point x="494" y="370"/>
      <point x="422" y="421"/>
      <point x="318" y="421" type="curve" smooth="yes"/>
      <point x="243" y="421"/>
      <point x="176" y="389"/>
      <point x="176" y="389" type="curve"/>
    </contour>
  </outline>
</glyph>
<glyph name="six" format="2">
  <advance width="576"/>
  <unicode hex="0036"/>
  <note>
six
</note>
  <outline>
    <contour>
      <point x="558" y="569" type="curve"/>
      <point x="585" y="653" type="line"/>
      <point x="585" y="653"/>
      <point x="489" y="676"/>
      <point x="413" y="676" type="curve" smooth="yes"/>
      <point x="169" y="676"/>
      <point x="60" y="441"/>
      <point x="60" y="223" type="curve" smooth="yes"/>
      <point x="60" y="82"/>
      <point x="131" y="-13"/>
      <point x="274" y="-13" type="curve" smooth="yes"/>
      <point x="441" y="-13"/>
      <point x="524" y="115"/>
      <point x="524" y="247" type="curve" smooth="yes"/>
      <point x="524" y="361"/>
      <point x="455" y="420"/>
      <point x="351" y="420" type="curve" smooth="yes"/>
      <point x="270" y="420"/>
      <point x="190" y="387"/>
      <point x="190" y="387" type="curve"/>
      <point x="218" y="502"/>
      <point x="280" y="583"/>
      <point x="408" y="583" type="curve" smooth="yes"/>
      <point x="460" y="583"/>
      <point x="558" y="569"/>
    </contour>
    <contour>
      <point x="164" y="211" type="curve" smooth="yes"/>
      <point x="164" y="246"/>
      <point x="168" y="279"/>
      <point x="174" y="306" type="curve"/>
      <point x="174" y="306"/>
      <point x="252" y="329"/>
      <point x="316" y="329" type="curve" smooth="yes"/>
      <point x="380" y="329"/>
      <point x="416" y="298"/>
      <point x="416" y="231" type="curve" smooth="yes"/>
      <point x="416" y="151"/>
      <point x="372" y="79"/>
      <point x="280" y="79" type="curve" smooth="yes"/>
      <point x="201" y="79"/>
      <point x="164" y="132"/>
    </contour>
  </outline>
</glyph>
<glyph name="seven" format="2">
  <advance width="474"/>
  <unicode hex="0037"/>
  <note>
seven
</note>
  <outline>
    <contour>
      <point x="498" y="541" type="line"/>
      <point x="524" y="665" type="line"/>
      <point x="113" y="665" type="line"/>
      <point x="93" y="569" type="line"/>
      <point x="393" y="569" type="line"/>
      <point x="388" y="544" type="line"/>
      <point x="60" y="37" type="line"/>
      <point x="144" y="-14" type="line"/>
    </contour>
  </outline>
</glyph>
<glyph name="eight" format="2">
  <advance width="613"/>
  <unicode hex="0038"/>
  <note>
eight
</note>
  <outline>
    <contour>
      <point x="36" y="154" type="curve" smooth="yes"/>
      <point x="36" y="53"/>
      <point x="115" y="-13"/>
      <point x="274" y="-13" type="curve" smooth="yes"/>
      <point x="447" y="-13"/>
      <point x="549" y="67"/>
      <point x="549" y="202" type="curve" smooth="yes"/>
      <point x="549" y="268"/>
      <point x="514" y="311"/>
      <point x="465" y="338" type="curve"/>
      <point x="539" y="362"/>
      <point x="588" y="433"/>
      <point x="588" y="513" type="curve" smooth="yes"/>
      <point x="588" y="609"/>
      <point x="512" y="676"/>
      <point x="371" y="676" type="curve" smooth="yes"/>
      <point x="227" y="676"/>
      <point x="114" y="602"/>
      <point x="114" y="471" type="curve" smooth="yes"/>
      <point x="114" y="418"/>
      <point x="137" y="372"/>
      <point x="182" y="343" type="curve"/>
      <point x="87" y="306"/>
      <point x="36" y="235"/>
    </contour>
    <contour>
      <point x="143" y="170" type="curve" smooth="yes"/>
      <point x="143" y="219"/>
      <point x="181" y="273"/>
      <point x="261" y="296" type="curve"/>
      <point x="363" y="296" type="line"/>
      <point x="413" y="281"/>
      <point x="442" y="250"/>
      <point x="442" y="202" type="curve" smooth="yes"/>
      <point x="442" y="126"/>
      <point x="387" y="82"/>
      <point x="281" y="82" type="curve" smooth="yes"/>
      <point x="198" y="82"/>
      <point x="143" y="110"/>
    </contour>
    <contour>
      <point x="216" y="468" type="curve" smooth="yes"/>
      <point x="216" y="530"/>
      <point x="262" y="582"/>
      <point x="365" y="582" type="curve" smooth="yes"/>
      <point x="445" y="582"/>
      <point x="486" y="552"/>
      <point x="486" y="499" type="curve" smooth="yes"/>
      <point x="486" y="448"/>
      <point x="454" y="408"/>
      <point x="381" y="384" type="curve"/>
      <point x="281" y="384" type="line"/>
      <point x="239" y="400"/>
      <point x="216" y="429"/>
    </contour>
  </outline>
</glyph>
<glyph name="nine" format="2">
  <advance width="579"/>
  <unicode hex="0039"/>
  <note>
nine
</note>
  <outline>
    <contour>
      <point x="54" y="92" type="curve"/>
      <point x="27" y="8" type="line"/>
      <point x="27" y="8"/>
      <point x="143" y="-13"/>
      <point x="218" y="-13" type="curve" smooth="yes"/>
      <point x="468" y="-13"/>
      <point x="549" y="230"/>
      <point x="549" y="434" type="curve" smooth="yes"/>
      <point x="549" y="584"/>
      <point x="478" y="676"/>
      <point x="334" y="676" type="curve" smooth="yes"/>
      <point x="168" y="676"/>
      <point x="85" y="557"/>
      <point x="85" y="431" type="curve" smooth="yes"/>
      <point x="85" y="316"/>
      <point x="155" y="252"/>
      <point x="267" y="252" type="curve" smooth="yes"/>
      <point x="343" y="252"/>
      <point x="422" y="282"/>
      <point x="422" y="282" type="curve"/>
      <point x="399" y="167"/>
      <point x="349" y="80"/>
      <point x="207" y="80" type="curve" smooth="yes"/>
      <point x="159" y="80"/>
      <point x="54" y="92"/>
    </contour>
    <contour>
      <point x="193" y="440" type="curve" smooth="yes"/>
      <point x="193" y="516"/>
      <point x="237" y="584"/>
      <point x="329" y="584" type="curve" smooth="yes"/>
      <point x="408" y="584"/>
      <point x="445" y="534"/>
      <point x="445" y="455" type="curve" smooth="yes"/>
      <point x="445" y="425"/>
      <point x="443" y="391"/>
      <point x="438" y="365" type="curve"/>
      <point x="438" y="365"/>
      <point x="357" y="342"/>
      <point x="293" y="342" type="curve" smooth="yes"/>
      <point x="229" y="342"/>
      <point x="193" y="374"/>
    </contour>
  </outline>
</glyph>
<glyph name="colon" format="2">
  <advance width="235"/>
  <unicode hex="003A"/>
  <note>
colon
</note>
  <outline>
    <contour>
      <point x="186" y="310" type="line"/>
      <point x="216" y="449" type="line"/>
      <point x="104" y="449" type="line"/>
      <point x="74" y="310" type="line"/>
    </contour>
    <contour>
      <point x="37" y="139" type="line"/>
      <point x="8" y="0" type="line"/>
      <point x="120" y="0" type="line"/>
      <point x="149" y="139" type="line"/>
    </contour>
  </outline>
</glyph>
<glyph name="semicolon" format="2">
  <advance width="265"/>
  <unicode hex="003B"/>
  <note>
semicolon
</note>
  <outline>
    <contour>
      <point x="199" y="310" type="line"/>
      <point x="229" y="449" type="line"/>
      <point x="117" y="449" type="line"/>
      <point x="87" y="310" type="line"/>
    </contour>
    <contour>
      <point x="66" y="139" type="line"/>
      <point x="-38" y="-123" type="line"/>
      <point x="46" y="-123" type="line"/>
      <point x="180" y="139" type="line"/>
    </contour>
  </outline>
</glyph>
<glyph name="less" format="2">
  <advance width="560"/>
  <unicode hex="003C"/>
  <note>
less
</note>
  <outline>
    <contour>
      <point x="443" y="31" type="line"/>
      <point x="465" y="126" type="line"/>
      <point x="181" y="273" type="line"/>
      <point x="527" y="420" type="line"/>
      <point x="549" y="531" type="line"/>
      <point x="79" y="322" type="line"/>
      <point x="61" y="240" type="line"/>
    </contour>
  </outline>
</glyph>
<glyph name="equal" format="2">
  <advance width="560"/>
  <unicode hex="003D"/>
  <note>
equal
</note>
  <outline>
    <contour>
      <point x="529" y="424" type="line"/>
      <point x="104" y="424" type="line"/>
      <point x="85" y="333" type="line"/>
      <point x="509" y="333" type="line"/>
    </contour>
    <contour>
      <point x="63" y="229" type="line"/>
      <point x="43" y="138" type="line"/>
      <point x="468" y="138" type="line"/>
      <point x="487" y="229" type="line"/>
    </contour>
  </outline>
</glyph>
<glyph name="greater" format="2">
  <advance width="560"/>
  <unicode hex="003E"/>
  <note>
greater
</note>
  <outline>
    <contour>
      <point x="130" y="531" type="line"/>
      <point x="108" y="436" type="line"/>
      <point x="392" y="289" type="line"/>
      <point x="46" y="142" type="line"/>
      <point x="24" y="31" type="line"/>
      <point x="494" y="240" type="line"/>
      <point x="512" y="322" type="line"/>
    </contour>
  </outline>
</glyph>
<glyph name="question" format="2">
  <advance width="425"/>
  <unicode hex="003F"/>
  <note>
question
</note>
  <outline>
    <contour>
      <point x="460" y="577" type="curve" smooth="yes"/>
      <point x="460" y="669"/>
      <point x="393" y="712"/>
      <point x="293" y="712" type="curve" smooth="yes"/>
      <point x="187" y="712"/>
      <point x="112" y="680"/>
      <point x="112" y="680" type="curve"/>
      <point x="101" y="599" type="line"/>
      <point x="101" y="599"/>
      <point x="185" y="620"/>
      <point x="255" y="620" type="curve" smooth="yes"/>
      <point x="315" y="620"/>
      <point x="350" y="605"/>
      <point x="350" y="560" type="curve" smooth="yes"/>
      <point x="350" y="503"/>
      <point x="307" y="465"/>
      <point x="234" y="413" type="curve" smooth="yes"/>
      <point x="167" y="366"/>
      <point x="124" y="326"/>
      <point x="124" y="265" type="curve" smooth="yes"/>
      <point x="124" y="240"/>
      <point x="130" y="222"/>
      <point x="130" y="222" type="curve"/>
      <point x="216" y="222" type="line"/>
      <point x="222" y="255" type="line" smooth="yes"/>
      <point x="230" y="291"/>
      <point x="254" y="319"/>
      <point x="330" y="370" type="curve" smooth="yes"/>
      <point x="417" y="429"/>
      <point x="460" y="487"/>
    </contour>
    <contour>
      <point x="107" y="131" type="line"/>
      <point x="79" y="0" type="line"/>
      <point x="191" y="0" type="line"/>
      <point x="219" y="131" type="line"/>
    </contour>
  </outline>
</glyph>
<glyph name="at" format="2">
  <advance width="996"/>
  <unicode hex="0040"/>
  <note>
at
</note>
  <outline>
    <contour>
      <point x="704" y="-4" type="curve" smooth="yes"/>
      <point x="899" y="-4"/>
      <point x="970" y="249"/>
      <point x="970" y="418" type="curve" smooth="yes"/>
      <point x="970" y="613"/>
      <point x="852" y="726"/>
      <point x="601" y="726" type="curve" smooth="yes"/>
      <point x="142" y="726"/>
      <point x="31" y="345"/>
      <point x="31" y="127" type="curve" smooth="yes"/>
      <point x="31" y="-109"/>
      <point x="170" y="-206"/>
      <point x="411" y="-206" type="curve" smooth="yes"/>
      <point x="466" y="-206"/>
      <point x="560" y="-196"/>
      <point x="560" y="-196" type="curve"/>
      <point x="576" y="-105" type="line"/>
      <point x="576" y="-105"/>
      <point x="478" y="-115"/>
      <point x="431" y="-115" type="curve" smooth="yes"/>
      <point x="229" y="-115"/>
      <point x="138" y="-48"/>
      <point x="138" y="136" type="curve" smooth="yes"/>
      <point x="138" y="307"/>
      <point x="212" y="635"/>
      <point x="591" y="635" type="curve" smooth="yes"/>
      <point x="776" y="635"/>
      <point x="865" y="560"/>
      <point x="865" y="410" type="curve" smooth="yes"/>
      <point x="865" y="295"/>
      <point x="820" y="84"/>
      <point x="723" y="84" type="curve" smooth="yes"/>
      <point x="693" y="84"/>
      <point x="677" y="97"/>
      <point x="677" y="131" type="curve" smooth="yes"/>
      <point x="677" y="163"/>
      <point x="688" y="213"/>
      <point x="708" y="306" type="curve" smooth="yes"/>
      <point x="745" y="477" type="line"/>
      <point x="679" y="490"/>
      <point x="594" y="506"/>
      <point x="537" y="506" type="curve" smooth="yes"/>
      <point x="349" y="506"/>
      <point x="281" y="282"/>
      <point x="281" y="154" type="curve" smooth="yes"/>
      <point x="281" y="49"/>
      <point x="328" y="-5"/>
      <point x="406" y="-5" type="curve" smooth="yes"/>
      <point x="499" y="-5"/>
      <point x="581" y="89"/>
      <point x="581" y="89" type="curve"/>
      <point x="588" y="37"/>
      <point x="621" y="-4"/>
    </contour>
    <contour>
      <point x="385" y="163" type="curve" smooth="yes"/>
      <point x="385" y="249"/>
      <point x="420" y="421"/>
      <point x="534" y="421" type="curve" smooth="yes"/>
      <point x="570" y="421"/>
      <point x="630" y="407"/>
      <point x="630" y="407" type="curve"/>
      <point x="579" y="182" type="line"/>
      <point x="568" y="167"/>
      <point x="505" y="83"/>
      <point x="442" y="83" type="curve" smooth="yes"/>
      <point x="404" y="82"/>
      <point x="385" y="104"/>
    </contour>
  </outline>
</glyph>
<glyph name="F" format="2">
  <advance width="517"/>
  <unicode hex="0046"/>
  <note>
F
</note>
  <outline>
    <contour>
      <point x="565" y="612" type="line"/>
      <point x="585" y="705" type="line"/>
      <point x="176" y="705" type="line"/>
      <point x="25" y="0" type="line"/>
      <point x="132" y="0" type="line"/>
      <point x="191" y="278" type="line"/>
      <point x="442" y="278" type="line"/>
      <point x="462" y="371" type="line"/>
      <point x="211" y="371" type="line"/>
      <point x="262" y="612" type="line"/>
    </contour>
  </outline>
</glyph>
<glyph name="H" format="2">
  <advance width="668"/>
  <unicode hex="0048"/>
  <note>
H
</note>
  <outline>
    <contour>
      <point x="132" y="0" type="line"/>
      <point x="198" y="313" type="line"/>
      <point x="496" y="313" type="line"/>
      <point x="429" y="0" type="line"/>
      <point x="536" y="0" type="line"/>
      <point x="686" y="705" type="line"/>
      <point x="580" y="705" type="line"/>
      <point x="517" y="407" type="line"/>
      <point x="219" y="407" type="line"/>
      <point x="282" y="705" type="line"/>
      <point x="176" y="705" type="line"/>
      <point x="25" y="0" type="line"/>
    </contour>
  </outline>
</glyph>
<glyph name="I" format="2">
  <advance width="264"/>
  <unicode hex="0049"/>
  <note>
I
</note>
  <outline>
    <contour>
      <point x="132" y="0" type="line"/>
      <point x="282" y="705" type="line"/>
      <point x="176" y="705" type="line"/>
      <point x="25" y="0" type="line"/>
    </contour>
  </outline>
</glyph>
<glyph name="J" format="2">
  <advance width="300"/>
  <unicode hex="004A"/>
  <note>
J
</note>
  <outline>
    <contour>
      <point x="204" y="158" type="curve" smooth="yes"/>
      <point x="321" y="705" type="line"/>
      <point x="214" y="705" type="line"/>
      <point x="100" y="167" type="line" smooth="yes"/>
      <point x="85" y="96"/>
      <point x="59" y="87"/>
      <point x="-11" y="87" type="curve"/>
      <point x="-31" y="-7" type="line"/>
      <point x="131" y="-7"/>
      <point x="174" y="19"/>
    </contour>
  </outline>
</glyph>
<glyph name="L" format="2">
  <advance width="476"/>
  <unicode hex="004C"/>
  <note>
L
</note>
  <outline>
    <contour>
      <point x="282" y="705" type="line"/>
      <point x="176" y="705" type="line"/>
      <point x="25" y="0" type="line"/>
      <point x="413" y="0" type="line"/>
      <point x="433" y="95" type="line"/>
      <point x="152" y="95" type="line"/>
    </contour>
  </outline>
</glyph>
<glyph name="M" format="2">
  <advance width="809"/>
  <unicode hex="004D"/>
  <note>
M
</note>
  <outline>
    <contour>
      <point x="377" y="116" type="line"/>
      <point x="374" y="705" type="line"/>
      <point x="175" y="705" type="line"/>
      <point x="25" y="0" type="line"/>
      <point x="129" y="0" type="line"/>
      <point x="255" y="592" type="line"/>
      <point x="284" y="592" type="line"/>
      <point x="291" y="0" type="line"/>
      <point x="415" y="0" type="line"/>
      <point x="672" y="592" type="line"/>
      <point x="701" y="592" type="line"/>
      <point x="575" y="0" type="line"/>
      <point x="677" y="0" type="line"/>
      <point x="827" y="705" type="line"/>
      <point x="630" y="705" type="line"/>
    </contour>
  </outline>
</glyph>
<glyph name="P" format="2">
  <advance width="583"/>
  <unicode hex="0050"/>
  <note>
P
</note>
  <outline>
    <contour>
      <point x="25" y="0" type="line"/>
      <point x="132" y="0" type="line"/>
      <point x="177" y="216" type="line"/>
      <point x="310" y="216" type="line" smooth="yes"/>
      <point x="524" y="216"/>
      <point x="598" y="378"/>
      <point x="598" y="518" type="curve" smooth="yes"/>
      <point x="598" y="648"/>
      <point x="531" y="705"/>
      <point x="402" y="705" type="curve" smooth="yes"/>
      <point x="176" y="705" type="line"/>
    </contour>
    <contour>
      <point x="323" y="308" type="curve" smooth="yes"/>
      <point x="198" y="308" type="line"/>
      <point x="262" y="613" type="line"/>
      <point x="393" y="613" type="line" smooth="yes"/>
      <point x="462" y="613"/>
      <point x="490" y="584"/>
      <point x="490" y="506" type="curve" smooth="yes"/>
      <point x="490" y="410"/>
      <point x="446" y="308"/>
    </contour>
  </outline>
</glyph>
<glyph name="Q" format="2">
  <advance width="664"/>
  <unicode hex="0051"/>
  <note>
Q
</note>
  <outline>
    <contour>
      <point x="280" y="-11" type="curve" smooth="yes"/>
      <point x="297" y="-11"/>
      <point x="313" y="-10"/>
      <point x="340" y="-6" type="curve"/>
      <point x="396" y="-122" type="line"/>
      <point x="501" y="-75" type="line"/>
      <point x="450" y="29" type="line"/>
      <point x="593" y="115"/>
      <point x="649" y="329"/>
      <point x="649" y="483" type="curve" smooth="yes"/>
      <point x="649" y="644"/>
      <point x="556" y="718"/>
      <point x="420" y="718" type="curve" smooth="yes"/>
      <point x="142" y="718"/>
      <point x="58" y="417"/>
      <point x="58" y="221" type="curve" smooth="yes"/>
      <point x="58" y="63"/>
      <point x="150" y="-11"/>
    </contour>
    <contour>
      <point x="168" y="217" type="curve" smooth="yes"/>
      <point x="168" y="366"/>
      <point x="229" y="624"/>
      <point x="409" y="624" type="curve" smooth="yes"/>
      <point x="485" y="624"/>
      <point x="539" y="591"/>
      <point x="539" y="482" type="curve" smooth="yes"/>
      <point x="539" y="330"/>
      <point x="484" y="83"/>
      <point x="297" y="83" type="curve" smooth="yes"/>
      <point x="223" y="83"/>
      <point x="168" y="114"/>
    </contour>
  </outline>
</glyph>
<glyph name="T" format="2">
  <advance width="526"/>
  <unicode hex="0054"/>
  <note>
T
</note>
  <outline>
    <contour>
      <point x="589" y="610" type="line"/>
      <point x="609" y="705" type="line"/>
      <point x="110" y="705" type="line"/>
      <point x="90" y="610" type="line"/>
      <point x="286" y="610" type="line"/>
      <point x="157" y="0" type="line"/>
      <point x="263" y="0" type="line"/>
      <point x="393" y="610" type="line"/>
    </contour>
  </outline>
</glyph>
<glyph name="V" format="2">
  <advance width="592"/>
  <unicode hex="0056"/>
  <note>
V
</note>
  <outline>
    <contour>
      <point x="143" y="0" type="line"/>
      <point x="335" y="0" type="line"/>
      <point x="670" y="705" type="line"/>
      <point x="560" y="705" type="line"/>
      <point x="272" y="96" type="line"/>
      <point x="243" y="96" type="line"/>
      <point x="227" y="705" type="line"/>
      <point x="123" y="705" type="line"/>
    </contour>
  </outline>
</glyph>
<glyph name="W" format="2">
  <advance width="883"/>
  <unicode hex="0057"/>
  <note>
W
</note>
  <outline>
    <contour>
      <point x="231" y="95" type="line"/>
      <point x="201" y="95" type="line"/>
      <point x="235" y="705" type="line"/>
      <point x="130" y="705" type="line"/>
      <point x="95" y="0" type="line"/>
      <point x="283" y="0" type="line"/>
      <point x="509" y="565" type="line"/>
      <point x="492" y="0" type="line"/>
      <point x="673" y="0" type="line"/>
      <point x="948" y="705" type="line"/>
      <point x="841" y="705" type="line"/>
      <point x="612" y="95" type="line"/>
      <point x="583" y="95" type="line"/>
      <point x="600" y="690" type="line"/>
      <point x="471" y="690" type="line"/>
    </contour>
  </outline>
</glyph>
<glyph name="X" format="2">
  <advance width="571"/>
  <unicode hex="0058"/>
  <note>
X
</note>
  <outline>
    <contour>
      <point x="124" y="705" type="line"/>
      <point x="248" y="359" type="line"/>
      <point x="-40" y="0" type="line"/>
      <point x="83" y="0" type="line"/>
      <point x="285" y="268" type="line"/>
      <point x="376" y="0" type="line"/>
      <point x="483" y="0" type="line"/>
      <point x="362" y="335" type="line"/>
      <point x="657" y="705" type="line"/>
      <point x="536" y="707" type="line"/>
      <point x="325" y="428" type="line"/>
      <point x="232" y="705" type="line"/>
    </contour>
  </outline>
</glyph>
<glyph name="Y" format="2">
  <advance width="535"/>
  <unicode hex="0059"/>
  <note>
Y
</note>
  <outline>
    <contour>
      <point x="113" y="705" type="line"/>
      <point x="223" y="296" type="line"/>
      <point x="161" y="0" type="line"/>
      <point x="266" y="0" type="line"/>
      <point x="327" y="296" type="line"/>
      <point x="624" y="705" type="line"/>
      <point x="502" y="705" type="line"/>
      <point x="294" y="404" type="line"/>
      <point x="218" y="705" type="line"/>
    </contour>
  </outline>
</glyph>
<glyph name="Z" format="2">
  <advance width="520"/>
  <unicode hex="005A"/>
  <note>
Z
</note>
  <outline>
    <contour>
      <point x="541" y="586" type="line"/>
      <point x="568" y="705" type="line"/>
      <point x="146" y="705" type="line"/>
      <point x="125" y="612" type="line"/>
      <point x="427" y="612" type="line"/>
      <point x="421" y="587" type="line"/>
      <point x="14" y="120" type="line"/>
      <point x="-12" y="0" type="line"/>
      <point x="426" y="0" type="line"/>
      <point x="446" y="94" type="line"/>
      <point x="130" y="94" type="line"/>
      <point x="135" y="119" type="line"/>
    </contour>
  </outline>
</glyph>
<glyph name="bracketleft" format="2">
  <advance width="340"/>
  <unicode hex="005B"/>
  <note>
bracketleft
</note>
  <outline>
    <contour>
      <point x="121" y="-30" type="line"/>
      <point x="266" y="655" type="line"/>
      <point x="393" y="655" type="line"/>
      <point x="414" y="748" type="line"/>
      <point x="183" y="748" type="line"/>
      <point x="-3" y="-123" type="line"/>
      <point x="228" y="-123" type="line"/>
      <point x="248" y="-30" type="line"/>
    </contour>
  </outline>
</glyph>
<glyph name="backslash" format="2">
  <advance width="666"/>
  <unicode hex="005C"/>
  <note>
backslash
</note>
  <outline>
    <contour>
      <point x="531" y="-24" type="line"/>
      <point x="606" y="22" type="line"/>
      <point x="175" y="714" type="line"/>
      <point x="100" y="667" type="line"/>
    </contour>
  </outline>
</glyph>
<glyph name="bracketright" format="2">
  <advance width="339"/>
  <unicode hex="005D"/>
  <note>
bracketright
</note>
  <outline>
    <contour>
      <point x="244" y="655" type="line"/>
      <point x="99" y="-30" type="line"/>
      <point x="-28" y="-30" type="line"/>
      <point x="-48" y="-123" type="line"/>
      <point x="182" y="-123" type="line"/>
      <point x="368" y="748" type="line"/>
      <point x="138" y="748" type="line"/>
      <point x="117" y="655" type="line"/>
    </contour>
  </outline>
</glyph>
<glyph name="asciicircum" format="2">
  <advance width="560"/>
  <unicode hex="005E"/>
  <note>
asciicircum
</note>
  <outline>
    <contour>
      <point x="59" y="316" type="line"/>
      <point x="174" y="316" type="line"/>
      <point x="353" y="559" type="line"/>
      <point x="429" y="316" type="line"/>
      <point x="532" y="316" type="line"/>
      <point x="413" y="660" type="line"/>
      <point x="321" y="660" type="line"/>
    </contour>
  </outline>
</glyph>
<glyph name="underscore" format="2">
  <advance width="551"/>
  <unicode hex="005F"/>
  <note>
underscore
</note>
  <outline>
    <contour>
      <point x="422" y="-124" type="line"/>
      <point x="440" y="-42" type="line"/>
      <point x="-10" y="-42" type="line"/>
      <point x="-28" y="-124" type="line"/>
    </contour>
  </outline>
</glyph>
<glyph name="grave" format="2">
  <advance width="373"/>
  <unicode hex="0060"/>
  <note>
grave
</note>
  <outline>
    <contour>
      <point x="88" y="658" type="line"/>
      <point x="318" y="578" type="line"/>
      <point x="348" y="646" type="line"/>
      <point x="128" y="746" type="line"/>
    </contour>
  </outline>
</glyph>
<glyph name="b" format="2">
  <advance width="519"/>
  <unicode hex="0062"/>
  <note>
b
</note>
  <outline>
    <contour>
      <point x="359" y="520" type="curve" smooth="yes"/>
      <point x="278" y="520"/>
      <point x="208" y="448"/>
      <point x="208" y="448" type="curve"/>
      <point x="268" y="731" type="line"/>
      <point x="169" y="730" type="line"/>
      <point x="17" y="18" type="line"/>
      <point x="17" y="18"/>
      <point x="149" y="-13"/>
      <point x="236" y="-13" type="curve" smooth="yes"/>
      <point x="406" y="-13"/>
      <point x="486" y="190"/>
      <point x="486" y="353" type="curve" smooth="yes"/>
      <point x="486" y="447"/>
      <point x="450" y="520"/>
    </contour>
    <contour>
      <point x="134" y="88" type="curve"/>
      <point x="187" y="344" type="line"/>
      <point x="187" y="344"/>
      <point x="256" y="429"/>
      <point x="326" y="429" type="curve" smooth="yes"/>
      <point x="371" y="429"/>
      <point x="381" y="394"/>
      <point x="381" y="344" type="curve" smooth="yes"/>
      <point x="381" y="246"/>
      <point x="347" y="75"/>
      <point x="233" y="75" type="curve" smooth="yes"/>
      <point x="194" y="75"/>
      <point x="134" y="88"/>
    </contour>
  </outline>
</glyph>
<glyph name="c" format="2">
  <advance width="428"/>
  <unicode hex="0063"/>
  <note>
c
</note>
  <outline>
    <contour>
      <point x="306" y="520" type="curve" smooth="yes"/>
      <point x="91" y="520"/>
      <point x="35" y="299"/>
      <point x="35" y="161" type="curve" smooth="yes"/>
      <point x="35" y="44"/>
      <point x="91" y="-13"/>
      <point x="200" y="-13" type="curve" smooth="yes"/>
      <point x="263" y="-13"/>
      <point x="340" y="4"/>
      <point x="340" y="4" type="curve"/>
      <point x="354" y="87" type="line"/>
      <point x="354" y="87"/>
      <point x="279" y="77"/>
      <point x="224" y="77" type="curve" smooth="yes"/>
      <point x="160" y="77"/>
      <point x="138" y="94"/>
      <point x="138" y="170" type="curve" smooth="yes"/>
      <point x="138" y="267"/>
      <point x="169" y="430"/>
      <point x="311" y="430" type="curve" smooth="yes"/>
      <point x="355" y="430"/>
      <point x="417" y="419"/>
      <point x="417" y="419" type="curve"/>
      <point x="440" y="501" type="line"/>
      <point x="440" y="501"/>
      <point x="364" y="520"/>
    </contour>
  </outline>
</glyph>
<glyph name="g" format="2">
  <advance width="492"/>
  <unicode hex="0067"/>
  <note>
g
</note>
  <outline>
    <contour>
      <point x="157" y="-242" type="curve" smooth="yes"/>
      <point x="328" y="-242"/>
      <point x="416" y="-173"/>
      <point x="416" y="-49" type="curve" smooth="yes"/>
      <point x="416" y="27"/>
      <point x="381" y="57"/>
      <point x="290" y="72" type="curve" smooth="yes"/>
      <point x="185" y="90" type="line" smooth="yes"/>
      <point x="155" y="95"/>
      <point x="145" y="102"/>
      <point x="145" y="118" type="curve" smooth="yes"/>
      <point x="145" y="141"/>
      <point x="165" y="170"/>
      <point x="175" y="178" type="curve"/>
      <point x="185" y="176"/>
      <point x="205" y="174"/>
      <point x="218" y="174" type="curve" smooth="yes"/>
      <point x="358" y="174"/>
      <point x="440" y="256"/>
      <point x="440" y="366" type="curve" smooth="yes"/>
      <point x="440" y="392"/>
      <point x="433" y="416"/>
      <point x="427" y="429" type="curve"/>
      <point x="507" y="426" type="line"/>
      <point x="526" y="510" type="line"/>
      <point x="373" y="501" type="line"/>
      <point x="373" y="501"/>
      <point x="328" y="520"/>
      <point x="274" y="520" type="curve" smooth="yes"/>
      <point x="137" y="520"/>
      <point x="56" y="430"/>
      <point x="56" y="313" type="curve" smooth="yes"/>
      <point x="56" y="253"/>
      <point x="82" y="217"/>
      <point x="117" y="199" type="curve"/>
      <point x="94" y="179"/>
      <point x="56" y="134"/>
      <point x="56" y="96" type="curve" smooth="yes"/>
      <point x="56" y="76"/>
      <point x="62" y="61"/>
      <point x="72" y="49" type="curve"/>
      <point x="4" y="7"/>
      <point x="-49" y="-34"/>
      <point x="-49" y="-109" type="curve" smooth="yes"/>
      <point x="-49" y="-194"/>
      <point x="10" y="-242"/>
    </contour>
    <contour>
      <point x="45" y="-92" type="curve" smooth="yes"/>
      <point x="45" y="-52"/>
      <point x="70" y="-23"/>
      <point x="121" y="11" type="curve"/>
      <point x="132" y="7"/>
      <point x="146" y="3"/>
      <point x="175" y="-2" type="curve" smooth="yes"/>
      <point x="256" y="-15" type="line" smooth="yes"/>
      <point x="292" y="-21"/>
      <point x="316" y="-33"/>
      <point x="316" y="-77" type="curve" smooth="yes"/>
      <point x="316" y="-133"/>
      <point x="266" y="-161"/>
      <point x="166" y="-161" type="curve" smooth="yes"/>
      <point x="77" y="-161"/>
      <point x="45" y="-137"/>
    </contour>
    <contour>
      <point x="154" y="320" type="curve" smooth="yes"/>
      <point x="154" y="381"/>
      <point x="189" y="440"/>
      <point x="266" y="440" type="curve" smooth="yes"/>
      <point x="321" y="440"/>
      <point x="343" y="416"/>
      <point x="343" y="370" type="curve" smooth="yes"/>
      <point x="343" y="312"/>
      <point x="308" y="252"/>
      <point x="228" y="252" type="curve" smooth="yes"/>
      <point x="175" y="252"/>
      <point x="154" y="279"/>
    </contour>
  </outline>
</glyph>
<glyph name="h" format="2">
  <advance width="513"/>
  <unicode hex="0068"/>
  <note>
h
</note>
  <outline>
    <contour>
      <point x="267" y="730" type="line"/>
      <point x="169" y="730" type="line"/>
      <point x="14" y="0" type="line"/>
      <point x="116" y="0" type="line"/>
      <point x="187" y="340" type="line"/>
      <point x="187" y="340"/>
      <point x="246" y="427"/>
      <point x="313" y="427" type="curve" smooth="yes"/>
      <point x="349" y="427"/>
      <point x="366" y="407"/>
      <point x="366" y="367" type="curve" smooth="yes"/>
      <point x="366" y="330"/>
      <point x="353" y="285"/>
      <point x="347" y="252" type="curve" smooth="yes"/>
      <point x="297" y="0" type="line"/>
      <point x="400" y="0" type="line"/>
      <point x="451" y="259" type="line" smooth="yes"/>
      <point x="458" y="293"/>
      <point x="472" y="351"/>
      <point x="472" y="393" type="curve" smooth="yes"/>
      <point x="472" y="465"/>
      <point x="440" y="520"/>
      <point x="360" y="520" type="curve" smooth="yes"/>
      <point x="272" y="520"/>
      <point x="206" y="441"/>
      <point x="206" y="441" type="curve"/>
    </contour>
  </outline>
</glyph>
<glyph name="i" format="2">
  <advance width="236"/>
  <unicode hex="0069"/>
  <note>
i
</note>
  <outline>
    <contour>
      <point x="237" y="584" type="line"/>
      <point x="262" y="700" type="line"/>
      <point x="161" y="700" type="line"/>
      <point x="136" y="584" type="line"/>
    </contour>
    <contour>
      <point x="120" y="500" type="line"/>
      <point x="14" y="0" type="line"/>
      <point x="115" y="0" type="line"/>
      <point x="221" y="500" type="line"/>
    </contour>
  </outline>
</glyph>
<glyph name="j" format="2">
  <advance width="237"/>
  <unicode hex="006A"/>
  <note>
j
</note>
  <outline>
    <contour>
      <point x="236" y="584" type="line"/>
      <point x="261" y="700" type="line"/>
      <point x="160" y="700" type="line"/>
      <point x="135" y="584" type="line"/>
    </contour>
    <contour>
      <point x="-129" y="-162" type="curve"/>
      <point x="-105" y="-240" type="line"/>
      <point x="43" y="-171"/>
      <point x="88" y="-127"/>
      <point x="116" y="4" type="curve" smooth="yes"/>
      <point x="222" y="500" type="line"/>
      <point x="120" y="500" type="line"/>
      <point x="14" y="5" type="line" smooth="yes"/>
      <point x="-5" y="-86"/>
      <point x="-27" y="-106"/>
    </contour>
  </outline>
</glyph>
<glyph name="k" format="2">
  <advance width="485"/>
  <unicode hex="006B"/>
  <note>
k
</note>
  <outline>
    <contour>
      <point x="271" y="730" type="line"/>
      <point x="169" y="730" type="line"/>
      <point x="14" y="0" type="line"/>
      <point x="115" y="0" type="line"/>
      <point x="162" y="222" type="line"/>
      <point x="243" y="228" type="line"/>
      <point x="321" y="0" type="line"/>
      <point x="424" y="0" type="line"/>
      <point x="328" y="281" type="line"/>
      <point x="510" y="500" type="line"/>
      <point x="391" y="500" type="line"/>
      <point x="245" y="318" type="line"/>
      <point x="181" y="312" type="line"/>
    </contour>
  </outline>
</glyph>
<glyph name="l" format="2">
  <advance width="278"/>
  <unicode hex="006C"/>
  <note>
l
</note>
  <outline>
    <contour>
      <point x="141" y="132" type="curve" smooth="yes"/>
      <point x="267" y="730" type="line"/>
      <point x="166" y="730" type="line"/>
      <point x="37" y="121" type="line" smooth="yes"/>
      <point x="19" y="37"/>
      <point x="47" y="-11"/>
      <point x="137" y="-11" type="curve" smooth="yes"/>
      <point x="175" y="-11"/>
      <point x="210" y="-2"/>
      <point x="210" y="-2" type="curve"/>
      <point x="223" y="83" type="line"/>
      <point x="223" y="83"/>
      <point x="201" y="81"/>
      <point x="173" y="81" type="curve" smooth="yes"/>
      <point x="136" y="81"/>
      <point x="133" y="96"/>
    </contour>
  </outline>
</glyph>
<glyph name="n" format="2">
  <advance width="514"/>
  <unicode hex="006E"/>
  <note>
n
</note>
  <outline>
    <contour>
      <point x="213" y="505" type="line"/>
      <point x="122" y="505" type="line"/>
      <point x="14" y="0" type="line"/>
      <point x="116" y="0" type="line"/>
      <point x="187" y="337" type="line"/>
      <point x="187" y="337"/>
      <point x="246" y="427"/>
      <point x="316" y="427" type="curve" smooth="yes"/>
      <point x="350" y="427"/>
      <point x="368" y="406"/>
      <point x="368" y="369" type="curve" smooth="yes"/>
      <point x="368" y="331"/>
      <point x="358" y="287"/>
      <point x="351" y="254" type="curve" smooth="yes"/>
      <point x="298" y="0" type="line"/>
      <point x="399" y="0" type="line"/>
      <point x="453" y="259" type="line" smooth="yes"/>
      <point x="460" y="293"/>
      <point x="473" y="352"/>
      <point x="473" y="397" type="curve" smooth="yes"/>
      <point x="473" y="465"/>
      <point x="440" y="520"/>
      <point x="365" y="520" type="curve" smooth="yes"/>
      <point x="270" y="520"/>
      <point x="202" y="434"/>
      <point x="202" y="434" type="curve"/>
    </contour>
  </outline>
</glyph>
<glyph name="p" format="2">
  <advance width="522"/>
  <unicode hex="0070"/>
  <note>
p
</note>
  <outline>
    <contour>
      <point x="197" y="421" type="curve"/>
      <point x="213" y="505" type="line"/>
      <point x="122" y="505" type="line"/>
      <point x="-35" y="-230" type="line"/>
      <point x="65" y="-230" type="line"/>
      <point x="116" y="6" type="line"/>
      <point x="116" y="6"/>
      <point x="194" y="-13"/>
      <point x="245" y="-13" type="curve" smooth="yes"/>
      <point x="404" y="-13"/>
      <point x="489" y="184"/>
      <point x="489" y="357" type="curve" smooth="yes"/>
      <point x="489" y="455"/>
      <point x="449" y="520"/>
      <point x="360" y="520" type="curve" smooth="yes"/>
      <point x="276" y="520"/>
      <point x="197" y="421"/>
    </contour>
    <contour>
      <point x="134" y="89" type="curve"/>
      <point x="183" y="319" type="line"/>
      <point x="183" y="319"/>
      <point x="256" y="429"/>
      <point x="329" y="429" type="curve" smooth="yes"/>
      <point x="373" y="429"/>
      <point x="387" y="400"/>
      <point x="387" y="351" type="curve" smooth="yes"/>
      <point x="387" y="222"/>
      <point x="339" y="75"/>
      <point x="247" y="75" type="curve" smooth="yes"/>
      <point x="198" y="75"/>
      <point x="134" y="89"/>
    </contour>
  </outline>
</glyph>
<glyph name="q" format="2">
  <advance width="521"/>
  <unicode hex="0071"/>
  <note>
q
</note>
  <outline>
    <contour>
      <point x="160" y="-13" type="curve" smooth="yes"/>
      <point x="242" y="-13"/>
      <point x="315" y="62"/>
      <point x="315" y="62" type="curve"/>
      <point x="253" y="-230" type="line"/>
      <point x="352" y="-230" type="line"/>
      <point x="504" y="489" type="line"/>
      <point x="504" y="489"/>
      <point x="369" y="520"/>
      <point x="283" y="520" type="curve" smooth="yes"/>
      <point x="121" y="520"/>
      <point x="34" y="333"/>
      <point x="34" y="156" type="curve" smooth="yes"/>
      <point x="34" y="55"/>
      <point x="74" y="-13"/>
    </contour>
    <contour>
      <point x="139" y="160" type="curve" smooth="yes"/>
      <point x="139" y="285"/>
      <point x="181" y="432"/>
      <point x="287" y="432" type="curve" smooth="yes"/>
      <point x="327" y="432"/>
      <point x="388" y="419"/>
      <point x="388" y="419" type="curve"/>
      <point x="335" y="164" type="line"/>
      <point x="335" y="164"/>
      <point x="263" y="78"/>
      <point x="197" y="78" type="curve" smooth="yes"/>
      <point x="152" y="78"/>
      <point x="139" y="108"/>
    </contour>
  </outline>
</glyph>
<glyph name="r" format="2">
  <advance width="351"/>
  <unicode hex="0072"/>
  <note>
r
</note>
  <outline>
    <contour>
      <point x="201" y="435" type="curve"/>
      <point x="212" y="505" type="line"/>
      <point x="122" y="505" type="line"/>
      <point x="14" y="0" type="line"/>
      <point x="116" y="0" type="line"/>
      <point x="189" y="349" type="line"/>
      <point x="189" y="349"/>
      <point x="277" y="395"/>
      <point x="367" y="414" type="curve"/>
      <point x="392" y="520" type="line"/>
      <point x="280" y="499"/>
      <point x="201" y="435"/>
    </contour>
  </outline>
</glyph>
<glyph name="t" format="2">
  <advance width="358"/>
  <unicode hex="0074"/>
  <note>
t
</note>
  <outline>
    <contour>
      <point x="168" y="127" type="curve" smooth="yes"/>
      <point x="232" y="416" type="line"/>
      <point x="365" y="416" type="line"/>
      <point x="383" y="505" type="line"/>
      <point x="249" y="505" type="line"/>
      <point x="280" y="653" type="line"/>
      <point x="180" y="653" type="line"/>
      <point x="148" y="505" type="line"/>
      <point x="79" y="505" type="line"/>
      <point x="60" y="416" type="line"/>
      <point x="129" y="416" type="line"/>
      <point x="66" y="124" type="line" smooth="yes"/>
      <point x="47" y="36"/>
      <point x="74" y="-13"/>
      <point x="177" y="-13" type="curve" smooth="yes"/>
      <point x="219" y="-13"/>
      <point x="275" y="-3"/>
      <point x="275" y="-3" type="curve"/>
      <point x="287" y="83" type="line"/>
      <point x="287" y="83"/>
      <point x="233" y="79"/>
      <point x="209" y="79" type="curve" smooth="yes"/>
      <point x="163" y="79"/>
      <point x="160" y="90"/>
    </contour>
  </outline>
</glyph>
<glyph name="u" format="2">
  <advance width="513"/>
  <unicode hex="0075"/>
  <note>
u
</note>
  <outline>
    <contour>
      <point x="300" y="0" type="line"/>
      <point x="391" y="0" type="line"/>
      <point x="499" y="505" type="line"/>
      <point x="397" y="505" type="line"/>
      <point x="326" y="167" type="line"/>
      <point x="326" y="167"/>
      <point x="266" y="79"/>
      <point x="200" y="79" type="curve" smooth="yes"/>
      <point x="165" y="79"/>
      <point x="148" y="99"/>
      <point x="148" y="136" type="curve" smooth="yes"/>
      <point x="148" y="175"/>
      <point x="158" y="221"/>
      <point x="165" y="255" type="curve" smooth="yes"/>
      <point x="217" y="505" type="line"/>
      <point x="116" y="505" type="line"/>
      <point x="62" y="247" type="line" smooth="yes"/>
      <point x="55" y="214"/>
      <point x="43" y="155"/>
      <point x="43" y="107" type="curve" smooth="yes"/>
      <point x="43" y="37"/>
      <point x="78" y="-13"/>
      <point x="151" y="-13" type="curve" smooth="yes"/>
      <point x="246" y="-13"/>
      <point x="312" y="70"/>
      <point x="312" y="70" type="curve"/>
    </contour>
  </outline>
</glyph>
<glyph name="v" format="2">
  <advance width="472"/>
  <unicode hex="0076"/>
  <note>
v
</note>
  <outline>
    <contour>
      <point x="207" y="89" type="line"/>
      <point x="182" y="89" type="line"/>
      <point x="184" y="505" type="line"/>
      <point x="83" y="505" type="line"/>
      <point x="86" y="0" type="line"/>
      <point x="266" y="0" type="line"/>
      <point x="506" y="505" type="line"/>
      <point x="400" y="505" type="line"/>
    </contour>
  </outline>
</glyph>
<glyph name="w" format="2">
  <advance width="739"/>
  <unicode hex="0077"/>
  <note>
w
</note>
  <outline>
    <contour>
      <point x="193" y="89" type="line"/>
      <point x="168" y="89" type="line"/>
      <point x="188" y="505" type="line"/>
      <point x="87" y="505" type="line"/>
      <point x="68" y="0" type="line"/>
      <point x="239" y="0" type="line"/>
      <point x="395" y="360" type="line"/>
      <point x="389" y="0" type="line"/>
      <point x="559" y="0" type="line"/>
      <point x="761" y="505" type="line"/>
      <point x="661" y="505" type="line"/>
      <point x="497" y="89" type="line"/>
      <point x="473" y="89" type="line"/>
      <point x="478" y="495" type="line"/>
      <point x="371" y="495" type="line"/>
    </contour>
  </outline>
</glyph>
<glyph name="x" format="2">
  <advance width="452"/>
  <unicode hex="0078"/>
  <note>
x
</note>
  <outline>
    <contour>
      <point x="77" y="505" type="line"/>
      <point x="171" y="267" type="line"/>
      <point x="-38" y="0" type="line"/>
      <point x="69" y="0" type="line"/>
      <point x="205" y="179" type="line"/>
      <point x="271" y="0" type="line"/>
      <point x="373" y="0" type="line"/>
      <point x="278" y="243" type="line"/>
      <point x="494" y="505" type="line"/>
      <point x="381" y="505" type="line"/>
      <point x="244" y="327" type="line"/>
      <point x="181" y="505" type="line"/>
    </contour>
  </outline>
</glyph>
<glyph name="y" format="2">
  <advance width="470"/>
  <unicode hex="0079"/>
  <note>
y
</note>
  <outline>
    <contour>
      <point x="207" y="89" type="line"/>
      <point x="182" y="89" type="line"/>
      <point x="184" y="505" type="line"/>
      <point x="83" y="505" type="line"/>
      <point x="86" y="0" type="line"/>
      <point x="160" y="0" type="line"/>
      <point x="47" y="-230" type="line"/>
      <point x="152" y="-230" type="line"/>
      <point x="506" y="505" type="line"/>
      <point x="400" y="505" type="line"/>
    </contour>
  </outline>
</glyph>
<glyph name="z" format="2">
  <advance width="441"/>
  <unicode hex="007A"/>
  <note>
z
</note>
  <outline>
    <contour>
      <point x="428" y="397" type="line"/>
      <point x="451" y="505" type="line"/>
      <point x="97" y="505" type="line"/>
      <point x="79" y="412" type="line"/>
      <point x="308" y="412" type="line"/>
      <point x="303" y="392" type="line"/>
      <point x="10" y="108" type="line"/>
      <point x="-12" y="0" type="line"/>
      <point x="346" y="0" type="line"/>
      <point x="364" y="93" type="line"/>
      <point x="133" y="93" type="line"/>
      <point x="138" y="113" type="line"/>
    </contour>
  </outline>
</glyph>
<glyph name="braceleft" format="2">
  <advance width="364"/>
  <unicode hex="007B"/>
  <note>
braceleft
</note>
  <outline>
    <contour>
      <point x="226" y="170" type="curve" smooth="yes"/>
      <point x="245" y="252"/>
      <point x="232" y="289"/>
      <point x="142" y="313" type="curve"/>
      <point x="242" y="337"/>
      <point x="268" y="364"/>
      <point x="285" y="446" type="curve" smooth="yes"/>
      <point x="292" y="479"/>
      <point x="297" y="538"/>
      <point x="304" y="571" type="curve" smooth="yes"/>
      <point x="315" y="626"/>
      <point x="341" y="660"/>
      <point x="419" y="665" type="curve"/>
      <point x="436" y="754" type="line"/>
      <point x="293" y="749"/>
      <point x="231" y="710"/>
      <point x="204" y="584" type="curve" smooth="yes"/>
      <point x="196" y="547"/>
      <point x="191" y="488"/>
      <point x="185" y="456" type="curve" smooth="yes"/>
      <point x="174" y="404"/>
      <point x="134" y="370"/>
      <point x="54" y="352" type="curve"/>
      <point x="38" y="275" type="line"/>
      <point x="109" y="254"/>
      <point x="134" y="217"/>
      <point x="124" y="165" type="curve" smooth="yes"/>
      <point x="117" y="136"/>
      <point x="99" y="98"/>
      <point x="91" y="59" type="curve" smooth="yes"/>
      <point x="65" y="-60"/>
      <point x="105" y="-124"/>
      <point x="253" y="-129" type="curve"/>
      <point x="269" y="-40" type="line"/>
      <point x="192" y="-35"/>
      <point x="183" y="-1"/>
      <point x="194" y="54" type="curve" smooth="yes"/>
      <point x="201" y="88"/>
      <point x="218" y="134"/>
    </contour>
  </outline>
</glyph>
<glyph name="braceright" format="2">
  <advance width="365"/>
  <unicode hex="007D"/>
  <note>
braceright
</note>
  <outline>
    <contour>
      <point x="164" y="455" type="curve" smooth="yes"/>
      <point x="146" y="373"/>
      <point x="158" y="336"/>
      <point x="248" y="312" type="curve"/>
      <point x="148" y="288"/>
      <point x="123" y="261"/>
      <point x="105" y="179" type="curve" smooth="yes"/>
      <point x="98" y="146"/>
      <point x="94" y="87"/>
      <point x="87" y="54" type="curve" smooth="yes"/>
      <point x="75" y="-1"/>
      <point x="49" y="-35"/>
      <point x="-29" y="-40" type="curve"/>
      <point x="-46" y="-129" type="line"/>
      <point x="97" y="-124"/>
      <point x="159" y="-85"/>
      <point x="187" y="41" type="curve" smooth="yes"/>
      <point x="194" y="78"/>
      <point x="199" y="137"/>
      <point x="205" y="169" type="curve" smooth="yes"/>
      <point x="216" y="221"/>
      <point x="256" y="255"/>
      <point x="337" y="273" type="curve"/>
      <point x="352" y="350" type="line"/>
      <point x="281" y="371"/>
      <point x="256" y="408"/>
      <point x="267" y="460" type="curve" smooth="yes"/>
      <point x="273" y="489"/>
      <point x="291" y="527"/>
      <point x="300" y="566" type="curve" smooth="yes"/>
      <point x="325" y="685"/>
      <point x="286" y="749"/>
      <point x="137" y="754" type="curve"/>
      <point x="121" y="665" type="line"/>
      <point x="198" y="660"/>
      <point x="207" y="626"/>
      <point x="196" y="571" type="curve" smooth="yes"/>
      <point x="189" y="537"/>
      <point x="172" y="491"/>
    </contour>
  </outline>
</glyph>
<glyph name="asciitilde" format="2">
  <advance width="560"/>
  <unicode hex="007E"/>
  <note>
asciitilde
</note>
  <outline>
    <contour>
      <point x="526" y="278" type="curve"/>
      <point x="506" y="343" type="line"/>
      <point x="506" y="343"/>
      <point x="432" y="301"/>
      <point x="394" y="301" type="curve" smooth="yes"/>
      <point x="347" y="301"/>
      <point x="259" y="354"/>
      <point x="204" y="354" type="curve" smooth="yes"/>
      <point x="147" y="354"/>
      <point x="45" y="283"/>
      <point x="45" y="283" type="curve"/>
      <point x="66" y="218" type="line"/>
      <point x="66" y="218"/>
      <point x="138" y="261"/>
      <point x="182" y="261" type="curve" smooth="yes"/>
      <point x="222" y="261"/>
      <point x="317" y="207"/>
      <point x="373" y="207" type="curve" smooth="yes"/>
      <point x="429" y="207"/>
      <point x="526" y="278"/>
    </contour>
  </outline>
</glyph>
<glyph name="exclamdown" format="2">
  <advance width="237"/>
  <unicode hex="00A1"/>
  <note>
exclamdown
</note>
  <outline>
    <contour>
      <point x="114" y="500" type="line"/>
      <point x="86" y="369" type="line"/>
      <point x="198" y="369" type="line"/>
      <point x="226" y="500" type="line"/>
    </contour>
    <contour>
      <point x="74" y="257" type="line"/>
      <point x="-35" y="-205" type="line"/>
      <point x="77" y="-205" type="line"/>
      <point x="167" y="257" type="line"/>
    </contour>
  </outline>
</glyph>
<glyph name="cent" format="2">
  <advance width="455"/>
  <unicode hex="00A2"/>
  <note>
cent
</note>
  <outline>
    <contour>
      <point x="193" y="66" type="curve"/>
      <point x="169" y="-50" type="line"/>
      <point x="253" y="-50" type="line"/>
      <point x="279" y="69" type="line"/>
      <point x="321" y="72"/>
      <point x="373" y="80"/>
      <point x="373" y="80" type="curve"/>
      <point x="387" y="161" type="line"/>
      <point x="387" y="161"/>
      <point x="310" y="155"/>
      <point x="265" y="155" type="curve" smooth="yes"/>
      <point x="189" y="155"/>
      <point x="158" y="176"/>
      <point x="158" y="230" type="curve" smooth="yes"/>
      <point x="158" y="272"/>
      <point x="165" y="410"/>
      <point x="307" y="410" type="curve" smooth="yes"/>
      <point x="351" y="410"/>
      <point x="426" y="405"/>
      <point x="426" y="405" type="curve"/>
      <point x="446" y="485" type="line"/>
      <point x="446" y="485"/>
      <point x="403" y="495"/>
      <point x="361" y="497" type="curve"/>
      <point x="386" y="615" type="line"/>
      <point x="301" y="615" type="line"/>
      <point x="276" y="501" type="line"/>
      <point x="115" y="490"/>
      <point x="49" y="336"/>
      <point x="49" y="211" type="curve" smooth="yes"/>
      <point x="49" y="120"/>
      <point x="101" y="71"/>
    </contour>
  </outline>
</glyph>
<glyph name="sterling" format="2">
  <advance width="484"/>
  <unicode hex="00A3"/>
  <note>
sterling
</note>
  <outline>
    <contour>
      <point x="486" y="569" type="curve"/>
      <point x="506" y="651" type="line"/>
      <point x="506" y="651"/>
      <point x="431" y="671"/>
      <point x="367" y="671" type="curve" smooth="yes"/>
      <point x="262" y="671"/>
      <point x="204" y="636"/>
      <point x="177" y="510" type="curve" smooth="yes"/>
      <point x="159" y="425" type="line"/>
      <point x="93" y="425" type="line"/>
      <point x="74" y="337" type="line"/>
      <point x="140" y="337" type="line"/>
      <point x="88" y="89" type="line"/>
      <point x="8" y="89" type="line"/>
      <point x="-11" y="0" type="line"/>
      <point x="318" y="0" type="line"/>
      <point x="403" y="18" type="line"/>
      <point x="405" y="105" type="line"/>
      <point x="329" y="89" type="line"/>
      <point x="189" y="89" type="line"/>
      <point x="241" y="337" type="line"/>
      <point x="404" y="337" type="line"/>
      <point x="422" y="425" type="line"/>
      <point x="260" y="425" type="line"/>
      <point x="271" y="477" type="line" smooth="yes"/>
      <point x="288" y="554"/>
      <point x="310" y="578"/>
      <point x="360" y="578" type="curve" smooth="yes"/>
      <point x="414" y="578"/>
      <point x="486" y="569"/>
    </contour>
  </outline>
</glyph>
<glyph name="currency" format="2">
  <advance width="558"/>
  <unicode hex="00A4"/>
  <note>
currency
</note>
  <outline>
    <contour>
      <point x="348" y="121" type="curve"/>
      <point x="405" y="49" type="line"/>
      <point x="482" y="113" type="line"/>
      <point x="424" y="184" type="line"/>
      <point x="458" y="225"/>
      <point x="479" y="272"/>
      <point x="479" y="323" type="curve" smooth="yes"/>
      <point x="479" y="340"/>
      <point x="476" y="356"/>
      <point x="470" y="372" type="curve"/>
      <point x="557" y="444" type="line"/>
      <point x="498" y="519" type="line"/>
      <point x="411" y="447" type="line"/>
      <point x="387" y="463"/>
      <point x="359" y="471"/>
      <point x="326" y="471" type="curve" smooth="yes"/>
      <point x="292" y="471"/>
      <point x="252" y="458"/>
      <point x="221" y="442" type="curve"/>
      <point x="166" y="514" type="line"/>
      <point x="88" y="452" type="line"/>
      <point x="145" y="380" type="line"/>
      <point x="114" y="340"/>
      <point x="93" y="289"/>
      <point x="93" y="240" type="curve" smooth="yes"/>
      <point x="93" y="223"/>
      <point x="95" y="206"/>
      <point x="100" y="191" type="curve"/>
      <point x="15" y="120" type="line"/>
      <point x="73" y="45" type="line"/>
      <point x="160" y="117" type="line"/>
      <point x="183" y="100"/>
      <point x="211" y="93"/>
      <point x="245" y="93" type="curve" smooth="yes"/>
      <point x="278" y="93"/>
      <point x="317" y="105"/>
    </contour>
    <contour>
      <point x="182" y="261" type="curve" smooth="yes"/>
      <point x="182" y="325"/>
      <point x="245" y="383"/>
      <point x="307" y="383" type="curve" smooth="yes"/>
      <point x="355" y="383"/>
      <point x="389" y="348"/>
      <point x="389" y="302" type="curve" smooth="yes"/>
      <point x="389" y="238"/>
      <point x="325" y="181"/>
      <point x="264" y="181" type="curve" smooth="yes"/>
      <point x="215" y="181"/>
      <point x="182" y="216"/>
    </contour>
  </outline>
</glyph>
<glyph name="yen" format="2">
  <advance width="591"/>
  <unicode hex="00A5"/>
  <note>
yen
</note>
  <outline>
    <contour>
      <point x="209" y="106" type="line"/>
      <point x="187" y="0" type="line"/>
      <point x="292" y="0" type="line"/>
      <point x="314" y="106" type="line"/>
      <point x="468" y="106" type="line"/>
      <point x="486" y="192" type="line"/>
      <point x="333" y="192" type="line"/>
      <point x="348" y="262" type="line"/>
      <point x="501" y="262" type="line"/>
      <point x="519" y="348" type="line"/>
      <point x="410" y="348" type="line"/>
      <point x="652" y="660" type="line"/>
      <point x="529" y="660" type="line"/>
      <point x="313" y="366" type="line"/>
      <point x="214" y="660" type="line"/>
      <point x="106" y="660" type="line"/>
      <point x="215" y="348" type="line"/>
      <point x="107" y="348" type="line"/>
      <point x="89" y="262" type="line"/>
      <point x="243" y="262" type="line"/>
      <point x="228" y="192" type="line"/>
      <point x="74" y="192" type="line"/>
      <point x="56" y="106" type="line"/>
    </contour>
  </outline>
</glyph>
<glyph name="brokenbar" format="2">
  <advance width="262"/>
  <unicode hex="00A6"/>
  <note>
brokenbar
</note>
  <outline>
    <contour>
      <point x="206" y="360" type="line"/>
      <point x="285" y="730" type="line"/>
      <point x="182" y="730" type="line"/>
      <point x="103" y="360" type="line"/>
    </contour>
    <contour>
      <point x="57" y="140" type="line"/>
      <point x="-22" y="-230" type="line"/>
      <point x="81" y="-230" type="line"/>
      <point x="160" y="140" type="line"/>
    </contour>
  </outline>
</glyph>
<glyph name="section" format="2">
  <advance width="497"/>
  <unicode hex="00A7"/>
  <note>
section
</note>
  <outline>
    <contour>
      <point x="478" y="613" type="curve"/>
      <point x="501" y="699" type="line"/>
      <point x="501" y="699"/>
      <point x="421" y="720"/>
      <point x="349" y="720" type="curve" smooth="yes"/>
      <point x="202" y="720"/>
      <point x="118" y="640"/>
      <point x="118" y="519" type="curve" smooth="yes"/>
      <point x="118" y="486"/>
      <point x="132" y="456"/>
      <point x="148" y="440" type="curve"/>
      <point x="104" y="402"/>
      <point x="56" y="340"/>
      <point x="56" y="277" type="curve" smooth="yes"/>
      <point x="56" y="203"/>
      <point x="97" y="172"/>
      <point x="182" y="152" type="curve" smooth="yes"/>
      <point x="268" y="130"/>
      <point x="304" y="121"/>
      <point x="304" y="81" type="curve" smooth="yes"/>
      <point x="304" y="23"/>
      <point x="256" y="-13"/>
      <point x="180" y="-13" type="curve" smooth="yes"/>
      <point x="125" y="-13"/>
      <point x="23" y="2"/>
      <point x="23" y="2" type="curve"/>
      <point x="-5" y="-84" type="line"/>
      <point x="-5" y="-84"/>
      <point x="99" y="-104"/>
      <point x="173" y="-104" type="curve" smooth="yes"/>
      <point x="349" y="-104"/>
      <point x="412" y="2"/>
      <point x="412" y="107" type="curve" smooth="yes"/>
      <point x="412" y="139"/>
      <point x="400" y="164"/>
      <point x="382" y="178" type="curve"/>
      <point x="436" y="232"/>
      <point x="467" y="287"/>
      <point x="467" y="347" type="curve" smooth="yes"/>
      <point x="467" y="409"/>
      <point x="426" y="441"/>
      <point x="342" y="465" type="curve" smooth="yes"/>
      <point x="261" y="487"/>
      <point x="225" y="495"/>
      <point x="225" y="540" type="curve" smooth="yes"/>
      <point x="225" y="600"/>
      <point x="270" y="629"/>
      <point x="339" y="629" type="curve" smooth="yes"/>
      <point x="390" y="629"/>
      <point x="478" y="613"/>
    </contour>
    <contour>
      <point x="159" y="304" type="curve" smooth="yes"/>
      <point x="159" y="341"/>
      <point x="179" y="370"/>
      <point x="205" y="400" type="curve"/>
      <point x="225" y="392"/>
      <point x="253" y="385"/>
      <point x="279" y="378" type="curve" smooth="yes"/>
      <point x="339" y="363"/>
      <point x="359" y="347"/>
      <point x="359" y="311" type="curve" smooth="yes"/>
      <point x="359" y="275"/>
      <point x="335" y="237"/>
      <point x="318" y="217" type="curve"/>
      <point x="297" y="226"/>
      <point x="266" y="237"/>
      <point x="231" y="246" type="curve" smooth="yes"/>
      <point x="182" y="257"/>
      <point x="159" y="272"/>
    </contour>
  </outline>
</glyph>
<glyph name="dieresis" format="2">
  <advance width="407"/>
  <unicode hex="00A8"/>
  <note>
dieresis
</note>
  <outline>
    <contour>
      <point x="175" y="606" type="line"/>
      <point x="198" y="715" type="line"/>
      <point x="98" y="715" type="line"/>
      <point x="76" y="606" type="line"/>
    </contour>
    <contour>
      <point x="302" y="715" type="line"/>
      <point x="280" y="606" type="line"/>
      <point x="379" y="606" type="line"/>
      <point x="402" y="715" type="line"/>
    </contour>
  </outline>
</glyph>
<glyph name="copyright" format="2">
  <advance width="644"/>
  <unicode hex="00A9"/>
  <note>
copyright
</note>
  <outline>
    <contour>
      <point x="412" y="740" type="curve" smooth="yes"/>
      <point x="220" y="740"/>
      <point x="90" y="581"/>
      <point x="90" y="409" type="curve" smooth="yes"/>
      <point x="90" y="278"/>
      <point x="182" y="183"/>
      <point x="323" y="183" type="curve" smooth="yes"/>
      <point x="513" y="183"/>
      <point x="644" y="342"/>
      <point x="644" y="515" type="curve" smooth="yes"/>
      <point x="644" y="645"/>
      <point x="554" y="740"/>
    </contour>
    <contour>
      <point x="146" y="416" type="curve" smooth="yes"/>
      <point x="146" y="554"/>
      <point x="250" y="688"/>
      <point x="407" y="688" type="curve" smooth="yes"/>
      <point x="522" y="688"/>
      <point x="588" y="618"/>
      <point x="588" y="509" type="curve" smooth="yes"/>
      <point x="588" y="366"/>
      <point x="483" y="235"/>
      <point x="327" y="235" type="curve" smooth="yes"/>
      <point x="207" y="235"/>
      <point x="146" y="310"/>
    </contour>
    <contour>
      <point x="241" y="410" type="curve" smooth="yes"/>
      <point x="241" y="347"/>
      <point x="272" y="309"/>
      <point x="339" y="309" type="curve" smooth="yes"/>
      <point x="387" y="309"/>
      <point x="423" y="324"/>
      <point x="423" y="324" type="curve"/>
      <point x="432" y="391" type="line"/>
      <point x="432" y="391"/>
      <point x="392" y="385"/>
      <point x="362" y="385" type="curve" smooth="yes"/>
      <point x="336" y="385"/>
      <point x="326" y="398"/>
      <point x="326" y="427" type="curve" smooth="yes"/>
      <point x="326" y="469"/>
      <point x="344" y="541"/>
      <point x="395" y="541" type="curve" smooth="yes"/>
      <point x="427" y="541"/>
      <point x="462" y="535"/>
      <point x="462" y="535" type="curve"/>
      <point x="483" y="604" type="line"/>
      <point x="483" y="604"/>
      <point x="452" y="616"/>
      <point x="407" y="616" type="curve" smooth="yes"/>
      <point x="287" y="616"/>
      <point x="241" y="503"/>
    </contour>
  </outline>
</glyph>
<glyph name="ordfeminine" format="2">
  <advance width="415"/>
  <unicode hex="00AA"/>
  <note>
ordfeminine
</note>
  <outline>
    <contour>
      <point x="380" y="479" type="curve"/>
      <point x="408" y="607" type="line" smooth="yes"/>
      <point x="423" y="672"/>
      <point x="389" y="720"/>
      <point x="290" y="720" type="curve" smooth="yes"/>
      <point x="230" y="720"/>
      <point x="166" y="699"/>
      <point x="166" y="699" type="curve"/>
      <point x="156" y="635" type="line"/>
      <point x="156" y="635"/>
      <point x="229" y="645"/>
      <point x="275" y="645" type="curve" smooth="yes"/>
      <point x="312" y="645"/>
      <point x="324" y="638"/>
      <point x="320" y="612" type="curve" smooth="yes"/>
      <point x="316" y="593" type="line"/>
      <point x="227" y="592" type="line" smooth="yes"/>
      <point x="152" y="591"/>
      <point x="111" y="560"/>
      <point x="111" y="493" type="curve" smooth="yes"/>
      <point x="111" y="436"/>
      <point x="148" y="398"/>
      <point x="204" y="398" type="curve" smooth="yes"/>
      <point x="248" y="398"/>
      <point x="291" y="426"/>
      <point x="291" y="426" type="curve"/>
      <point x="308" y="403"/>
      <point x="329" y="396"/>
      <point x="386" y="397" type="curve"/>
      <point x="399" y="461" type="line"/>
      <point x="387" y="464"/>
      <point x="381" y="469"/>
    </contour>
    <contour>
      <point x="88" y="343" type="line"/>
      <point x="71" y="269" type="line"/>
      <point x="357" y="269" type="line"/>
      <point x="373" y="343" type="line"/>
    </contour>
    <contour>
      <point x="199" y="497" type="curve" smooth="yes"/>
      <point x="199" y="522"/>
      <point x="213" y="536"/>
      <point x="245" y="536" type="curve" smooth="yes"/>
      <point x="304" y="536" type="line"/>
      <point x="292" y="484" type="line"/>
      <point x="292" y="484"/>
      <point x="258" y="467"/>
      <point x="231" y="467" type="curve" smooth="yes"/>
      <point x="208" y="467"/>
      <point x="199" y="480"/>
    </contour>
  </outline>
</glyph>
<glyph name="guillemotleft" format="2">
  <advance width="566"/>
  <unicode hex="00AB"/>
  <note>
guillemotleft
</note>
  <outline>
    <contour>
      <point x="229" y="59" type="line"/>
      <point x="291" y="122" type="line"/>
      <point x="134" y="270" type="line"/>
      <point x="348" y="431" type="line"/>
      <point x="299" y="503" type="line"/>
      <point x="59" y="322" type="line"/>
      <point x="42" y="240" type="line"/>
    </contour>
    <contour>
      <point x="275" y="322" type="line"/>
      <point x="258" y="242" type="line"/>
      <point x="442" y="64" type="line"/>
      <point x="503" y="126" type="line"/>
      <point x="349" y="271" type="line"/>
      <point x="558" y="428" type="line"/>
      <point x="511" y="499" type="line"/>
    </contour>
  </outline>
</glyph>
<glyph name="logicalnot" format="2">
  <advance width="560"/>
  <unicode hex="00AC"/>
  <note>
logicalnot
</note>
  <outline>
    <contour>
      <point x="373" y="134" type="line"/>
      <point x="467" y="134" type="line"/>
      <point x="518" y="372" type="line"/>
      <point x="86" y="372" type="line"/>
      <point x="67" y="281" type="line"/>
      <point x="404" y="281" type="line"/>
    </contour>
  </outline>
</glyph>
<glyph name="uni00AD" format="2">
  <advance width="0"/>
  <unicode hex="00AD"/>
  <note>
uni00AD
</note>
  <outline>
    <contour>
      <point x="154" y="234" type="line"/>
      <point x="174" y="328" type="line"/>
      <point x="-141" y="328" type="line"/>
      <point x="-161" y="234" type="line"/>
    </contour>
  </outline>
</glyph>
<glyph name="registered" format="2">
  <advance width="644"/>
  <unicode hex="00AE"/>
  <note>
registered
</note>
  <outline>
    <contour>
      <point x="412" y="740" type="curve" smooth="yes"/>
      <point x="220" y="740"/>
      <point x="90" y="581"/>
      <point x="90" y="409" type="curve" smooth="yes"/>
      <point x="90" y="278"/>
      <point x="182" y="183"/>
      <point x="323" y="183" type="curve" smooth="yes"/>
      <point x="513" y="183"/>
      <point x="644" y="342"/>
      <point x="644" y="515" type="curve" smooth="yes"/>
      <point x="644" y="645"/>
      <point x="554" y="740"/>
    </contour>
    <contour>
      <point x="146" y="416" type="curve" smooth="yes"/>
      <point x="146" y="554"/>
      <point x="250" y="688"/>
      <point x="407" y="688" type="curve" smooth="yes"/>
      <point x="522" y="688"/>
      <point x="588" y="618"/>
      <point x="588" y="509" type="curve" smooth="yes"/>
      <point x="588" y="366"/>
      <point x="483" y="235"/>
      <point x="327" y="235" type="curve" smooth="yes"/>
      <point x="207" y="235"/>
      <point x="146" y="310"/>
    </contour>
    <contour>
      <point x="289" y="610" type="line"/>
      <point x="227" y="316" type="line"/>
      <point x="304" y="316" type="line"/>
      <point x="323" y="410" type="line"/>
      <point x="364" y="410" type="line"/>
      <point x="389" y="316" type="line"/>
      <point x="466" y="316" type="line"/>
      <point x="436" y="422" type="line"/>
      <point x="479" y="445"/>
      <point x="505" y="479"/>
      <point x="505" y="531" type="curve" smooth="yes"/>
      <point x="505" y="585"/>
      <point x="467" y="610"/>
      <point x="409" y="610" type="curve" smooth="yes"/>
    </contour>
    <contour>
      <point x="375" y="466" type="curve" smooth="yes"/>
      <point x="334" y="466" type="line"/>
      <point x="352" y="551" type="line"/>
      <point x="391" y="551" type="line" smooth="yes"/>
      <point x="412" y="551"/>
      <point x="426" y="544"/>
      <point x="426" y="523" type="curve" smooth="yes"/>
      <point x="426" y="496"/>
      <point x="412" y="466"/>
    </contour>
  </outline>
</glyph>
<glyph name="macron" format="2">
  <advance width="381"/>
  <unicode hex="00AF"/>
  <note>
macron
</note>
  <outline>
    <contour>
      <point x="356" y="606" type="line"/>
      <point x="373" y="685" type="line"/>
      <point x="92" y="685" type="line"/>
      <point x="76" y="606" type="line"/>
    </contour>
  </outline>
</glyph>
<glyph name="degree" format="2">
  <advance width="403"/>
  <unicode hex="00B0"/>
  <note>
degree
</note>
  <outline>
    <contour>
      <point x="291" y="720" type="curve" smooth="yes"/>
      <point x="185" y="720"/>
      <point x="109" y="635"/>
      <point x="109" y="542" type="curve" smooth="yes"/>
      <point x="109" y="465"/>
      <point x="162" y="415"/>
      <point x="243" y="415" type="curve" smooth="yes"/>
      <point x="350" y="415"/>
      <point x="425" y="499"/>
      <point x="425" y="592" type="curve" smooth="yes"/>
      <point x="425" y="669"/>
      <point x="372" y="720"/>
    </contour>
    <contour>
      <point x="187" y="547" type="curve" smooth="yes"/>
      <point x="187" y="599"/>
      <point x="228" y="647"/>
      <point x="284" y="647" type="curve" smooth="yes"/>
      <point x="324" y="647"/>
      <point x="347" y="623"/>
      <point x="347" y="588" type="curve" smooth="yes"/>
      <point x="347" y="535"/>
      <point x="307" y="487"/>
      <point x="250" y="487" type="curve" smooth="yes"/>
      <point x="210" y="487"/>
      <point x="187" y="511"/>
    </contour>
  </outline>
</glyph>
<glyph name="plusminus" format="2">
  <advance width="560"/>
  <unicode hex="00B1"/>
  <note>
plusminus
</note>
  <outline>
    <contour>
      <point x="292" y="531" type="line"/>
      <point x="265" y="405" type="line"/>
      <point x="85" y="405" type="line"/>
      <point x="66" y="314" type="line"/>
      <point x="246" y="314" type="line"/>
      <point x="219" y="189" type="line"/>
      <point x="314" y="189" type="line"/>
      <point x="340" y="314" type="line"/>
      <point x="520" y="314" type="line"/>
      <point x="540" y="405" type="line"/>
      <point x="359" y="405" type="line"/>
      <point x="386" y="531" type="line"/>
    </contour>
    <contour>
      <point x="24" y="122" type="line"/>
      <point x="6" y="31" type="line"/>
      <point x="460" y="31" type="line"/>
      <point x="479" y="122" type="line"/>
    </contour>
  </outline>
</glyph>
<glyph name="uni00B2" format="2">
  <advance width="273"/>
  <unicode hex="00B2"/>
  <note>
uni00B2
</note>
  <outline>
    <contour>
      <point x="180" y="570" type="curve" smooth="yes"/>
      <point x="76" y="485" type="line"/>
      <point x="62" y="416" type="line"/>
      <point x="282" y="416" type="line"/>
      <point x="297" y="489" type="line"/>
      <point x="183" y="489" type="line"/>
      <point x="243" y="540" type="line" smooth="yes"/>
      <point x="303" y="593"/>
      <point x="332" y="613"/>
      <point x="332" y="667" type="curve" smooth="yes"/>
      <point x="332" y="714"/>
      <point x="305" y="743"/>
      <point x="243" y="743" type="curve" smooth="yes"/>
      <point x="198" y="743"/>
      <point x="131" y="733"/>
      <point x="131" y="733" type="curve"/>
      <point x="118" y="658" type="line"/>
      <point x="118" y="658"/>
      <point x="176" y="666"/>
      <point x="201" y="666" type="curve" smooth="yes"/>
      <point x="231" y="666"/>
      <point x="238" y="655"/>
      <point x="238" y="639" type="curve" smooth="yes"/>
      <point x="238" y="613"/>
      <point x="210" y="595"/>
    </contour>
  </outline>
</glyph>
<glyph name="uni00B3" format="2">
  <advance width="283"/>
  <unicode hex="00B3"/>
  <note>
uni00B3
</note>
  <outline>
    <contour>
      <point x="129" y="734" type="curve"/>
      <point x="119" y="662" type="line"/>
      <point x="119" y="662"/>
      <point x="169" y="669"/>
      <point x="209" y="669" type="curve" smooth="yes"/>
      <point x="230" y="669"/>
      <point x="241" y="663"/>
      <point x="241" y="646" type="curve" smooth="yes"/>
      <point x="241" y="622"/>
      <point x="222" y="610"/>
      <point x="205" y="610" type="curve" smooth="yes"/>
      <point x="139" y="610" type="line"/>
      <point x="125" y="548" type="line"/>
      <point x="192" y="548" type="line" smooth="yes"/>
      <point x="215" y="548"/>
      <point x="222" y="540"/>
      <point x="222" y="518" type="curve" smooth="yes"/>
      <point x="222" y="492"/>
      <point x="207" y="478"/>
      <point x="174" y="478" type="curve" smooth="yes"/>
      <point x="136" y="478"/>
      <point x="79" y="486"/>
      <point x="79" y="486" type="curve"/>
      <point x="59" y="413" type="line"/>
      <point x="59" y="413"/>
      <point x="127" y="404"/>
      <point x="172" y="404" type="curve" smooth="yes"/>
      <point x="266" y="404"/>
      <point x="312" y="452"/>
      <point x="312" y="519" type="curve" smooth="yes"/>
      <point x="312" y="556"/>
      <point x="298" y="575"/>
      <point x="268" y="585" type="curve"/>
      <point x="311" y="601"/>
      <point x="331" y="631"/>
      <point x="331" y="670" type="curve" smooth="yes"/>
      <point x="331" y="717"/>
      <point x="303" y="743"/>
      <point x="236" y="743" type="curve" smooth="yes"/>
      <point x="193" y="743"/>
      <point x="129" y="734"/>
    </contour>
  </outline>
</glyph>
<glyph name="acute" format="2">
  <advance width="373"/>
  <unicode hex="00B4"/>
  <note>
acute
</note>
  <outline>
    <contour>
      <point x="371" y="658" type="line"/>
      <point x="346" y="746" type="line"/>
      <point x="83" y="646" type="line"/>
      <point x="105" y="578" type="line"/>
    </contour>
  </outline>
</glyph>
<glyph name="uni00B5" format="2">
  <advance width="529"/>
  <unicode hex="00B5"/>
  <note>
uni00B5
</note>
  <outline>
    <contour>
      <point x="310" y="0" type="line"/>
      <point x="402" y="0" type="line"/>
      <point x="509" y="505" type="line"/>
      <point x="406" y="505" type="line"/>
      <point x="336" y="165" type="line"/>
      <point x="336" y="165"/>
      <point x="274" y="79"/>
      <point x="213" y="79" type="curve" smooth="yes"/>
      <point x="162" y="79"/>
      <point x="149" y="116"/>
      <point x="163" y="186" type="curve" smooth="yes"/>
      <point x="227" y="505" type="line"/>
      <point x="126" y="505" type="line"/>
      <point x="-27" y="-230" type="line"/>
      <point x="73" y="-230" type="line"/>
      <point x="122" y="18" type="line"/>
      <point x="138" y="0"/>
      <point x="161" y="-9"/>
      <point x="192" y="-9" type="curve" smooth="yes"/>
      <point x="266" y="-9"/>
      <point x="322" y="69"/>
      <point x="322" y="69" type="curve"/>
    </contour>
  </outline>
</glyph>
<glyph name="paragraph" format="2">
  <advance width="600"/>
  <unicode hex="00B6"/>
  <note>
paragraph
</note>
  <outline>
    <contour>
      <point x="270" y="0" type="line"/>
      <point x="399" y="618" type="line"/>
      <point x="482" y="618" type="line"/>
      <point x="352" y="0" type="line"/>
      <point x="446" y="0" type="line"/>
      <point x="576" y="618" type="line"/>
      <point x="640" y="618" type="line"/>
      <point x="659" y="705" type="line"/>
      <point x="319" y="705" type="line" smooth="yes"/>
      <point x="161" y="705"/>
      <point x="78" y="608"/>
      <point x="78" y="493" type="curve" smooth="yes"/>
      <point x="78" y="393"/>
      <point x="141" y="324"/>
      <point x="236" y="324" type="curve" smooth="yes"/>
      <point x="243" y="324" type="line"/>
      <point x="176" y="0" type="line"/>
    </contour>
  </outline>
</glyph>
<glyph name="periodcentered" format="2">
  <advance width="235"/>
  <unicode hex="00B7"/>
  <note>
periodcentered
</note>
  <outline>
    <contour>
      <point x="165" y="211" type="line"/>
      <point x="195" y="350" type="line"/>
      <point x="83" y="350" type="line"/>
      <point x="53" y="211" type="line"/>
    </contour>
  </outline>
</glyph>
<glyph name="cedilla" format="2">
  <advance width="298"/>
  <unicode hex="00B8"/>
  <note>
cedilla
</note>
  <outline>
    <contour>
      <point x="121" y="-121" type="curve" smooth="yes"/>
      <point x="121" y="-75"/>
      <point x="91" y="-49"/>
      <point x="33" y="-48" type="curve"/>
      <point x="51" y="1" type="line"/>
      <point x="2" y="1" type="line"/>
      <point x="-40" y="-99" type="line"/>
      <point x="-5" y="-99" type="line" smooth="yes"/>
      <point x="18" y="-99"/>
      <point x="31" y="-106"/>
      <point x="31" y="-125" type="curve" smooth="yes"/>
      <point x="31" y="-152"/>
      <point x="12" y="-160"/>
      <point x="-18" y="-160" type="curve" smooth="yes"/>
      <point x="-40" y="-160"/>
      <point x="-77" y="-158"/>
      <point x="-81" y="-158" type="curve"/>
      <point x="-98" y="-219" type="line"/>
      <point x="-94" y="-219"/>
      <point x="-48" y="-228"/>
      <point x="-4" y="-228" type="curve" smooth="yes"/>
      <point x="81" y="-228"/>
      <point x="121" y="-185"/>
    </contour>
  </outline>
</glyph>
<glyph name="uni00B9" format="2">
  <advance width="225"/>
  <unicode hex="00B9"/>
  <note>
uni00B9
</note>
  <outline>
    <contour>
      <point x="221" y="416" type="line"/>
      <point x="287" y="734" type="line"/>
      <point x="210" y="734" type="line"/>
      <point x="92" y="663" type="line"/>
      <point x="114" y="605" type="line"/>
      <point x="185" y="647" type="line"/>
      <point x="137" y="416" type="line"/>
    </contour>
  </outline>
</glyph>
<glyph name="ordmasculine" format="2">
  <advance width="426"/>
  <unicode hex="00BA"/>
  <note>
ordmasculine
</note>
  <outline>
    <contour>
      <point x="304" y="720" type="curve" smooth="yes"/>
      <point x="158" y="720"/>
      <point x="118" y="602"/>
      <point x="118" y="520" type="curve" smooth="yes"/>
      <point x="118" y="442"/>
      <point x="166" y="397"/>
      <point x="251" y="397" type="curve" smooth="yes"/>
      <point x="398" y="397"/>
      <point x="437" y="519"/>
      <point x="437" y="601" type="curve" smooth="yes"/>
      <point x="437" y="678"/>
      <point x="389" y="720"/>
    </contour>
    <contour>
      <point x="91" y="343" type="line"/>
      <point x="75" y="269" type="line"/>
      <point x="361" y="269" type="line"/>
      <point x="376" y="343" type="line"/>
    </contour>
    <contour>
      <point x="214" y="522" type="curve" smooth="yes"/>
      <point x="214" y="566"/>
      <point x="234" y="639"/>
      <point x="295" y="639" type="curve" smooth="yes"/>
      <point x="328" y="639"/>
      <point x="341" y="626"/>
      <point x="341" y="598" type="curve" smooth="yes"/>
      <point x="341" y="559"/>
      <point x="329" y="478"/>
      <point x="261" y="478" type="curve" smooth="yes"/>
      <point x="227" y="478"/>
      <point x="214" y="493"/>
    </contour>
  </outline>
</glyph>
<glyph name="guillemotright" format="2">
  <advance width="566"/>
  <unicode hex="00BB"/>
  <note>
guillemotright
</note>
  <outline>
    <contour>
      <point x="350" y="503" type="line"/>
      <point x="288" y="440" type="line"/>
      <point x="445" y="292" type="line"/>
      <point x="231" y="131" type="line"/>
      <point x="280" y="59" type="line"/>
      <point x="520" y="240" type="line"/>
      <point x="537" y="322" type="line"/>
    </contour>
    <contour>
      <point x="230" y="291" type="line"/>
      <point x="21" y="134" type="line"/>
      <point x="68" y="63" type="line"/>
      <point x="304" y="240" type="line"/>
      <point x="321" y="320" type="line"/>
      <point x="137" y="498" type="line"/>
      <point x="76" y="436" type="line"/>
    </contour>
  </outline>
</glyph>
<glyph name="onequarter" format="2">
  <advance width="613"/>
  <unicode hex="00BC"/>
  <note>
onequarter
</note>
  <outline>
    <contour>
      <point x="41" y="-12" type="line"/>
      <point x="619" y="669" type="line"/>
      <point x="573" y="710" type="line"/>
      <point x="-2" y="29" type="line"/>
    </contour>
    <contour>
      <point x="226" y="704" type="line"/>
      <point x="108" y="633" type="line"/>
      <point x="130" y="575" type="line"/>
      <point x="200" y="617" type="line"/>
      <point x="152" y="386" type="line"/>
      <point x="236" y="386" type="line"/>
      <point x="303" y="704" type="line"/>
    </contour>
    <contour>
      <point x="315" y="120" type="line"/>
      <point x="300" y="50" type="line"/>
      <point x="438" y="50" type="line"/>
      <point x="428" y="0" type="line"/>
      <point x="506" y="0" type="line"/>
      <point x="516" y="50" type="line"/>
      <point x="542" y="50" type="line"/>
      <point x="557" y="123" type="line"/>
      <point x="531" y="123" type="line"/>
      <point x="549" y="213" type="line"/>
      <point x="482" y="213" type="line"/>
      <point x="454" y="123" type="line"/>
      <point x="393" y="123" type="line"/>
      <point x="510" y="318" type="line"/>
      <point x="415" y="318" type="line"/>
    </contour>
  </outline>
</glyph>
<glyph name="onehalf" format="2">
  <advance width="610"/>
  <unicode hex="00BD"/>
  <note>
onehalf
</note>
  <outline>
    <contour>
      <point x="41" y="-12" type="line"/>
      <point x="619" y="669" type="line"/>
      <point x="573" y="710" type="line"/>
      <point x="-2" y="29" type="line"/>
    </contour>
    <contour>
      <point x="226" y="704" type="line"/>
      <point x="108" y="633" type="line"/>
      <point x="130" y="575" type="line"/>
      <point x="200" y="617" type="line"/>
      <point x="152" y="386" type="line"/>
      <point x="236" y="386" type="line"/>
      <point x="303" y="704" type="line"/>
    </contour>
    <contour>
      <point x="310" y="69" type="line"/>
      <point x="296" y="0" type="line"/>
      <point x="516" y="0" type="line"/>
      <point x="531" y="73" type="line"/>
      <point x="416" y="73" type="line"/>
      <point x="477" y="124" type="line" smooth="yes"/>
      <point x="536" y="177"/>
      <point x="565" y="197"/>
      <point x="565" y="251" type="curve" smooth="yes"/>
      <point x="565" y="298"/>
      <point x="539" y="327"/>
      <point x="477" y="327" type="curve" smooth="yes"/>
      <point x="432" y="327"/>
      <point x="364" y="317"/>
      <point x="364" y="317" type="curve"/>
      <point x="352" y="242" type="line"/>
      <point x="352" y="242"/>
      <point x="410" y="250"/>
      <point x="435" y="250" type="curve" smooth="yes"/>
      <point x="465" y="250"/>
      <point x="472" y="239"/>
      <point x="472" y="223" type="curve" smooth="yes"/>
      <point x="472" y="197"/>
      <point x="444" y="179"/>
      <point x="414" y="154" type="curve" smooth="yes"/>
    </contour>
  </outline>
</glyph>
<glyph name="threequarters" format="2">
  <advance width="655"/>
  <unicode hex="00BE"/>
  <note>
threequarters
</note>
  <outline>
    <contour>
      <point x="138" y="704" type="curve"/>
      <point x="128" y="632" type="line"/>
      <point x="128" y="632"/>
      <point x="178" y="639"/>
      <point x="218" y="639" type="curve" smooth="yes"/>
      <point x="239" y="639"/>
      <point x="250" y="633"/>
      <point x="250" y="616" type="curve" smooth="yes"/>
      <point x="250" y="592"/>
      <point x="231" y="580"/>
      <point x="214" y="580" type="curve" smooth="yes"/>
      <point x="148" y="580" type="line"/>
      <point x="134" y="518" type="line"/>
      <point x="201" y="518" type="line" smooth="yes"/>
      <point x="224" y="518"/>
      <point x="232" y="510"/>
      <point x="232" y="488" type="curve" smooth="yes"/>
      <point x="232" y="462"/>
      <point x="216" y="448"/>
      <point x="184" y="448" type="curve" smooth="yes"/>
      <point x="145" y="448"/>
      <point x="88" y="456"/>
      <point x="88" y="456" type="curve"/>
      <point x="68" y="383" type="line"/>
      <point x="68" y="383"/>
      <point x="136" y="374"/>
      <point x="181" y="374" type="curve" smooth="yes"/>
      <point x="275" y="374"/>
      <point x="321" y="422"/>
      <point x="321" y="489" type="curve" smooth="yes"/>
      <point x="321" y="526"/>
      <point x="307" y="545"/>
      <point x="278" y="555" type="curve"/>
      <point x="320" y="571"/>
      <point x="340" y="601"/>
      <point x="340" y="640" type="curve" smooth="yes"/>
      <point x="340" y="687"/>
      <point x="312" y="713"/>
      <point x="245" y="713" type="curve" smooth="yes"/>
      <point x="202" y="713"/>
      <point x="138" y="704"/>
    </contour>
    <contour>
      <point x="617" y="710" type="line"/>
      <point x="42" y="29" type="line"/>
      <point x="85" y="-12" type="line"/>
      <point x="662" y="669" type="line"/>
    </contour>
    <contour>
      <point x="358" y="120" type="line"/>
      <point x="344" y="50" type="line"/>
      <point x="482" y="50" type="line"/>
      <point x="471" y="0" type="line"/>
      <point x="549" y="0" type="line"/>
      <point x="560" y="50" type="line"/>
      <point x="585" y="50" type="line"/>
      <point x="601" y="123" type="line"/>
      <point x="575" y="123" type="line"/>
      <point x="593" y="213" type="line"/>
      <point x="526" y="213" type="line"/>
      <point x="498" y="123" type="line"/>
      <point x="437" y="123" type="line"/>
      <point x="553" y="318" type="line"/>
      <point x="459" y="318" type="line"/>
    </contour>
  </outline>
</glyph>
<glyph name="questiondown" format="2">
  <advance width="418"/>
  <unicode hex="00BF"/>
  <note>
questiondown
</note>
  <outline>
    <contour>
      <point x="231" y="505" type="line"/>
      <point x="203" y="374" type="line"/>
      <point x="315" y="374" type="line"/>
      <point x="343" y="505" type="line"/>
    </contour>
    <contour>
      <point x="-38" y="-72" type="curve" smooth="yes"/>
      <point x="-38" y="-164"/>
      <point x="29" y="-207"/>
      <point x="129" y="-207" type="curve" smooth="yes"/>
      <point x="235" y="-207"/>
      <point x="310" y="-175"/>
      <point x="310" y="-175" type="curve"/>
      <point x="321" y="-95" type="line"/>
      <point x="321" y="-95"/>
      <point x="237" y="-115"/>
      <point x="167" y="-115" type="curve" smooth="yes"/>
      <point x="107" y="-115"/>
      <point x="72" y="-100"/>
      <point x="72" y="-55" type="curve" smooth="yes"/>
      <point x="72" y="2"/>
      <point x="115" y="40"/>
      <point x="188" y="92" type="curve" smooth="yes"/>
      <point x="255" y="139"/>
      <point x="298" y="179"/>
      <point x="298" y="240" type="curve" smooth="yes"/>
      <point x="298" y="265"/>
      <point x="292" y="283"/>
      <point x="292" y="283" type="curve"/>
      <point x="206" y="283" type="line"/>
      <point x="200" y="250" type="line" smooth="yes"/>
      <point x="192" y="213"/>
      <point x="168" y="186"/>
      <point x="92" y="135" type="curve" smooth="yes"/>
      <point x="5" y="76"/>
      <point x="-38" y="18"/>
    </contour>
  </outline>
</glyph>
<glyph name="Agrave" format="2">
  <advance width="602"/>
  <unicode hex="00C0"/>
  <note>
Agrave
</note>
  <outline>
    <contour>
      <point x="292" y="847" type="line"/>
      <point x="531" y="767" type="line"/>
      <point x="561" y="836" type="line"/>
      <point x="331" y="935" type="line"/>
    </contour>
    <contour>
      <point x="311" y="705" type="line"/>
      <point x="-39" y="0" type="line"/>
      <point x="68" y="0" type="line"/>
      <point x="151" y="173" type="line"/>
      <point x="412" y="173" type="line"/>
      <point x="417" y="0" type="line"/>
      <point x="520" y="0" type="line"/>
      <point x="499" y="705" type="line"/>
    </contour>
    <contour>
      <point x="410" y="266" type="line"/>
      <point x="196" y="266" type="line"/>
      <point x="368" y="612" type="line"/>
      <point x="398" y="612" type="line"/>
    </contour>
  </outline>
</glyph>
<glyph name="Aacute" format="2">
  <advance width="602"/>
  <unicode hex="00C1"/>
  <note>
Aacute
</note>
  <outline>
    <contour>
      <point x="560" y="847" type="line"/>
      <point x="520" y="935" type="line"/>
      <point x="301" y="836" type="line"/>
      <point x="330" y="767" type="line"/>
    </contour>
    <contour>
      <point x="311" y="705" type="line"/>
      <point x="-39" y="0" type="line"/>
      <point x="68" y="0" type="line"/>
      <point x="151" y="173" type="line"/>
      <point x="412" y="173" type="line"/>
      <point x="417" y="0" type="line"/>
      <point x="520" y="0" type="line"/>
      <point x="499" y="705" type="line"/>
    </contour>
    <contour>
      <point x="410" y="266" type="line"/>
      <point x="196" y="266" type="line"/>
      <point x="368" y="612" type="line"/>
      <point x="398" y="612" type="line"/>
    </contour>
  </outline>
</glyph>
<glyph name="Acircumflex" format="2">
  <advance width="602"/>
  <unicode hex="00C2"/>
  <note>
Acircumflex
</note>
  <outline>
    <contour>
      <point x="242" y="773" type="line"/>
      <point x="347" y="773" type="line"/>
      <point x="439" y="865" type="line"/>
      <point x="491" y="773" type="line"/>
      <point x="580" y="773" type="line"/>
      <point x="492" y="930" type="line"/>
      <point x="398" y="930" type="line"/>
    </contour>
    <contour>
      <point x="311" y="705" type="line"/>
      <point x="-39" y="0" type="line"/>
      <point x="68" y="0" type="line"/>
      <point x="151" y="173" type="line"/>
      <point x="412" y="173" type="line"/>
      <point x="417" y="0" type="line"/>
      <point x="520" y="0" type="line"/>
      <point x="499" y="705" type="line"/>
    </contour>
    <contour>
      <point x="410" y="266" type="line"/>
      <point x="196" y="266" type="line"/>
      <point x="368" y="612" type="line"/>
      <point x="398" y="612" type="line"/>
    </contour>
  </outline>
</glyph>
<glyph name="Atilde" format="2">
  <advance width="602"/>
  <unicode hex="00C3"/>
  <note>
Atilde
</note>
  <outline>
    <contour>
      <point x="609" y="851" type="curve"/>
      <point x="583" y="904" type="line"/>
      <point x="583" y="904"/>
      <point x="525" y="868"/>
      <point x="502" y="868" type="curve" smooth="yes"/>
      <point x="473" y="868"/>
      <point x="413" y="909"/>
      <point x="372" y="909" type="curve" smooth="yes"/>
      <point x="326" y="909"/>
      <point x="248" y="846"/>
      <point x="248" y="846" type="curve"/>
      <point x="273" y="792" type="line"/>
      <point x="273" y="792"/>
      <point x="330" y="828"/>
      <point x="356" y="828" type="curve" smooth="yes"/>
      <point x="389" y="828"/>
      <point x="445" y="786"/>
      <point x="486" y="786" type="curve" smooth="yes"/>
      <point x="532" y="786"/>
      <point x="603" y="845"/>
    </contour>
    <contour>
      <point x="311" y="705" type="line"/>
      <point x="-39" y="0" type="line"/>
      <point x="68" y="0" type="line"/>
      <point x="151" y="173" type="line"/>
      <point x="412" y="173" type="line"/>
      <point x="417" y="0" type="line"/>
      <point x="520" y="0" type="line"/>
      <point x="499" y="705" type="line"/>
    </contour>
    <contour>
      <point x="410" y="266" type="line"/>
      <point x="196" y="266" type="line"/>
      <point x="368" y="612" type="line"/>
      <point x="398" y="612" type="line"/>
    </contour>
  </outline>
</glyph>
<glyph name="Adieresis" format="2">
  <advance width="602"/>
  <unicode hex="00C4"/>
  <note>
Adieresis
</note>
  <outline>
    <contour>
      <point x="362" y="791" type="line"/>
      <point x="385" y="900" type="line"/>
      <point x="286" y="900" type="line"/>
      <point x="263" y="791" type="line"/>
    </contour>
    <contour>
      <point x="311" y="705" type="line"/>
      <point x="-39" y="0" type="line"/>
      <point x="68" y="0" type="line"/>
      <point x="151" y="173" type="line"/>
      <point x="412" y="173" type="line"/>
      <point x="417" y="0" type="line"/>
      <point x="520" y="0" type="line"/>
      <point x="499" y="705" type="line"/>
    </contour>
    <contour>
      <point x="410" y="266" type="line"/>
      <point x="196" y="266" type="line"/>
      <point x="368" y="612" type="line"/>
      <point x="398" y="612" type="line"/>
    </contour>
    <contour>
      <point x="493" y="900" type="line"/>
      <point x="471" y="791" type="line"/>
      <point x="570" y="791" type="line"/>
      <point x="593" y="900" type="line"/>
    </contour>
  </outline>
</glyph>
<glyph name="Aring" format="2">
  <advance width="602"/>
  <unicode hex="00C5"/>
  <note>
Aring
</note>
  <outline>
    <contour>
      <point x="316" y="839" type="curve" smooth="yes"/>
      <point x="316" y="784"/>
      <point x="355" y="746"/>
      <point x="417" y="746" type="curve" smooth="yes"/>
      <point x="490" y="746"/>
      <point x="543" y="802"/>
      <point x="543" y="869" type="curve" smooth="yes"/>
      <point x="543" y="921"/>
      <point x="502" y="961"/>
      <point x="443" y="961" type="curve" smooth="yes"/>
      <point x="372" y="961"/>
      <point x="316" y="908"/>
    </contour>
    <contour>
      <point x="311" y="705" type="line"/>
      <point x="-39" y="0" type="line"/>
      <point x="68" y="0" type="line"/>
      <point x="151" y="173" type="line"/>
      <point x="412" y="173" type="line"/>
      <point x="417" y="0" type="line"/>
      <point x="520" y="0" type="line"/>
      <point x="499" y="705" type="line"/>
    </contour>
    <contour>
      <point x="410" y="266" type="line"/>
      <point x="196" y="266" type="line"/>
      <point x="368" y="612" type="line"/>
      <point x="398" y="612" type="line"/>
    </contour>
    <contour>
      <point x="381" y="842" type="curve" smooth="yes"/>
      <point x="381" y="876"/>
      <point x="408" y="901"/>
      <point x="440" y="901" type="curve" smooth="yes"/>
      <point x="463" y="901"/>
      <point x="478" y="887"/>
      <point x="478" y="865" type="curve" smooth="yes"/>
      <point x="478" y="831"/>
      <point x="451" y="805"/>
      <point x="420" y="805" type="curve" smooth="yes"/>
      <point x="396" y="805"/>
      <point x="381" y="820"/>
    </contour>
  </outline>
</glyph>
<glyph name="AE" format="2">
  <advance width="856"/>
  <unicode hex="00C6"/>
  <note>
AE
</note>
  <outline>
    <contour>
      <point x="149" y="168" type="line"/>
      <point x="366" y="168" type="line"/>
      <point x="331" y="0" type="line"/>
      <point x="761" y="0" type="line"/>
      <point x="780" y="93" type="line"/>
      <point x="457" y="93" type="line"/>
      <point x="503" y="311" type="line"/>
      <point x="766" y="311" type="line"/>
      <point x="786" y="402" type="line"/>
      <point x="523" y="402" type="line"/>
      <point x="567" y="612" type="line"/>
      <point x="890" y="612" type="line"/>
      <point x="910" y="705" type="line"/>
      <point x="349" y="705" type="line"/>
      <point x="-54" y="0" type="line"/>
      <point x="52" y="0" type="line"/>
    </contour>
    <contour>
      <point x="386" y="261" type="line"/>
      <point x="200" y="261" type="line"/>
      <point x="400" y="612" type="line"/>
      <point x="460" y="612" type="line"/>
    </contour>
  </outline>
</glyph>
<glyph name="Ccedilla" format="2">
  <advance width="528"/>
  <unicode hex="00C7"/>
  <note>
Ccedilla
</note>
  <outline>
    <contour>
      <point x="336" y="-121" type="curve" smooth="yes"/>
      <point x="336" y="-75"/>
      <point x="306" y="-49"/>
      <point x="247" y="-48" type="curve"/>
      <point x="261" y="-12" type="line"/>
      <point x="271" y="-12" type="line" smooth="yes"/>
      <point x="328" y="-12"/>
      <point x="391" y="-3"/>
      <point x="440" y="6" type="curve"/>
      <point x="455" y="97" type="line"/>
      <point x="411" y="89"/>
      <point x="344" y="83"/>
      <point x="293" y="83" type="curve" smooth="yes"/>
      <point x="199" y="83"/>
      <point x="162" y="106"/>
      <point x="162" y="192" type="curve" smooth="yes"/>
      <point x="162" y="321"/>
      <point x="228" y="623"/>
      <point x="410" y="623" type="curve" smooth="yes"/>
      <point x="449" y="623"/>
      <point x="521" y="612"/>
      <point x="564" y="603" type="curve"/>
      <point x="586" y="690" type="line"/>
      <point x="546" y="701"/>
      <point x="481" y="718"/>
      <point x="415" y="718" type="curve" smooth="yes"/>
      <point x="134" y="718"/>
      <point x="52" y="362"/>
      <point x="52" y="191" type="curve" smooth="yes"/>
      <point x="52" y="63"/>
      <point x="98" y="4"/>
      <point x="213" y="-9" type="curve"/>
      <point x="175" y="-99" type="line"/>
      <point x="210" y="-99" type="line" smooth="yes"/>
      <point x="233" y="-99"/>
      <point x="246" y="-106"/>
      <point x="246" y="-125" type="curve" smooth="yes"/>
      <point x="246" y="-152"/>
      <point x="227" y="-160"/>
      <point x="197" y="-160" type="curve" smooth="yes"/>
      <point x="175" y="-160"/>
      <point x="138" y="-158"/>
      <point x="133" y="-158" type="curve"/>
      <point x="116" y="-219" type="line"/>
      <point x="121" y="-219"/>
      <point x="167" y="-228"/>
      <point x="211" y="-228" type="curve" smooth="yes"/>
      <point x="296" y="-228"/>
      <point x="336" y="-185"/>
    </contour>
  </outline>
</glyph>
<glyph name="Egrave" format="2">
  <advance width="535"/>
  <unicode hex="00C8"/>
  <note>
Egrave
</note>
  <outline>
    <contour>
      <point x="275" y="847" type="line"/>
      <point x="514" y="767" type="line"/>
      <point x="544" y="836" type="line"/>
      <point x="314" y="935" type="line"/>
    </contour>
    <contour>
      <point x="175" y="705" type="line"/>
      <point x="25" y="0" type="line"/>
      <point x="435" y="0" type="line"/>
      <point x="455" y="93" type="line"/>
      <point x="151" y="93" type="line"/>
      <point x="197" y="310" type="line"/>
      <point x="444" y="310" type="line"/>
      <point x="463" y="402" type="line"/>
      <point x="217" y="402" type="line"/>
      <point x="261" y="612" type="line"/>
      <point x="566" y="612" type="line"/>
      <point x="585" y="705" type="line"/>
    </contour>
  </outline>
</glyph>
<glyph name="Ecircumflex" format="2">
  <advance width="535"/>
  <unicode hex="00CA"/>
  <note>
Ecircumflex
</note>
  <outline>
    <contour>
      <point x="225" y="773" type="line"/>
      <point x="330" y="773" type="line"/>
      <point x="422" y="865" type="line"/>
      <point x="474" y="773" type="line"/>
      <point x="563" y="773" type="line"/>
      <point x="474" y="930" type="line"/>
      <point x="381" y="930" type="line"/>
    </contour>
    <contour>
      <point x="175" y="705" type="line"/>
      <point x="25" y="0" type="line"/>
      <point x="435" y="0" type="line"/>
      <point x="455" y="93" type="line"/>
      <point x="151" y="93" type="line"/>
      <point x="197" y="310" type="line"/>
      <point x="444" y="310" type="line"/>
      <point x="463" y="402" type="line"/>
      <point x="217" y="402" type="line"/>
      <point x="261" y="612" type="line"/>
      <point x="566" y="612" type="line"/>
      <point x="585" y="705" type="line"/>
    </contour>
  </outline>
</glyph>
<glyph name="Edieresis" format="2">
  <advance width="535"/>
  <unicode hex="00CB"/>
  <note>
Edieresis
</note>
  <outline>
    <contour>
      <point x="345" y="791" type="line"/>
      <point x="367" y="900" type="line"/>
      <point x="268" y="900" type="line"/>
      <point x="246" y="791" type="line"/>
    </contour>
    <contour>
      <point x="175" y="705" type="line"/>
      <point x="25" y="0" type="line"/>
      <point x="435" y="0" type="line"/>
      <point x="455" y="93" type="line"/>
      <point x="151" y="93" type="line"/>
      <point x="197" y="310" type="line"/>
      <point x="444" y="310" type="line"/>
      <point x="463" y="402" type="line"/>
      <point x="217" y="402" type="line"/>
      <point x="261" y="612" type="line"/>
      <point x="566" y="612" type="line"/>
      <point x="585" y="705" type="line"/>
    </contour>
    <contour>
      <point x="476" y="900" type="line"/>
      <point x="453" y="791" type="line"/>
      <point x="553" y="791" type="line"/>
      <point x="576" y="900" type="line"/>
    </contour>
  </outline>
</glyph>
<glyph name="Iacute" format="2">
  <advance width="264"/>
  <unicode hex="00CD"/>
  <note>
Iacute
</note>
  <outline>
    <contour>
      <point x="389" y="847" type="line"/>
      <point x="349" y="935" type="line"/>
      <point x="130" y="836" type="line"/>
      <point x="160" y="767" type="line"/>
    </contour>
    <contour>
      <point x="176" y="705" type="line"/>
      <point x="25" y="0" type="line"/>
      <point x="132" y="0" type="line"/>
      <point x="282" y="705" type="line"/>
    </contour>
  </outline>
</glyph>
<glyph name="Icircumflex" format="2">
  <advance width="264"/>
  <unicode hex="00CE"/>
  <note>
Icircumflex
</note>
  <outline>
    <contour>
      <point x="71" y="773" type="line"/>
      <point x="176" y="773" type="line"/>
      <point x="268" y="865" type="line"/>
      <point x="320" y="773" type="line"/>
      <point x="409" y="773" type="line"/>
      <point x="321" y="930" type="line"/>
      <point x="227" y="930" type="line"/>
    </contour>
    <contour>
      <point x="176" y="705" type="line"/>
      <point x="25" y="0" type="line"/>
      <point x="132" y="0" type="line"/>
      <point x="282" y="705" type="line"/>
    </contour>
  </outline>
</glyph>
<glyph name="Idieresis" format="2">
  <advance width="264"/>
  <unicode hex="00CF"/>
  <note>
Idieresis
</note>
  <outline>
    <contour>
      <point x="191" y="791" type="line"/>
      <point x="214" y="900" type="line"/>
      <point x="115" y="900" type="line"/>
      <point x="92" y="791" type="line"/>
    </contour>
    <contour>
      <point x="176" y="705" type="line"/>
      <point x="25" y="0" type="line"/>
      <point x="132" y="0" type="line"/>
      <point x="282" y="705" type="line"/>
    </contour>
    <contour>
      <point x="323" y="900" type="line"/>
      <point x="300" y="791" type="line"/>
      <point x="399" y="791" type="line"/>
      <point x="422" y="900" type="line"/>
    </contour>
  </outline>
</glyph>
<glyph name="Ntilde" format="2">
  <advance width="677"/>
  <unicode hex="00D1"/>
  <note>
Ntilde
</note>
  <outline>
    <contour>
      <point x="657" y="851" type="curve"/>
      <point x="631" y="904" type="line"/>
      <point x="631" y="904"/>
      <point x="573" y="868"/>
      <point x="549" y="868" type="curve" smooth="yes"/>
      <point x="520" y="868"/>
      <point x="460" y="909"/>
      <point x="420" y="909" type="curve" smooth="yes"/>
      <point x="374" y="909"/>
      <point x="296" y="846"/>
      <point x="296" y="846" type="curve"/>
      <point x="321" y="792" type="line"/>
      <point x="321" y="792"/>
      <point x="378" y="828"/>
      <point x="404" y="828" type="curve" smooth="yes"/>
      <point x="436" y="828"/>
      <point x="493" y="786"/>
      <point x="534" y="786" type="curve" smooth="yes"/>
      <point x="580" y="786"/>
      <point x="650" y="845"/>
    </contour>
    <contour>
      <point x="176" y="705" type="line"/>
      <point x="25" y="0" type="line"/>
      <point x="130" y="0" type="line"/>
      <point x="259" y="609" type="line"/>
      <point x="289" y="609" type="line"/>
      <point x="350" y="0" type="line"/>
      <point x="544" y="0" type="line"/>
      <point x="694" y="705" type="line"/>
      <point x="590" y="705" type="line"/>
      <point x="460" y="96" type="line"/>
      <point x="431" y="96" type="line"/>
      <point x="372" y="705" type="line"/>
    </contour>
  </outline>
</glyph>
<glyph name="Ocircumflex" format="2">
  <advance width="664"/>
  <unicode hex="00D4"/>
  <note>
Ocircumflex
</note>
  <outline>
    <contour>
      <point x="263" y="773" type="line"/>
      <point x="368" y="773" type="line"/>
      <point x="460" y="865" type="line"/>
      <point x="512" y="773" type="line"/>
      <point x="601" y="773" type="line"/>
      <point x="512" y="930" type="line"/>
      <point x="419" y="930" type="line"/>
    </contour>
    <contour>
      <point x="58" y="219" type="curve" smooth="yes"/>
      <point x="58" y="61"/>
      <point x="149" y="-12"/>
      <point x="289" y="-12" type="curve" smooth="yes"/>
      <point x="564" y="-12"/>
      <point x="648" y="291"/>
      <point x="648" y="483" type="curve" smooth="yes"/>
      <point x="648" y="644"/>
      <point x="553" y="718"/>
      <point x="419" y="718" type="curve" smooth="yes"/>
      <point x="142" y="718"/>
      <point x="58" y="415"/>
    </contour>
    <contour>
      <point x="168" y="215" type="curve" smooth="yes"/>
      <point x="168" y="367"/>
      <point x="229" y="624"/>
      <point x="408" y="624" type="curve" smooth="yes"/>
      <point x="480" y="624"/>
      <point x="539" y="591"/>
      <point x="539" y="482" type="curve" smooth="yes"/>
      <point x="539" y="361"/>
      <point x="483" y="82"/>
      <point x="297" y="82" type="curve" smooth="yes"/>
      <point x="222" y="82"/>
      <point x="168" y="112"/>
    </contour>
  </outline>
</glyph>
<glyph name="Otilde" format="2">
  <advance width="664"/>
  <unicode hex="00D5"/>
  <note>
Otilde
</note>
  <outline>
    <contour>
      <point x="630" y="851" type="curve"/>
      <point x="604" y="904" type="line"/>
      <point x="604" y="904"/>
      <point x="546" y="868"/>
      <point x="522" y="868" type="curve" smooth="yes"/>
      <point x="493" y="868"/>
      <point x="433" y="909"/>
      <point x="393" y="909" type="curve" smooth="yes"/>
      <point x="346" y="909"/>
      <point x="269" y="846"/>
      <point x="269" y="846" type="curve"/>
      <point x="294" y="792" type="line"/>
      <point x="294" y="792"/>
      <point x="351" y="828"/>
      <point x="377" y="828" type="curve" smooth="yes"/>
      <point x="409" y="828"/>
      <point x="466" y="786"/>
      <point x="507" y="786" type="curve" smooth="yes"/>
      <point x="553" y="786"/>
      <point x="623" y="845"/>
    </contour>
    <contour>
      <point x="58" y="219" type="curve" smooth="yes"/>
      <point x="58" y="61"/>
      <point x="149" y="-12"/>
      <point x="289" y="-12" type="curve" smooth="yes"/>
      <point x="564" y="-12"/>
      <point x="648" y="291"/>
      <point x="648" y="483" type="curve" smooth="yes"/>
      <point x="648" y="644"/>
      <point x="553" y="718"/>
      <point x="419" y="718" type="curve" smooth="yes"/>
      <point x="142" y="718"/>
      <point x="58" y="415"/>
    </contour>
    <contour>
      <point x="168" y="215" type="curve" smooth="yes"/>
      <point x="168" y="367"/>
      <point x="229" y="624"/>
      <point x="408" y="624" type="curve" smooth="yes"/>
      <point x="480" y="624"/>
      <point x="539" y="591"/>
      <point x="539" y="482" type="curve" smooth="yes"/>
      <point x="539" y="361"/>
      <point x="483" y="82"/>
      <point x="297" y="82" type="curve" smooth="yes"/>
      <point x="222" y="82"/>
      <point x="168" y="112"/>
    </contour>
  </outline>
</glyph>
<glyph name="Odieresis" format="2">
  <advance width="664"/>
  <unicode hex="00D6"/>
  <note>
Odieresis
</note>
  <outline>
    <contour>
      <point x="383" y="791" type="line"/>
      <point x="405" y="900" type="line"/>
      <point x="306" y="900" type="line"/>
      <point x="283" y="791" type="line"/>
    </contour>
    <contour>
      <point x="58" y="219" type="curve" smooth="yes"/>
      <point x="58" y="61"/>
      <point x="149" y="-12"/>
      <point x="289" y="-12" type="curve" smooth="yes"/>
      <point x="564" y="-12"/>
      <point x="648" y="291"/>
      <point x="648" y="483" type="curve" smooth="yes"/>
      <point x="648" y="644"/>
      <point x="553" y="718"/>
      <point x="419" y="718" type="curve" smooth="yes"/>
      <point x="142" y="718"/>
      <point x="58" y="415"/>
    </contour>
    <contour>
      <point x="168" y="215" type="curve" smooth="yes"/>
      <point x="168" y="367"/>
      <point x="229" y="624"/>
      <point x="408" y="624" type="curve" smooth="yes"/>
      <point x="480" y="624"/>
      <point x="539" y="591"/>
      <point x="539" y="482" type="curve" smooth="yes"/>
      <point x="539" y="361"/>
      <point x="483" y="82"/>
      <point x="297" y="82" type="curve" smooth="yes"/>
      <point x="222" y="82"/>
      <point x="168" y="112"/>
    </contour>
    <contour>
      <point x="514" y="900" type="line"/>
      <point x="491" y="791" type="line"/>
      <point x="591" y="791" type="line"/>
      <point x="614" y="900" type="line"/>
    </contour>
  </outline>
</glyph>
<glyph name="multiply" format="2">
  <advance width="560"/>
  <unicode hex="00D7"/>
  <note>
multiply
</note>
  <outline>
    <contour>
      <point x="475" y="491" type="line"/>
      <point x="299" y="346" type="line"/>
      <point x="186" y="491" type="line"/>
      <point x="106" y="426" type="line"/>
      <point x="221" y="281" type="line"/>
      <point x="45" y="137" type="line"/>
      <point x="97" y="71" type="line"/>
      <point x="273" y="216" type="line"/>
      <point x="386" y="71" type="line"/>
      <point x="466" y="137" type="line"/>
      <point x="351" y="281" type="line"/>
      <point x="527" y="426" type="line"/>
    </contour>
  </outline>
</glyph>
<glyph name="Ugrave" format="2">
  <advance width="640"/>
  <unicode hex="00D9"/>
  <note>
Ugrave
</note>
  <outline>
    <contour>
      <point x="305" y="847" type="line"/>
      <point x="544" y="767" type="line"/>
      <point x="574" y="836" type="line"/>
      <point x="344" y="935" type="line"/>
    </contour>
    <contour>
      <point x="170" y="705" type="line"/>
      <point x="71" y="241" type="line" smooth="yes"/>
      <point x="38" y="83"/>
      <point x="111" y="-12"/>
      <point x="288" y="-12" type="curve" smooth="yes"/>
      <point x="442" y="-12"/>
      <point x="522" y="47"/>
      <point x="556" y="209" type="curve" smooth="yes"/>
      <point x="662" y="705" type="line"/>
      <point x="555" y="705" type="line"/>
      <point x="452" y="217" type="line" smooth="yes"/>
      <point x="431" y="118"/>
      <point x="380" y="82"/>
      <point x="293" y="82" type="curve" smooth="yes"/>
      <point x="192" y="82"/>
      <point x="154" y="130"/>
      <point x="174" y="226" type="curve" smooth="yes"/>
      <point x="277" y="705" type="line"/>
    </contour>
  </outline>
</glyph>
<glyph name="Uacute" format="2">
  <advance width="640"/>
  <unicode hex="00DA"/>
  <note>
Uacute
</note>
  <outline>
    <contour>
      <point x="573" y="847" type="line"/>
      <point x="533" y="935" type="line"/>
      <point x="313" y="836" type="line"/>
      <point x="343" y="767" type="line"/>
    </contour>
    <contour>
      <point x="170" y="705" type="line"/>
      <point x="71" y="241" type="line" smooth="yes"/>
      <point x="38" y="83"/>
      <point x="111" y="-12"/>
      <point x="288" y="-12" type="curve" smooth="yes"/>
      <point x="442" y="-12"/>
      <point x="522" y="47"/>
      <point x="556" y="209" type="curve" smooth="yes"/>
      <point x="662" y="705" type="line"/>
      <point x="555" y="705" type="line"/>
      <point x="452" y="217" type="line" smooth="yes"/>
      <point x="431" y="118"/>
      <point x="380" y="82"/>
      <point x="293" y="82" type="curve" smooth="yes"/>
      <point x="192" y="82"/>
      <point x="154" y="130"/>
      <point x="174" y="226" type="curve" smooth="yes"/>
      <point x="277" y="705" type="line"/>
    </contour>
  </outline>
</glyph>
<glyph name="Thorn" format="2">
  <advance width="597"/>
  <unicode hex="00DE"/>
  <note>
Thorn
</note>
  <outline>
    <contour>
      <point x="257" y="586" type="line"/>
      <point x="282" y="705" type="line"/>
      <point x="176" y="705" type="line"/>
      <point x="25" y="0" type="line"/>
      <point x="132" y="0" type="line"/>
      <point x="161" y="138" type="line"/>
      <point x="295" y="138" type="line" smooth="yes"/>
      <point x="496" y="138"/>
      <point x="583" y="267"/>
      <point x="583" y="410" type="curve" smooth="yes"/>
      <point x="583" y="518"/>
      <point x="520" y="586"/>
      <point x="391" y="586" type="curve" smooth="yes"/>
    </contour>
    <contour>
      <point x="314" y="230" type="curve" smooth="yes"/>
      <point x="181" y="230" type="line"/>
      <point x="238" y="494" type="line"/>
      <point x="374" y="494" type="line" smooth="yes"/>
      <point x="440" y="494"/>
      <point x="471" y="466"/>
      <point x="471" y="398" type="curve" smooth="yes"/>
      <point x="471" y="315"/>
      <point x="426" y="230"/>
    </contour>
  </outline>
</glyph>
<glyph name="germandbls" format="2">
  <advance width="596"/>
  <unicode hex="00DF"/>
  <note>
germandbls
</note>
  <outline>
    <contour>
      <point x="127" y="531" type="curve" smooth="yes"/>
      <point x="14" y="0" type="line"/>
      <point x="118" y="0" type="line"/>
      <point x="230" y="525" type="line" smooth="yes"/>
      <point x="249" y="613"/>
      <point x="292" y="650"/>
      <point x="374" y="650" type="curve" smooth="yes"/>
      <point x="429" y="650"/>
      <point x="458" y="633"/>
      <point x="458" y="599" type="curve" smooth="yes"/>
      <point x="458" y="562"/>
      <point x="434" y="546"/>
      <point x="378" y="510" type="curve" smooth="yes"/>
      <point x="313" y="469"/>
      <point x="263" y="432"/>
      <point x="263" y="363" type="curve" smooth="yes"/>
      <point x="263" y="322"/>
      <point x="287" y="299"/>
      <point x="333" y="270" type="curve" smooth="yes"/>
      <point x="404" y="225" type="line" smooth="yes"/>
      <point x="431" y="208"/>
      <point x="442" y="195"/>
      <point x="442" y="168" type="curve" smooth="yes"/>
      <point x="442" y="115"/>
      <point x="404" y="81"/>
      <point x="330" y="81" type="curve" smooth="yes"/>
      <point x="281" y="81"/>
      <point x="198" y="92"/>
      <point x="198" y="92" type="curve"/>
      <point x="176" y="8" type="line"/>
      <point x="176" y="8"/>
      <point x="252" y="-11"/>
      <point x="325" y="-11" type="curve" smooth="yes"/>
      <point x="482" y="-11"/>
      <point x="553" y="84"/>
      <point x="553" y="186" type="curve" smooth="yes"/>
      <point x="553" y="239"/>
      <point x="533" y="273"/>
      <point x="491" y="299" type="curve" smooth="yes"/>
      <point x="406" y="352" type="line" smooth="yes"/>
      <point x="383" y="366"/>
      <point x="370" y="374"/>
      <point x="370" y="392" type="curve" smooth="yes"/>
      <point x="370" y="417"/>
      <point x="398" y="432"/>
      <point x="453" y="464" type="curve" smooth="yes"/>
      <point x="526" y="506"/>
      <point x="568" y="548"/>
      <point x="568" y="613" type="curve" smooth="yes"/>
      <point x="568" y="690"/>
      <point x="512" y="740"/>
      <point x="383" y="740" type="curve" smooth="yes"/>
      <point x="248" y="740"/>
      <point x="161" y="695"/>
    </contour>
  </outline>
</glyph>
<glyph name="adieresis" format="2">
  <advance width="525"/>
  <unicode hex="00E4"/>
  <note>
adieresis
</note>
  <outline>
    <contour>
      <point x="292" y="606" type="line"/>
      <point x="315" y="715" type="line"/>
      <point x="216" y="715" type="line"/>
      <point x="193" y="606" type="line"/>
    </contour>
    <contour>
      <point x="32" y="152" type="curve" smooth="yes"/>
      <point x="32" y="53"/>
      <point x="74" y="-13"/>
      <point x="157" y="-13" type="curve" smooth="yes"/>
      <point x="251" y="-13"/>
      <point x="326" y="86"/>
      <point x="326" y="86" type="curve"/>
      <point x="321" y="70"/>
      <point x="313" y="0"/>
      <point x="313" y="0" type="curve"/>
      <point x="413" y="0" type="line"/>
      <point x="413" y="0"/>
      <point x="422" y="96"/>
      <point x="437" y="162" type="curve" smooth="yes"/>
      <point x="509" y="489" type="line"/>
      <point x="509" y="489"/>
      <point x="358" y="520"/>
      <point x="287" y="520" type="curve" smooth="yes"/>
      <point x="117" y="520"/>
      <point x="32" y="307"/>
    </contour>
    <contour>
      <point x="135" y="156" type="curve" smooth="yes"/>
      <point x="135" y="274"/>
      <point x="185" y="432"/>
      <point x="287" y="432" type="curve" smooth="yes"/>
      <point x="325" y="432"/>
      <point x="391" y="418"/>
      <point x="391" y="418" type="curve"/>
      <point x="341" y="186" type="line"/>
      <point x="341" y="186"/>
      <point x="266" y="77"/>
      <point x="195" y="77" type="curve" smooth="yes"/>
      <point x="155" y="77"/>
      <point x="135" y="100"/>
    </contour>
    <contour>
      <point x="420" y="715" type="line"/>
      <point x="397" y="606" type="line"/>
      <point x="497" y="606" type="line"/>
      <point x="520" y="715" type="line"/>
    </contour>
  </outline>
</glyph>
<glyph name="aring" format="2">
  <advance width="525"/>
  <unicode hex="00E5"/>
  <note>
aring
</note>
  <outline>
    <contour>
      <point x="245" y="640" type="curve" smooth="yes"/>
      <point x="245" y="589"/>
      <point x="286" y="551"/>
      <point x="342" y="551" type="curve" smooth="yes"/>
      <point x="417" y="551"/>
      <point x="471" y="608"/>
      <point x="471" y="674" type="curve" smooth="yes"/>
      <point x="471" y="727"/>
      <point x="431" y="766"/>
      <point x="374" y="766" type="curve" smooth="yes"/>
      <point x="301" y="766"/>
      <point x="245" y="711"/>
    </contour>
    <contour>
      <point x="32" y="152" type="curve" smooth="yes"/>
      <point x="32" y="53"/>
      <point x="74" y="-13"/>
      <point x="157" y="-13" type="curve" smooth="yes"/>
      <point x="251" y="-13"/>
      <point x="326" y="86"/>
      <point x="326" y="86" type="curve"/>
      <point x="321" y="70"/>
      <point x="313" y="0"/>
      <point x="313" y="0" type="curve"/>
      <point x="413" y="0" type="line"/>
      <point x="413" y="0"/>
      <point x="422" y="96"/>
      <point x="437" y="162" type="curve" smooth="yes"/>
      <point x="509" y="489" type="line"/>
      <point x="509" y="489"/>
      <point x="358" y="520"/>
      <point x="287" y="520" type="curve" smooth="yes"/>
      <point x="117" y="520"/>
      <point x="32" y="307"/>
    </contour>
    <contour>
      <point x="135" y="156" type="curve" smooth="yes"/>
      <point x="135" y="274"/>
      <point x="185" y="432"/>
      <point x="287" y="432" type="curve" smooth="yes"/>
      <point x="325" y="432"/>
      <point x="391" y="418"/>
      <point x="391" y="418" type="curve"/>
      <point x="341" y="186" type="line"/>
      <point x="341" y="186"/>
      <point x="266" y="77"/>
      <point x="195" y="77" type="curve" smooth="yes"/>
      <point x="155" y="77"/>
      <point x="135" y="100"/>
    </contour>
    <contour>
      <point x="307" y="647" type="curve" smooth="yes"/>
      <point x="307" y="682"/>
      <point x="335" y="709"/>
      <point x="370" y="709" type="curve" smooth="yes"/>
      <point x="394" y="709"/>
      <point x="410" y="694"/>
      <point x="410" y="670" type="curve" smooth="yes"/>
      <point x="410" y="634"/>
      <point x="381" y="607"/>
      <point x="348" y="607" type="curve" smooth="yes"/>
      <point x="323" y="607"/>
      <point x="307" y="622"/>
    </contour>
  </outline>
</glyph>
<glyph name="ccedilla" format="2">
  <advance width="428"/>
  <unicode hex="00E7"/>
  <note>
ccedilla
</note>
  <outline>
    <contour>
      <point x="295" y="-121" type="curve" smooth="yes"/>
      <point x="295" y="-75"/>
      <point x="265" y="-49"/>
      <point x="207" y="-48" type="curve"/>
      <point x="221" y="-12" type="line"/>
      <point x="277" y="-10"/>
      <point x="340" y="4"/>
      <point x="340" y="4" type="curve"/>
      <point x="354" y="87" type="line"/>
      <point x="354" y="87"/>
      <point x="279" y="77"/>
      <point x="224" y="77" type="curve" smooth="yes"/>
      <point x="160" y="77"/>
      <point x="138" y="94"/>
      <point x="138" y="170" type="curve" smooth="yes"/>
      <point x="138" y="267"/>
      <point x="169" y="430"/>
      <point x="311" y="430" type="curve" smooth="yes"/>
      <point x="355" y="430"/>
      <point x="417" y="419"/>
      <point x="417" y="419" type="curve"/>
      <point x="440" y="501" type="line"/>
      <point x="440" y="501"/>
      <point x="364" y="520"/>
      <point x="306" y="520" type="curve" smooth="yes"/>
      <point x="91" y="520"/>
      <point x="35" y="299"/>
      <point x="35" y="161" type="curve" smooth="yes"/>
      <point x="35" y="55"/>
      <point x="81" y="-2"/>
      <point x="171" y="-11" type="curve"/>
      <point x="135" y="-99" type="line"/>
      <point x="169" y="-99" type="line" smooth="yes"/>
      <point x="193" y="-99"/>
      <point x="205" y="-106"/>
      <point x="205" y="-125" type="curve" smooth="yes"/>
      <point x="205" y="-152"/>
      <point x="187" y="-160"/>
      <point x="157" y="-160" type="curve" smooth="yes"/>
      <point x="134" y="-160"/>
      <point x="98" y="-158"/>
      <point x="93" y="-158" type="curve"/>
      <point x="76" y="-219" type="line"/>
      <point x="81" y="-219"/>
      <point x="127" y="-228"/>
      <point x="170" y="-228" type="curve" smooth="yes"/>
      <point x="256" y="-228"/>
      <point x="295" y="-185"/>
    </contour>
  </outline>
</glyph>
<glyph name="edieresis" format="2">
  <advance width="480"/>
  <unicode hex="00EB"/>
  <note>
edieresis
</note>
  <outline>
    <contour>
      <point x="260" y="606" type="line"/>
      <point x="283" y="715" type="line"/>
      <point x="184" y="715" type="line"/>
      <point x="161" y="606" type="line"/>
    </contour>
    <contour>
      <point x="35" y="171" type="curve" smooth="yes"/>
      <point x="35" y="49"/>
      <point x="92" y="-13"/>
      <point x="205" y="-13" type="curve" smooth="yes"/>
      <point x="291" y="-13"/>
      <point x="375" y="11"/>
      <point x="375" y="11" type="curve"/>
      <point x="389" y="93" type="line"/>
      <point x="389" y="93"/>
      <point x="295" y="75"/>
      <point x="229" y="75" type="curve" smooth="yes"/>
      <point x="161" y="75"/>
      <point x="137" y="102"/>
      <point x="137" y="161" type="curve" smooth="yes"/>
      <point x="137" y="181"/>
      <point x="139" y="207"/>
      <point x="143" y="225" type="curve"/>
      <point x="223" y="226" type="line" smooth="yes"/>
      <point x="385" y="227"/>
      <point x="468" y="260"/>
      <point x="468" y="381" type="curve" smooth="yes"/>
      <point x="468" y="482"/>
      <point x="405" y="520"/>
      <point x="310" y="520" type="curve" smooth="yes"/>
      <point x="117" y="520"/>
      <point x="35" y="335"/>
    </contour>
    <contour>
      <point x="220" y="302" type="curve" smooth="yes"/>
      <point x="157" y="300" type="line"/>
      <point x="179" y="387"/>
      <point x="227" y="437"/>
      <point x="301" y="437" type="curve" smooth="yes"/>
      <point x="344" y="437"/>
      <point x="366" y="419"/>
      <point x="366" y="379" type="curve" smooth="yes"/>
      <point x="366" y="320"/>
      <point x="318" y="304"/>
    </contour>
    <contour>
      <point x="388" y="715" type="line"/>
      <point x="365" y="606" type="line"/>
      <point x="465" y="606" type="line"/>
      <point x="487" y="715" type="line"/>
    </contour>
  </outline>
</glyph>
<glyph name="igrave" format="2">
  <advance width="238"/>
  <unicode hex="00EC"/>
  <note>
igrave
</note>
  <outline>
    <contour>
      <point x="68" y="653" type="line"/>
      <point x="297" y="573" type="line"/>
      <point x="327" y="642" type="line"/>
      <point x="108" y="741" type="line"/>
    </contour>
    <contour>
      <point x="120" y="500" type="line"/>
      <point x="14" y="0" type="line"/>
      <point x="117" y="0" type="line"/>
      <point x="223" y="500" type="line"/>
    </contour>
  </outline>
</glyph>
<glyph name="iacute" format="2">
  <advance width="238"/>
  <unicode hex="00ED"/>
  <note>
iacute
</note>
  <outline>
    <contour>
      <point x="343" y="653" type="line"/>
      <point x="318" y="741" type="line"/>
      <point x="55" y="642" type="line"/>
      <point x="77" y="573" type="line"/>
    </contour>
    <contour>
      <point x="120" y="500" type="line"/>
      <point x="14" y="0" type="line"/>
      <point x="117" y="0" type="line"/>
      <point x="223" y="500" type="line"/>
    </contour>
  </outline>
</glyph>
<glyph name="icircumflex" format="2">
  <advance width="238"/>
  <unicode hex="00EE"/>
  <note>
icircumflex
</note>
  <outline>
    <contour>
      <point x="18" y="578" type="line"/>
      <point x="123" y="578" type="line"/>
      <point x="215" y="670" type="line"/>
      <point x="267" y="578" type="line"/>
      <point x="355" y="578" type="line"/>
      <point x="267" y="735" type="line"/>
      <point x="174" y="735" type="line"/>
    </contour>
    <contour>
      <point x="120" y="500" type="line"/>
      <point x="14" y="0" type="line"/>
      <point x="117" y="0" type="line"/>
      <point x="223" y="500" type="line"/>
    </contour>
  </outline>
</glyph>
<glyph name="idieresis" format="2">
  <advance width="238"/>
  <unicode hex="00EF"/>
  <note>
idieresis
</note>
  <outline>
    <contour>
      <point x="134" y="601" type="line"/>
      <point x="156" y="711" type="line"/>
      <point x="57" y="711" type="line"/>
      <point x="35" y="601" type="line"/>
    </contour>
    <contour>
      <point x="120" y="500" type="line"/>
      <point x="14" y="0" type="line"/>
      <point x="117" y="0" type="line"/>
      <point x="223" y="500" type="line"/>
    </contour>
    <contour>
      <point x="261" y="711" type="line"/>
      <point x="238" y="601" type="line"/>
      <point x="338" y="601" type="line"/>
      <point x="361" y="711" type="line"/>
    </contour>
  </outline>
</glyph>
<glyph name="eth" format="2">
  <advance width="574"/>
  <unicode hex="00F0"/>
  <note>
eth
</note>
  <outline>
    <contour>
      <point x="286" y="633" type="curve"/>
      <point x="188" y="575" type="line"/>
      <point x="218" y="514" type="line"/>
      <point x="361" y="598" type="line"/>
      <point x="441" y="545"/>
      <point x="446" y="471"/>
      <point x="437" y="398" type="curve"/>
      <point x="437" y="398"/>
      <point x="374" y="434"/>
      <point x="283" y="434" type="curve" smooth="yes"/>
      <point x="121" y="434"/>
      <point x="35" y="339"/>
      <point x="35" y="198" type="curve" smooth="yes"/>
      <point x="35" y="64"/>
      <point x="125" y="-9"/>
      <point x="255" y="-9" type="curve" smooth="yes"/>
      <point x="484" y="-9"/>
      <point x="545" y="225"/>
      <point x="545" y="420" type="curve" smooth="yes"/>
      <point x="545" y="535"/>
      <point x="510" y="598"/>
      <point x="454" y="654" type="curve"/>
      <point x="533" y="698" type="line"/>
      <point x="502" y="759" type="line"/>
      <point x="390" y="693" type="line"/>
      <point x="340" y="715"/>
      <point x="280" y="730"/>
      <point x="204" y="740" type="curve"/>
      <point x="177" y="666" type="line"/>
      <point x="219" y="656"/>
      <point x="256" y="644"/>
    </contour>
    <contour>
      <point x="147" y="196" type="curve" smooth="yes"/>
      <point x="147" y="285"/>
      <point x="201" y="343"/>
      <point x="285" y="343" type="curve" smooth="yes"/>
      <point x="351" y="343"/>
      <point x="418" y="307"/>
      <point x="418" y="307" type="curve"/>
      <point x="396" y="141"/>
      <point x="334" y="84"/>
      <point x="256" y="84" type="curve" smooth="yes"/>
      <point x="189" y="84"/>
      <point x="147" y="125"/>
    </contour>
  </outline>
</glyph>
<glyph name="ntilde" format="2">
  <advance width="514"/>
  <unicode hex="00F1"/>
  <note>
ntilde
</note>
  <outline>
    <contour>
      <point x="539" y="659" type="curve"/>
      <point x="513" y="712" type="line"/>
      <point x="513" y="712"/>
      <point x="455" y="676"/>
      <point x="431" y="676" type="curve" smooth="yes"/>
      <point x="402" y="676"/>
      <point x="342" y="717"/>
      <point x="302" y="717" type="curve" smooth="yes"/>
      <point x="255" y="717"/>
      <point x="178" y="654"/>
      <point x="178" y="654" type="curve"/>
      <point x="203" y="600" type="line"/>
      <point x="203" y="600"/>
      <point x="260" y="636"/>
      <point x="286" y="636" type="curve" smooth="yes"/>
      <point x="318" y="636"/>
      <point x="375" y="594"/>
      <point x="416" y="594" type="curve" smooth="yes"/>
      <point x="462" y="594"/>
      <point x="532" y="653"/>
    </contour>
    <contour>
      <point x="122" y="505" type="line"/>
      <point x="14" y="0" type="line"/>
      <point x="116" y="0" type="line"/>
      <point x="187" y="337" type="line"/>
      <point x="187" y="337"/>
      <point x="246" y="427"/>
      <point x="316" y="427" type="curve" smooth="yes"/>
      <point x="350" y="427"/>
      <point x="368" y="406"/>
      <point x="368" y="369" type="curve" smooth="yes"/>
      <point x="368" y="331"/>
      <point x="358" y="287"/>
      <point x="351" y="254" type="curve" smooth="yes"/>
      <point x="298" y="0" type="line"/>
      <point x="399" y="0" type="line"/>
      <point x="453" y="259" type="line" smooth="yes"/>
      <point x="460" y="293"/>
      <point x="473" y="352"/>
      <point x="473" y="397" type="curve" smooth="yes"/>
      <point x="473" y="465"/>
      <point x="440" y="520"/>
      <point x="365" y="520" type="curve" smooth="yes"/>
      <point x="270" y="520"/>
      <point x="202" y="434"/>
      <point x="202" y="434" type="curve"/>
      <point x="213" y="505" type="line"/>
    </contour>
  </outline>
</glyph>
<glyph name="otilde" format="2">
  <advance width="510"/>
  <unicode hex="00F5"/>
  <note>
otilde
</note>
  <outline>
    <contour>
      <point x="507" y="659" type="curve"/>
      <point x="481" y="712" type="line"/>
      <point x="481" y="712"/>
      <point x="423" y="676"/>
      <point x="399" y="676" type="curve" smooth="yes"/>
      <point x="370" y="676"/>
      <point x="310" y="717"/>
      <point x="270" y="717" type="curve" smooth="yes"/>
      <point x="224" y="717"/>
      <point x="146" y="654"/>
      <point x="146" y="654" type="curve"/>
      <point x="171" y="600" type="line"/>
      <point x="171" y="600"/>
      <point x="228" y="636"/>
      <point x="254" y="636" type="curve" smooth="yes"/>
      <point x="286" y="636"/>
      <point x="343" y="594"/>
      <point x="384" y="594" type="curve" smooth="yes"/>
      <point x="430" y="594"/>
      <point x="500" y="653"/>
    </contour>
    <contour>
      <point x="35" y="156" type="curve" smooth="yes"/>
      <point x="35" y="44"/>
      <point x="94" y="-13"/>
      <point x="211" y="-13" type="curve" smooth="yes"/>
      <point x="406" y="-13"/>
      <point x="476" y="186"/>
      <point x="476" y="350" type="curve" smooth="yes"/>
      <point x="476" y="460"/>
      <point x="420" y="520"/>
      <point x="300" y="520" type="curve" smooth="yes"/>
      <point x="110" y="520"/>
      <point x="35" y="323"/>
    </contour>
    <contour>
      <point x="139" y="157" type="curve" smooth="yes"/>
      <point x="139" y="252"/>
      <point x="179" y="431"/>
      <point x="294" y="431" type="curve" smooth="yes"/>
      <point x="348" y="431"/>
      <point x="373" y="406"/>
      <point x="373" y="348" type="curve" smooth="yes"/>
      <point x="373" y="243"/>
      <point x="328" y="76"/>
      <point x="218" y="76" type="curve" smooth="yes"/>
      <point x="162" y="76"/>
      <point x="139" y="102"/>
    </contour>
  </outline>
</glyph>
<glyph name="odieresis" format="2">
  <advance width="510"/>
  <unicode hex="00F6"/>
  <note>
odieresis
</note>
  <outline>
    <contour>
      <point x="263" y="606" type="line"/>
      <point x="286" y="715" type="line"/>
      <point x="187" y="715" type="line"/>
      <point x="164" y="606" type="line"/>
    </contour>
    <contour>
      <point x="35" y="156" type="curve" smooth="yes"/>
      <point x="35" y="44"/>
      <point x="94" y="-13"/>
      <point x="211" y="-13" type="curve" smooth="yes"/>
      <point x="406" y="-13"/>
      <point x="476" y="186"/>
      <point x="476" y="350" type="curve" smooth="yes"/>
      <point x="476" y="460"/>
      <point x="420" y="520"/>
      <point x="300" y="520" type="curve" smooth="yes"/>
      <point x="110" y="520"/>
      <point x="35" y="323"/>
    </contour>
    <contour>
      <point x="139" y="157" type="curve" smooth="yes"/>
      <point x="139" y="252"/>
      <point x="179" y="431"/>
      <point x="294" y="431" type="curve" smooth="yes"/>
      <point x="348" y="431"/>
      <point x="373" y="406"/>
      <point x="373" y="348" type="curve" smooth="yes"/>
      <point x="373" y="243"/>
      <point x="328" y="76"/>
      <point x="218" y="76" type="curve" smooth="yes"/>
      <point x="162" y="76"/>
      <point x="139" y="102"/>
    </contour>
    <contour>
      <point x="390" y="715" type="line"/>
      <point x="368" y="606" type="line"/>
      <point x="467" y="606" type="line"/>
      <point x="490" y="715" type="line"/>
    </contour>
  </outline>
</glyph>
<glyph name="divide" format="2">
  <advance width="560"/>
  <unicode hex="00F7"/>
  <note>
divide
</note>
  <outline>
    <contour>
      <point x="364" y="399" type="line"/>
      <point x="386" y="509" type="line"/>
      <point x="282" y="509" type="line"/>
      <point x="259" y="399" type="line"/>
    </contour>
    <contour>
      <point x="83" y="327" type="line"/>
      <point x="64" y="236" type="line"/>
      <point x="489" y="236" type="line"/>
      <point x="508" y="327" type="line"/>
    </contour>
    <contour>
      <point x="208" y="163" type="line"/>
      <point x="185" y="53" type="line"/>
      <point x="290" y="53" type="line"/>
      <point x="313" y="163" type="line"/>
    </contour>
  </outline>
</glyph>
<glyph name="oslash" format="2">
  <advance width="510"/>
  <unicode hex="00F8"/>
  <note>
oslash
</note>
  <outline>
    <contour>
      <point x="300" y="520" type="curve" smooth="yes"/>
      <point x="110" y="520"/>
      <point x="35" y="323"/>
      <point x="35" y="156" type="curve" smooth="yes"/>
      <point x="35" y="92"/>
      <point x="54" y="46"/>
      <point x="92" y="18" type="curve"/>
      <point x="68" y="-30" type="line"/>
      <point x="142" y="-65" type="line"/>
      <point x="169" y="-10" type="line"/>
      <point x="183" y="-12"/>
      <point x="196" y="-13"/>
      <point x="211" y="-13" type="curve" smooth="yes"/>
      <point x="406" y="-13"/>
      <point x="476" y="186"/>
      <point x="476" y="350" type="curve" smooth="yes"/>
      <point x="476" y="414"/>
      <point x="458" y="461"/>
      <point x="417" y="489" type="curve"/>
      <point x="438" y="530" type="line"/>
      <point x="364" y="565" type="line"/>
      <point x="340" y="517" type="line"/>
      <point x="328" y="519"/>
      <point x="315" y="520"/>
    </contour>
    <contour>
      <point x="144" y="201" type="curve" smooth="yes"/>
      <point x="150" y="292"/>
      <point x="190" y="431"/>
      <point x="283" y="431" type="curve" smooth="yes"/>
      <point x="287" y="431"/>
      <point x="292" y="431"/>
      <point x="297" y="430" type="curve"/>
      <point x="147" y="129" type="line"/>
      <point x="142" y="148"/>
      <point x="141" y="173"/>
    </contour>
    <contour>
      <point x="213" y="77" type="curve"/>
      <point x="362" y="377" type="line"/>
      <point x="369" y="354"/>
      <point x="370" y="324"/>
      <point x="364" y="290" type="curve"/>
      <point x="358" y="196"/>
      <point x="313" y="76"/>
      <point x="230" y="76" type="curve" smooth="yes"/>
      <point x="224" y="76"/>
      <point x="219" y="76"/>
    </contour>
  </outline>
</glyph>
<glyph name="yacute" format="2">
  <advance width="470"/>
  <unicode hex="00FD"/>
  <note>
yacute
</note>
  <outline>
    <contour>
      <point x="448" y="658" type="line"/>
      <point x="424" y="746" type="line"/>
      <point x="161" y="646" type="line"/>
      <point x="183" y="578" type="line"/>
    </contour>
    <contour>
      <point x="160" y="0" type="line"/>
      <point x="47" y="-230" type="line"/>
      <point x="152" y="-230" type="line"/>
      <point x="506" y="505" type="line"/>
      <point x="400" y="505" type="line"/>
      <point x="207" y="89" type="line"/>
      <point x="182" y="89" type="line"/>
      <point x="184" y="505" type="line"/>
      <point x="83" y="505" type="line"/>
      <point x="86" y="0" type="line"/>
    </contour>
  </outline>
</glyph>
<glyph name="thorn" format="2">
  <advance width="522"/>
  <unicode hex="00FE"/>
  <note>
thorn
</note>
  <outline>
    <contour>
      <point x="203" y="428" type="curve"/>
      <point x="269" y="730" type="line"/>
      <point x="169" y="730" type="line"/>
      <point x="-36" y="-230" type="line"/>
      <point x="65" y="-230" type="line"/>
      <point x="115" y="6" type="line"/>
      <point x="122" y="5"/>
      <point x="188" y="-13"/>
      <point x="246" y="-13" type="curve" smooth="yes"/>
      <point x="387" y="-13"/>
      <point x="489" y="160"/>
      <point x="489" y="358" type="curve" smooth="yes"/>
      <point x="489" y="448"/>
      <point x="452" y="520"/>
      <point x="363" y="520" type="curve" smooth="yes"/>
      <point x="277" y="520"/>
      <point x="203" y="428"/>
    </contour>
    <contour>
      <point x="133" y="89" type="curve"/>
      <point x="183" y="320" type="line"/>
      <point x="183" y="320"/>
      <point x="255" y="429"/>
      <point x="329" y="429" type="curve" smooth="yes"/>
      <point x="370" y="429"/>
      <point x="387" y="403"/>
      <point x="387" y="352" type="curve" smooth="yes"/>
      <point x="387" y="193"/>
      <point x="322" y="75"/>
      <point x="246" y="75" type="curve" smooth="yes"/>
      <point x="203" y="75"/>
      <point x="139" y="88"/>
    </contour>
  </outline>
</glyph>
<glyph name="ydieresis" format="2">
  <advance width="470"/>
  <unicode hex="00FF"/>
  <note>
ydieresis
</note>
  <outline>
    <contour>
      <point x="239" y="606" type="line"/>
      <point x="262" y="715" type="line"/>
      <point x="163" y="715" type="line"/>
      <point x="140" y="606" type="line"/>
    </contour>
    <contour>
      <point x="160" y="0" type="line"/>
      <point x="47" y="-230" type="line"/>
      <point x="152" y="-230" type="line"/>
      <point x="506" y="505" type="line"/>
      <point x="400" y="505" type="line"/>
      <point x="207" y="89" type="line"/>
      <point x="182" y="89" type="line"/>
      <point x="184" y="505" type="line"/>
      <point x="83" y="505" type="line"/>
      <point x="86" y="0" type="line"/>
    </contour>
    <contour>
      <point x="367" y="715" type="line"/>
      <point x="344" y="606" type="line"/>
      <point x="444" y="606" type="line"/>
      <point x="467" y="715" type="line"/>
    </contour>
  </outline>
</glyph>
<glyph name="Amacron" format="2">
  <advance width="602"/>
  <unicode hex="0100"/>
  <note>
Amacron
</note>
  <outline>
    <contour>
      <point x="558" y="796" type="line"/>
      <point x="574" y="875" type="line"/>
      <point x="294" y="875" type="line"/>
      <point x="277" y="796" type="line"/>
    </contour>
    <contour>
      <point x="311" y="705" type="line"/>
      <point x="-39" y="0" type="line"/>
      <point x="68" y="0" type="line"/>
      <point x="151" y="173" type="line"/>
      <point x="412" y="173" type="line"/>
      <point x="417" y="0" type="line"/>
      <point x="520" y="0" type="line"/>
      <point x="499" y="705" type="line"/>
    </contour>
    <contour>
      <point x="410" y="266" type="line"/>
      <point x="196" y="266" type="line"/>
      <point x="368" y="612" type="line"/>
      <point x="398" y="612" type="line"/>
    </contour>
  </outline>
</glyph>
<glyph name="Abreve" format="2">
  <advance width="602"/>
  <unicode hex="0102"/>
  <note>
Abreve
</note>
  <outline>
    <contour>
      <point x="358" y="920" type="curve"/>
      <point x="281" y="920" type="line"/>
      <point x="268" y="836"/>
      <point x="311" y="767"/>
      <point x="414" y="767" type="curve" smooth="yes"/>
      <point x="520" y="767"/>
      <point x="575" y="833"/>
      <point x="598" y="920" type="curve"/>
      <point x="514" y="920" type="line"/>
      <point x="501" y="871"/>
      <point x="468" y="840"/>
      <point x="419" y="840" type="curve" smooth="yes"/>
      <point x="370" y="840"/>
      <point x="349" y="871"/>
    </contour>
    <contour>
      <point x="311" y="705" type="line"/>
      <point x="-39" y="0" type="line"/>
      <point x="68" y="0" type="line"/>
      <point x="151" y="173" type="line"/>
      <point x="412" y="173" type="line"/>
      <point x="417" y="0" type="line"/>
      <point x="520" y="0" type="line"/>
      <point x="499" y="705" type="line"/>
    </contour>
    <contour>
      <point x="410" y="266" type="line"/>
      <point x="196" y="266" type="line"/>
      <point x="368" y="612" type="line"/>
      <point x="398" y="612" type="line"/>
    </contour>
  </outline>
</glyph>
<glyph name="abreve" format="2">
  <advance width="525"/>
  <unicode hex="0103"/>
  <note>
abreve
</note>
  <outline>
    <contour>
      <point x="294" y="731" type="curve"/>
      <point x="215" y="731" type="line"/>
      <point x="206" y="647"/>
      <point x="249" y="578"/>
      <point x="351" y="578" type="curve" smooth="yes"/>
      <point x="454" y="578"/>
      <point x="513" y="640"/>
      <point x="536" y="731" type="curve"/>
      <point x="451" y="731" type="line"/>
      <point x="438" y="682"/>
      <point x="404" y="650"/>
      <point x="355" y="650" type="curve" smooth="yes"/>
      <point x="306" y="650"/>
      <point x="285" y="682"/>
    </contour>
    <contour>
      <point x="32" y="152" type="curve" smooth="yes"/>
      <point x="32" y="53"/>
      <point x="74" y="-13"/>
      <point x="157" y="-13" type="curve" smooth="yes"/>
      <point x="251" y="-13"/>
      <point x="326" y="86"/>
      <point x="326" y="86" type="curve"/>
      <point x="321" y="70"/>
      <point x="313" y="0"/>
      <point x="313" y="0" type="curve"/>
      <point x="413" y="0" type="line"/>
      <point x="413" y="0"/>
      <point x="422" y="96"/>
      <point x="437" y="162" type="curve" smooth="yes"/>
      <point x="509" y="489" type="line"/>
      <point x="509" y="489"/>
      <point x="358" y="520"/>
      <point x="287" y="520" type="curve" smooth="yes"/>
      <point x="117" y="520"/>
      <point x="32" y="307"/>
    </contour>
    <contour>
      <point x="135" y="156" type="curve" smooth="yes"/>
      <point x="135" y="274"/>
      <point x="185" y="432"/>
      <point x="287" y="432" type="curve" smooth="yes"/>
      <point x="325" y="432"/>
      <point x="391" y="418"/>
      <point x="391" y="418" type="curve"/>
      <point x="341" y="186" type="line"/>
      <point x="341" y="186"/>
      <point x="266" y="77"/>
      <point x="195" y="77" type="curve" smooth="yes"/>
      <point x="155" y="77"/>
      <point x="135" y="100"/>
    </contour>
  </outline>
</glyph>
<glyph name="Aogonek" format="2">
  <advance width="602"/>
  <unicode hex="0104"/>
  <note>
Aogonek
</note>
  <outline>
    <contour>
      <point x="499" y="705" type="line"/>
      <point x="311" y="705" type="line"/>
      <point x="-39" y="0" type="line"/>
      <point x="68" y="0" type="line"/>
      <point x="151" y="173" type="line"/>
      <point x="412" y="173" type="line"/>
      <point x="417" y="0" type="line"/>
      <point x="430" y="0" type="line"/>
      <point x="366" y="-51"/>
      <point x="330" y="-95"/>
      <point x="330" y="-140" type="curve" smooth="yes"/>
      <point x="330" y="-185"/>
      <point x="364" y="-211"/>
      <point x="413" y="-211" type="curve" smooth="yes"/>
      <point x="452" y="-211"/>
      <point x="505" y="-201"/>
      <point x="505" y="-201" type="curve"/>
      <point x="512" y="-125" type="line"/>
      <point x="512" y="-125"/>
      <point x="476" y="-130"/>
      <point x="466" y="-130" type="curve" smooth="yes"/>
      <point x="446" y="-130"/>
      <point x="435" y="-119"/>
      <point x="435" y="-102" type="curve" smooth="yes"/>
      <point x="435" y="-76"/>
      <point x="485" y="-29"/>
      <point x="520" y="0" type="curve"/>
    </contour>
    <contour>
      <point x="410" y="266" type="line"/>
      <point x="196" y="266" type="line"/>
      <point x="368" y="612" type="line"/>
      <point x="398" y="612" type="line"/>
    </contour>
  </outline>
</glyph>
<glyph name="aogonek" format="2">
  <advance width="525"/>
  <unicode hex="0105"/>
  <note>
aogonek
</note>
  <outline>
    <contour>
      <point x="157" y="-13" type="curve" smooth="yes"/>
      <point x="251" y="-13"/>
      <point x="326" y="86"/>
      <point x="326" y="86" type="curve"/>
      <point x="322" y="72"/>
      <point x="315" y="18"/>
      <point x="313" y="4" type="curve"/>
      <point x="246" y="-49"/>
      <point x="209" y="-94"/>
      <point x="209" y="-140" type="curve" smooth="yes"/>
      <point x="209" y="-185"/>
      <point x="242" y="-211"/>
      <point x="291" y="-211" type="curve" smooth="yes"/>
      <point x="330" y="-211"/>
      <point x="383" y="-201"/>
      <point x="383" y="-201" type="curve"/>
      <point x="390" y="-125" type="line"/>
      <point x="390" y="-125"/>
      <point x="354" y="-130"/>
      <point x="344" y="-130" type="curve" smooth="yes"/>
      <point x="324" y="-130"/>
      <point x="313" y="-119"/>
      <point x="313" y="-102" type="curve" smooth="yes"/>
      <point x="313" y="-76"/>
      <point x="363" y="-29"/>
      <point x="398" y="0" type="curve"/>
      <point x="413" y="0" type="line"/>
      <point x="413" y="0"/>
      <point x="422" y="96"/>
      <point x="437" y="162" type="curve" smooth="yes"/>
      <point x="509" y="489" type="line"/>
      <point x="509" y="489"/>
      <point x="358" y="520"/>
      <point x="287" y="520" type="curve" smooth="yes"/>
      <point x="117" y="520"/>
      <point x="32" y="307"/>
      <point x="32" y="152" type="curve" smooth="yes"/>
      <point x="32" y="53"/>
      <point x="74" y="-13"/>
    </contour>
    <contour>
      <point x="135" y="156" type="curve" smooth="yes"/>
      <point x="135" y="274"/>
      <point x="185" y="432"/>
      <point x="287" y="432" type="curve" smooth="yes"/>
      <point x="325" y="432"/>
      <point x="391" y="418"/>
      <point x="391" y="418" type="curve"/>
      <point x="341" y="186" type="line"/>
      <point x="341" y="186"/>
      <point x="266" y="77"/>
      <point x="195" y="77" type="curve" smooth="yes"/>
      <point x="155" y="77"/>
      <point x="135" y="100"/>
    </contour>
  </outline>
</glyph>
<glyph name="Cacute" format="2">
  <advance width="528"/>
  <unicode hex="0106"/>
  <note>
Cacute
</note>
  <outline>
    <contour>
      <point x="579" y="847" type="line"/>
      <point x="540" y="935" type="line"/>
      <point x="320" y="836" type="line"/>
      <point x="350" y="767" type="line"/>
    </contour>
    <contour>
      <point x="52" y="191" type="curve" smooth="yes"/>
      <point x="52" y="43"/>
      <point x="114" y="-12"/>
      <point x="271" y="-12" type="curve" smooth="yes"/>
      <point x="328" y="-12"/>
      <point x="391" y="-3"/>
      <point x="440" y="6" type="curve"/>
      <point x="455" y="97" type="line"/>
      <point x="411" y="89"/>
      <point x="344" y="83"/>
      <point x="293" y="83" type="curve" smooth="yes"/>
      <point x="199" y="83"/>
      <point x="162" y="106"/>
      <point x="162" y="192" type="curve" smooth="yes"/>
      <point x="162" y="321"/>
      <point x="228" y="623"/>
      <point x="410" y="623" type="curve" smooth="yes"/>
      <point x="449" y="623"/>
      <point x="521" y="612"/>
      <point x="564" y="603" type="curve"/>
      <point x="586" y="690" type="line"/>
      <point x="546" y="701"/>
      <point x="481" y="718"/>
      <point x="415" y="718" type="curve" smooth="yes"/>
      <point x="134" y="718"/>
      <point x="52" y="362"/>
    </contour>
  </outline>
</glyph>
<glyph name="cacute" format="2">
  <advance width="428"/>
  <unicode hex="0107"/>
  <note>
cacute
</note>
  <outline>
    <contour>
      <point x="477" y="658" type="line"/>
      <point x="452" y="746" type="line"/>
      <point x="190" y="646" type="line"/>
      <point x="212" y="578" type="line"/>
    </contour>
    <contour>
      <point x="35" y="161" type="curve" smooth="yes"/>
      <point x="35" y="44"/>
      <point x="91" y="-13"/>
      <point x="200" y="-13" type="curve" smooth="yes"/>
      <point x="263" y="-13"/>
      <point x="340" y="4"/>
      <point x="340" y="4" type="curve"/>
      <point x="354" y="87" type="line"/>
      <point x="354" y="87"/>
      <point x="279" y="77"/>
      <point x="224" y="77" type="curve" smooth="yes"/>
      <point x="160" y="77"/>
      <point x="138" y="94"/>
      <point x="138" y="170" type="curve" smooth="yes"/>
      <point x="138" y="267"/>
      <point x="169" y="430"/>
      <point x="311" y="430" type="curve" smooth="yes"/>
      <point x="355" y="430"/>
      <point x="417" y="419"/>
      <point x="417" y="419" type="curve"/>
      <point x="440" y="501" type="line"/>
      <point x="440" y="501"/>
      <point x="364" y="520"/>
      <point x="306" y="520" type="curve" smooth="yes"/>
      <point x="91" y="520"/>
      <point x="35" y="299"/>
    </contour>
  </outline>
</glyph>
<glyph name="ccircumflex" format="2">
  <advance width="428"/>
  <unicode hex="0109"/>
  <note>
ccircumflex
</note>
  <outline>
    <contour>
      <point x="152" y="583" type="line"/>
      <point x="257" y="583" type="line"/>
      <point x="349" y="675" type="line"/>
      <point x="401" y="583" type="line"/>
      <point x="490" y="583" type="line"/>
      <point x="401" y="740" type="line"/>
      <point x="308" y="740" type="line"/>
    </contour>
    <contour>
      <point x="35" y="161" type="curve" smooth="yes"/>
      <point x="35" y="44"/>
      <point x="91" y="-13"/>
      <point x="200" y="-13" type="curve" smooth="yes"/>
      <point x="263" y="-13"/>
      <point x="340" y="4"/>
      <point x="340" y="4" type="curve"/>
      <point x="354" y="87" type="line"/>
      <point x="354" y="87"/>
      <point x="279" y="77"/>
      <point x="224" y="77" type="curve" smooth="yes"/>
      <point x="160" y="77"/>
      <point x="138" y="94"/>
      <point x="138" y="170" type="curve" smooth="yes"/>
      <point x="138" y="267"/>
      <point x="169" y="430"/>
      <point x="311" y="430" type="curve" smooth="yes"/>
      <point x="355" y="430"/>
      <point x="417" y="419"/>
      <point x="417" y="419" type="curve"/>
      <point x="440" y="501" type="line"/>
      <point x="440" y="501"/>
      <point x="364" y="520"/>
      <point x="306" y="520" type="curve" smooth="yes"/>
      <point x="91" y="520"/>
      <point x="35" y="299"/>
    </contour>
  </outline>
</glyph>
<glyph name="Cdotaccent" format="2">
  <advance width="528"/>
  <unicode hex="010A"/>
  <note>
Cdotaccent
</note>
  <outline>
    <contour>
      <point x="486" y="791" type="line"/>
      <point x="512" y="910" type="line"/>
      <point x="409" y="910" type="line"/>
      <point x="384" y="791" type="line"/>
    </contour>
    <contour>
      <point x="52" y="191" type="curve" smooth="yes"/>
      <point x="52" y="43"/>
      <point x="114" y="-12"/>
      <point x="271" y="-12" type="curve" smooth="yes"/>
      <point x="328" y="-12"/>
      <point x="391" y="-3"/>
      <point x="440" y="6" type="curve"/>
      <point x="455" y="97" type="line"/>
      <point x="411" y="89"/>
      <point x="344" y="83"/>
      <point x="293" y="83" type="curve" smooth="yes"/>
      <point x="199" y="83"/>
      <point x="162" y="106"/>
      <point x="162" y="192" type="curve" smooth="yes"/>
      <point x="162" y="321"/>
      <point x="228" y="623"/>
      <point x="410" y="623" type="curve" smooth="yes"/>
      <point x="449" y="623"/>
      <point x="521" y="612"/>
      <point x="564" y="603" type="curve"/>
      <point x="586" y="690" type="line"/>
      <point x="546" y="701"/>
      <point x="481" y="718"/>
      <point x="415" y="718" type="curve" smooth="yes"/>
      <point x="134" y="718"/>
      <point x="52" y="362"/>
    </contour>
  </outline>
</glyph>
<glyph name="ccaron" format="2">
  <advance width="428"/>
  <unicode hex="010D"/>
  <note>
ccaron
</note>
  <outline>
    <contour>
      <point x="524" y="741" type="line"/>
      <point x="418" y="741" type="line"/>
      <point x="326" y="649" type="line"/>
      <point x="274" y="741" type="line"/>
      <point x="186" y="741" type="line"/>
      <point x="274" y="584" type="line"/>
      <point x="367" y="584" type="line"/>
    </contour>
    <contour>
      <point x="35" y="161" type="curve" smooth="yes"/>
      <point x="35" y="44"/>
      <point x="91" y="-13"/>
      <point x="200" y="-13" type="curve" smooth="yes"/>
      <point x="263" y="-13"/>
      <point x="340" y="4"/>
      <point x="340" y="4" type="curve"/>
      <point x="354" y="87" type="line"/>
      <point x="354" y="87"/>
      <point x="279" y="77"/>
      <point x="224" y="77" type="curve" smooth="yes"/>
      <point x="160" y="77"/>
      <point x="138" y="94"/>
      <point x="138" y="170" type="curve" smooth="yes"/>
      <point x="138" y="267"/>
      <point x="169" y="430"/>
      <point x="311" y="430" type="curve" smooth="yes"/>
      <point x="355" y="430"/>
      <point x="417" y="419"/>
      <point x="417" y="419" type="curve"/>
      <point x="440" y="501" type="line"/>
      <point x="440" y="501"/>
      <point x="364" y="520"/>
      <point x="306" y="520" type="curve" smooth="yes"/>
      <point x="91" y="520"/>
      <point x="35" y="299"/>
    </contour>
  </outline>
</glyph>
<glyph name="Dcaron" format="2">
  <advance width="632"/>
  <unicode hex="010E"/>
  <note>
Dcaron
</note>
  <outline>
    <contour>
      <point x="603" y="930" type="line"/>
      <point x="498" y="930" type="line"/>
      <point x="406" y="838" type="line"/>
      <point x="354" y="930" type="line"/>
      <point x="265" y="930" type="line"/>
      <point x="353" y="773" type="line"/>
      <point x="447" y="773" type="line"/>
    </contour>
    <contour>
      <point x="176" y="705" type="line"/>
      <point x="25" y="0" type="line"/>
      <point x="256" y="0" type="line" smooth="yes"/>
      <point x="519" y="0"/>
      <point x="618" y="280"/>
      <point x="618" y="486" type="curve" smooth="yes"/>
      <point x="618" y="621"/>
      <point x="559" y="705"/>
      <point x="393" y="705" type="curve" smooth="yes"/>
    </contour>
    <contour>
      <point x="257" y="93" type="curve" smooth="yes"/>
      <point x="152" y="93" type="line"/>
      <point x="262" y="612" type="line"/>
      <point x="377" y="612" type="line" smooth="yes"/>
      <point x="472" y="612"/>
      <point x="508" y="568"/>
      <point x="508" y="481" type="curve" smooth="yes"/>
      <point x="508" y="325"/>
      <point x="425" y="93"/>
    </contour>
  </outline>
</glyph>
<glyph name="dcaron" format="2">
  <advance width="542"/>
  <unicode hex="010F"/>
  <note>
dcaron
</note>
  <outline>
    <contour>
      <point x="326" y="84" type="curve"/>
      <point x="310" y="0" type="line"/>
      <point x="401" y="0" type="line"/>
      <point x="557" y="730" type="line"/>
      <point x="456" y="730" type="line"/>
      <point x="407" y="501" type="line"/>
      <point x="406" y="501"/>
      <point x="323" y="520"/>
      <point x="273" y="520" type="curve" smooth="yes"/>
      <point x="116" y="520"/>
      <point x="35" y="323"/>
      <point x="34" y="152" type="curve" smooth="yes"/>
      <point x="33" y="47"/>
      <point x="79" y="-13"/>
      <point x="160" y="-13" type="curve" smooth="yes"/>
      <point x="249" y="-13"/>
      <point x="326" y="84"/>
    </contour>
    <contour>
      <point x="136" y="153" type="curve" smooth="yes"/>
      <point x="137" y="281"/>
      <point x="178" y="432"/>
      <point x="275" y="432" type="curve" smooth="yes"/>
      <point x="320" y="432"/>
      <point x="389" y="418"/>
      <point x="389" y="418" type="curve"/>
      <point x="340" y="186" type="line"/>
      <point x="340" y="186"/>
      <point x="267" y="77"/>
      <point x="195" y="77" type="curve" smooth="yes"/>
      <point x="153" y="77"/>
      <point x="135" y="106"/>
    </contour>
    <contour>
      <point x="572" y="590" type="curve"/>
      <point x="622" y="567" type="line"/>
      <point x="622" y="567"/>
      <point x="683" y="616"/>
      <point x="691" y="657" type="curve" smooth="yes"/>
      <point x="697" y="685"/>
      <point x="705" y="730"/>
      <point x="705" y="730" type="curve"/>
      <point x="621" y="730" type="line"/>
      <point x="621" y="730"/>
      <point x="614" y="680"/>
      <point x="610" y="667" type="curve"/>
      <point x="607" y="647"/>
      <point x="572" y="590"/>
    </contour>
  </outline>
</glyph>
<glyph name="Dcroat" format="2">
  <advance width="657"/>
  <unicode hex="0110"/>
  <note>
Dcroat
</note>
  <outline>
    <contour>
      <point x="51" y="310" type="line"/>
      <point x="116" y="310" type="line"/>
      <point x="50" y="0" type="line"/>
      <point x="281" y="0" type="line" smooth="yes"/>
      <point x="544" y="0"/>
      <point x="642" y="280"/>
      <point x="642" y="486" type="curve" smooth="yes"/>
      <point x="642" y="621"/>
      <point x="584" y="705"/>
      <point x="418" y="705" type="curve" smooth="yes"/>
      <point x="201" y="705" type="line"/>
      <point x="136" y="400" type="line"/>
      <point x="70" y="400" type="line"/>
    </contour>
    <contour>
      <point x="281" y="93" type="curve" smooth="yes"/>
      <point x="176" y="93" type="line"/>
      <point x="223" y="310" type="line"/>
      <point x="393" y="310" type="line"/>
      <point x="411" y="400" type="line"/>
      <point x="241" y="400" type="line"/>
      <point x="287" y="612" type="line"/>
      <point x="402" y="612" type="line" smooth="yes"/>
      <point x="497" y="612"/>
      <point x="533" y="568"/>
      <point x="533" y="481" type="curve" smooth="yes"/>
      <point x="533" y="325"/>
      <point x="450" y="93"/>
    </contour>
  </outline>
</glyph>
<glyph name="Emacron" format="2">
  <advance width="535"/>
  <unicode hex="0112"/>
  <note>
Emacron
</note>
  <outline>
    <contour>
      <point x="540" y="796" type="line"/>
      <point x="557" y="875" type="line"/>
      <point x="276" y="875" type="line"/>
      <point x="260" y="796" type="line"/>
    </contour>
    <contour>
      <point x="175" y="705" type="line"/>
      <point x="25" y="0" type="line"/>
      <point x="435" y="0" type="line"/>
      <point x="455" y="93" type="line"/>
      <point x="151" y="93" type="line"/>
      <point x="197" y="310" type="line"/>
      <point x="444" y="310" type="line"/>
      <point x="463" y="402" type="line"/>
      <point x="217" y="402" type="line"/>
      <point x="261" y="612" type="line"/>
      <point x="566" y="612" type="line"/>
      <point x="585" y="705" type="line"/>
    </contour>
  </outline>
</glyph>
<glyph name="Ebreve" format="2">
  <advance width="535"/>
  <unicode hex="0114"/>
  <note>
Ebreve
</note>
  <outline>
    <contour>
      <point x="341" y="920" type="curve"/>
      <point x="264" y="920" type="line"/>
      <point x="250" y="836"/>
      <point x="294" y="767"/>
      <point x="396" y="767" type="curve" smooth="yes"/>
      <point x="503" y="767"/>
      <point x="558" y="833"/>
      <point x="581" y="920" type="curve"/>
      <point x="497" y="920" type="line"/>
      <point x="484" y="871"/>
      <point x="451" y="840"/>
      <point x="401" y="840" type="curve" smooth="yes"/>
      <point x="352" y="840"/>
      <point x="332" y="871"/>
    </contour>
    <contour>
      <point x="175" y="705" type="line"/>
      <point x="25" y="0" type="line"/>
      <point x="435" y="0" type="line"/>
      <point x="455" y="93" type="line"/>
      <point x="151" y="93" type="line"/>
      <point x="197" y="310" type="line"/>
      <point x="444" y="310" type="line"/>
      <point x="463" y="402" type="line"/>
      <point x="217" y="402" type="line"/>
      <point x="261" y="612" type="line"/>
      <point x="566" y="612" type="line"/>
      <point x="585" y="705" type="line"/>
    </contour>
  </outline>
</glyph>
<glyph name="ebreve" format="2">
  <advance width="480"/>
  <unicode hex="0115"/>
  <note>
ebreve
</note>
  <outline>
    <contour>
      <point x="262" y="731" type="curve"/>
      <point x="182" y="731" type="line"/>
      <point x="173" y="647"/>
      <point x="216" y="578"/>
      <point x="319" y="578" type="curve" smooth="yes"/>
      <point x="422" y="578"/>
      <point x="481" y="640"/>
      <point x="504" y="731" type="curve"/>
      <point x="419" y="731" type="line"/>
      <point x="406" y="682"/>
      <point x="372" y="650"/>
      <point x="323" y="650" type="curve" smooth="yes"/>
      <point x="274" y="650"/>
      <point x="253" y="682"/>
    </contour>
    <contour>
      <point x="35" y="171" type="curve" smooth="yes"/>
      <point x="35" y="49"/>
      <point x="92" y="-13"/>
      <point x="205" y="-13" type="curve" smooth="yes"/>
      <point x="291" y="-13"/>
      <point x="375" y="11"/>
      <point x="375" y="11" type="curve"/>
      <point x="389" y="93" type="line"/>
      <point x="389" y="93"/>
      <point x="295" y="75"/>
      <point x="229" y="75" type="curve" smooth="yes"/>
      <point x="161" y="75"/>
      <point x="137" y="102"/>
      <point x="137" y="161" type="curve" smooth="yes"/>
      <point x="137" y="181"/>
      <point x="139" y="207"/>
      <point x="143" y="225" type="curve"/>
      <point x="223" y="226" type="line" smooth="yes"/>
      <point x="385" y="227"/>
      <point x="468" y="260"/>
      <point x="468" y="381" type="curve" smooth="yes"/>
      <point x="468" y="482"/>
      <point x="405" y="520"/>
      <point x="310" y="520" type="curve" smooth="yes"/>
      <point x="117" y="520"/>
      <point x="35" y="335"/>
    </contour>
    <contour>
      <point x="220" y="302" type="curve" smooth="yes"/>
      <point x="157" y="300" type="line"/>
      <point x="179" y="387"/>
      <point x="227" y="437"/>
      <point x="301" y="437" type="curve" smooth="yes"/>
      <point x="344" y="437"/>
      <point x="366" y="419"/>
      <point x="366" y="379" type="curve" smooth="yes"/>
      <point x="366" y="320"/>
      <point x="318" y="304"/>
    </contour>
  </outline>
</glyph>
<glyph name="Edotaccent" format="2">
  <advance width="535"/>
  <unicode hex="0116"/>
  <note>
Edotaccent
</note>
  <outline>
    <contour>
      <point x="450" y="791" type="line"/>
      <point x="475" y="910" type="line"/>
      <point x="372" y="910" type="line"/>
      <point x="347" y="791" type="line"/>
    </contour>
    <contour>
      <point x="175" y="705" type="line"/>
      <point x="25" y="0" type="line"/>
      <point x="435" y="0" type="line"/>
      <point x="455" y="93" type="line"/>
      <point x="151" y="93" type="line"/>
      <point x="197" y="310" type="line"/>
      <point x="444" y="310" type="line"/>
      <point x="463" y="402" type="line"/>
      <point x="217" y="402" type="line"/>
      <point x="261" y="612" type="line"/>
      <point x="566" y="612" type="line"/>
      <point x="585" y="705" type="line"/>
    </contour>
  </outline>
</glyph>
<glyph name="Eogonek" format="2">
  <advance width="535"/>
  <unicode hex="0118"/>
  <note>
Eogonek
</note>
  <outline>
    <contour>
      <point x="404" y="0" type="curve"/>
      <point x="435" y="0" type="line"/>
      <point x="455" y="93" type="line"/>
      <point x="151" y="93" type="line"/>
      <point x="197" y="310" type="line"/>
      <point x="444" y="310" type="line"/>
      <point x="463" y="402" type="line"/>
      <point x="217" y="402" type="line"/>
      <point x="261" y="612" type="line"/>
      <point x="566" y="612" type="line"/>
      <point x="585" y="705" type="line"/>
      <point x="175" y="705" type="line"/>
      <point x="25" y="0" type="line"/>
      <point x="314" y="0" type="line"/>
      <point x="250" y="-51"/>
      <point x="214" y="-95"/>
      <point x="214" y="-140" type="curve" smooth="yes"/>
      <point x="214" y="-185"/>
      <point x="248" y="-211"/>
      <point x="297" y="-211" type="curve" smooth="yes"/>
      <point x="336" y="-211"/>
      <point x="389" y="-201"/>
      <point x="389" y="-201" type="curve"/>
      <point x="396" y="-125" type="line"/>
      <point x="396" y="-125"/>
      <point x="360" y="-130"/>
      <point x="350" y="-130" type="curve" smooth="yes"/>
      <point x="330" y="-130"/>
      <point x="319" y="-119"/>
      <point x="319" y="-102" type="curve" smooth="yes"/>
      <point x="319" y="-76"/>
      <point x="369" y="-29"/>
    </contour>
  </outline>
</glyph>
<glyph name="eogonek" format="2">
  <advance width="480"/>
  <unicode hex="0119"/>
  <note>
eogonek
</note>
  <outline>
    <contour>
      <point x="229" y="75" type="curve" smooth="yes"/>
      <point x="161" y="75"/>
      <point x="137" y="102"/>
      <point x="137" y="161" type="curve" smooth="yes"/>
      <point x="137" y="181"/>
      <point x="139" y="207"/>
      <point x="143" y="225" type="curve"/>
      <point x="223" y="226" type="line" smooth="yes"/>
      <point x="385" y="227"/>
      <point x="468" y="260"/>
      <point x="468" y="381" type="curve" smooth="yes"/>
      <point x="468" y="482"/>
      <point x="405" y="520"/>
      <point x="310" y="520" type="curve" smooth="yes"/>
      <point x="117" y="520"/>
      <point x="35" y="335"/>
      <point x="35" y="171" type="curve" smooth="yes"/>
      <point x="35" y="55"/>
      <point x="87" y="-7"/>
      <point x="184" y="-12" type="curve" smooth="yes"/>
      <point x="212" y="-12" type="line"/>
      <point x="157" y="-58"/>
      <point x="127" y="-98"/>
      <point x="127" y="-140" type="curve" smooth="yes"/>
      <point x="127" y="-185"/>
      <point x="160" y="-211"/>
      <point x="210" y="-211" type="curve" smooth="yes"/>
      <point x="248" y="-211"/>
      <point x="302" y="-201"/>
      <point x="302" y="-201" type="curve"/>
      <point x="308" y="-125" type="line"/>
      <point x="308" y="-125"/>
      <point x="273" y="-130"/>
      <point x="262" y="-130" type="curve" smooth="yes"/>
      <point x="242" y="-130"/>
      <point x="231" y="-119"/>
      <point x="231" y="-102" type="curve" smooth="yes"/>
      <point x="231" y="-79"/>
      <point x="263" y="-35"/>
      <point x="314" y="-11" type="curve" smooth="yes"/>
      <point x="342" y="4"/>
      <point x="375" y="11"/>
      <point x="375" y="11" type="curve"/>
      <point x="389" y="93" type="line"/>
      <point x="389" y="93"/>
      <point x="295" y="75"/>
    </contour>
    <contour>
      <point x="220" y="302" type="curve" smooth="yes"/>
      <point x="157" y="300" type="line"/>
      <point x="179" y="387"/>
      <point x="227" y="437"/>
      <point x="301" y="437" type="curve" smooth="yes"/>
      <point x="344" y="437"/>
      <point x="366" y="419"/>
      <point x="366" y="379" type="curve" smooth="yes"/>
      <point x="366" y="320"/>
      <point x="318" y="304"/>
    </contour>
  </outline>
</glyph>
<glyph name="Ecaron" format="2">
  <advance width="535"/>
  <unicode hex="011A"/>
  <note>
Ecaron
</note>
  <outline>
    <contour>
      <point x="599" y="930" type="line"/>
      <point x="494" y="930" type="line"/>
      <point x="402" y="838" type="line"/>
      <point x="350" y="930" type="line"/>
      <point x="261" y="930" type="line"/>
      <point x="350" y="773" type="line"/>
      <point x="443" y="773" type="line"/>
    </contour>
    <contour>
      <point x="175" y="705" type="line"/>
      <point x="25" y="0" type="line"/>
      <point x="435" y="0" type="line"/>
      <point x="455" y="93" type="line"/>
      <point x="151" y="93" type="line"/>
      <point x="197" y="310" type="line"/>
      <point x="444" y="310" type="line"/>
      <point x="463" y="402" type="line"/>
      <point x="217" y="402" type="line"/>
      <point x="261" y="612" type="line"/>
      <point x="566" y="612" type="line"/>
      <point x="585" y="705" type="line"/>
    </contour>
  </outline>
</glyph>
<glyph name="Gbreve" format="2">
  <advance width="598"/>
  <unicode hex="011E"/>
  <note>
Gbreve
</note>
  <outline>
    <contour>
      <point x="389" y="920" type="curve"/>
      <point x="313" y="920" type="line"/>
      <point x="299" y="836"/>
      <point x="343" y="767"/>
      <point x="445" y="767" type="curve" smooth="yes"/>
      <point x="551" y="767"/>
      <point x="607" y="833"/>
      <point x="629" y="920" type="curve"/>
      <point x="546" y="920" type="line"/>
      <point x="533" y="871"/>
      <point x="499" y="840"/>
      <point x="450" y="840" type="curve" smooth="yes"/>
      <point x="401" y="840"/>
      <point x="380" y="871"/>
    </contour>
    <contour>
      <point x="53" y="186" type="curve" smooth="yes"/>
      <point x="53" y="60"/>
      <point x="107" y="-12"/>
      <point x="261" y="-12" type="curve" smooth="yes"/>
      <point x="348" y="-12"/>
      <point x="476" y="10"/>
      <point x="488" y="12" type="curve"/>
      <point x="562" y="359" type="line"/>
      <point x="359" y="359" type="line"/>
      <point x="339" y="266" type="line"/>
      <point x="442" y="266" type="line"/>
      <point x="404" y="91" type="line"/>
      <point x="390" y="88"/>
      <point x="340" y="81"/>
      <point x="291" y="81" type="curve" smooth="yes"/>
      <point x="195" y="81"/>
      <point x="162" y="110"/>
      <point x="162" y="192" type="curve" smooth="yes"/>
      <point x="162" y="339"/>
      <point x="233" y="623"/>
      <point x="408" y="623" type="curve" smooth="yes"/>
      <point x="485" y="623"/>
      <point x="599" y="600"/>
      <point x="599" y="600" type="curve"/>
      <point x="621" y="685" type="line"/>
      <point x="621" y="685"/>
      <point x="508" y="718"/>
      <point x="411" y="718" type="curve" smooth="yes"/>
      <point x="139" y="718"/>
      <point x="53" y="374"/>
    </contour>
  </outline>
</glyph>
<glyph name="Gdotaccent" format="2">
  <advance width="598"/>
  <unicode hex="0120"/>
  <note>
Gdotaccent
</note>
  <outline>
    <contour>
      <point x="499" y="791" type="line"/>
      <point x="524" y="910" type="line"/>
      <point x="421" y="910" type="line"/>
      <point x="396" y="791" type="line"/>
    </contour>
    <contour>
      <point x="53" y="186" type="curve" smooth="yes"/>
      <point x="53" y="60"/>
      <point x="107" y="-12"/>
      <point x="261" y="-12" type="curve" smooth="yes"/>
      <point x="348" y="-12"/>
      <point x="476" y="10"/>
      <point x="488" y="12" type="curve"/>
      <point x="562" y="359" type="line"/>
      <point x="359" y="359" type="line"/>
      <point x="339" y="266" type="line"/>
      <point x="442" y="266" type="line"/>
      <point x="404" y="91" type="line"/>
      <point x="390" y="88"/>
      <point x="340" y="81"/>
      <point x="291" y="81" type="curve" smooth="yes"/>
      <point x="195" y="81"/>
      <point x="162" y="110"/>
      <point x="162" y="192" type="curve" smooth="yes"/>
      <point x="162" y="339"/>
      <point x="233" y="623"/>
      <point x="408" y="623" type="curve" smooth="yes"/>
      <point x="485" y="623"/>
      <point x="599" y="600"/>
      <point x="599" y="600" type="curve"/>
      <point x="621" y="685" type="line"/>
      <point x="621" y="685"/>
      <point x="508" y="718"/>
      <point x="411" y="718" type="curve" smooth="yes"/>
      <point x="139" y="718"/>
      <point x="53" y="374"/>
    </contour>
  </outline>
</glyph>
<glyph name="gdotaccent" format="2">
  <advance width="493"/>
  <unicode hex="0121"/>
  <note>
gdotaccent
</note>
  <outline>
    <contour>
      <point x="345" y="606" type="line"/>
      <point x="370" y="725" type="line"/>
      <point x="267" y="725" type="line"/>
      <point x="242" y="606" type="line"/>
    </contour>
    <contour>
      <point x="-48" y="-109" type="curve" smooth="yes"/>
      <point x="-48" y="-194"/>
      <point x="11" y="-242"/>
      <point x="158" y="-242" type="curve" smooth="yes"/>
      <point x="329" y="-242"/>
      <point x="418" y="-173"/>
      <point x="418" y="-49" type="curve" smooth="yes"/>
      <point x="418" y="27"/>
      <point x="382" y="57"/>
      <point x="291" y="72" type="curve" smooth="yes"/>
      <point x="186" y="90" type="line" smooth="yes"/>
      <point x="156" y="95"/>
      <point x="146" y="102"/>
      <point x="146" y="118" type="curve" smooth="yes"/>
      <point x="146" y="141"/>
      <point x="166" y="170"/>
      <point x="176" y="178" type="curve"/>
      <point x="186" y="176"/>
      <point x="206" y="174"/>
      <point x="219" y="174" type="curve" smooth="yes"/>
      <point x="359" y="174"/>
      <point x="441" y="256"/>
      <point x="441" y="366" type="curve" smooth="yes"/>
      <point x="441" y="392"/>
      <point x="434" y="416"/>
      <point x="428" y="429" type="curve"/>
      <point x="508" y="426" type="line"/>
      <point x="527" y="510" type="line"/>
      <point x="374" y="501" type="line"/>
      <point x="374" y="501"/>
      <point x="329" y="520"/>
      <point x="276" y="520" type="curve" smooth="yes"/>
      <point x="138" y="520"/>
      <point x="57" y="430"/>
      <point x="57" y="313" type="curve" smooth="yes"/>
      <point x="57" y="253"/>
      <point x="83" y="217"/>
      <point x="118" y="199" type="curve"/>
      <point x="95" y="179"/>
      <point x="57" y="134"/>
      <point x="57" y="96" type="curve" smooth="yes"/>
      <point x="57" y="76"/>
      <point x="63" y="61"/>
      <point x="74" y="49" type="curve"/>
      <point x="5" y="7"/>
      <point x="-48" y="-34"/>
    </contour>
    <contour>
      <point x="46" y="-92" type="curve" smooth="yes"/>
      <point x="46" y="-52"/>
      <point x="71" y="-23"/>
      <point x="122" y="11" type="curve"/>
      <point x="133" y="7"/>
      <point x="147" y="3"/>
      <point x="176" y="-2" type="curve" smooth="yes"/>
      <point x="257" y="-15" type="line" smooth="yes"/>
      <point x="293" y="-21"/>
      <point x="317" y="-33"/>
      <point x="317" y="-77" type="curve" smooth="yes"/>
      <point x="317" y="-133"/>
      <point x="267" y="-161"/>
      <point x="167" y="-161" type="curve" smooth="yes"/>
      <point x="78" y="-161"/>
      <point x="46" y="-137"/>
    </contour>
    <contour>
      <point x="155" y="320" type="curve" smooth="yes"/>
      <point x="155" y="381"/>
      <point x="190" y="440"/>
      <point x="267" y="440" type="curve" smooth="yes"/>
      <point x="322" y="440"/>
      <point x="344" y="416"/>
      <point x="344" y="370" type="curve" smooth="yes"/>
      <point x="344" y="312"/>
      <point x="309" y="252"/>
      <point x="229" y="252" type="curve" smooth="yes"/>
      <point x="176" y="252"/>
      <point x="155" y="279"/>
    </contour>
  </outline>
</glyph>
<glyph name="uni0122" format="2">
  <advance width="598"/>
  <unicode hex="0122"/>
  <note>
uni0122
</note>
  <outline>
    <contour>
      <point x="488" y="12" type="curve"/>
      <point x="562" y="359" type="line"/>
      <point x="359" y="359" type="line"/>
      <point x="339" y="266" type="line"/>
      <point x="442" y="266" type="line"/>
      <point x="404" y="91" type="line"/>
      <point x="390" y="88"/>
      <point x="340" y="81"/>
      <point x="291" y="81" type="curve" smooth="yes"/>
      <point x="195" y="81"/>
      <point x="162" y="110"/>
      <point x="162" y="192" type="curve" smooth="yes"/>
      <point x="162" y="339"/>
      <point x="233" y="623"/>
      <point x="408" y="623" type="curve" smooth="yes"/>
      <point x="485" y="623"/>
      <point x="599" y="600"/>
      <point x="599" y="600" type="curve"/>
      <point x="621" y="685" type="line"/>
      <point x="621" y="685"/>
      <point x="508" y="718"/>
      <point x="411" y="718" type="curve" smooth="yes"/>
      <point x="139" y="718"/>
      <point x="53" y="374"/>
      <point x="53" y="186" type="curve" smooth="yes"/>
      <point x="53" y="60"/>
      <point x="107" y="-12"/>
      <point x="261" y="-12" type="curve" smooth="yes"/>
      <point x="348" y="-12"/>
      <point x="476" y="10"/>
    </contour>
    <contour>
      <point x="256" y="-73" type="line"/>
      <point x="167" y="-230" type="line"/>
      <point x="225" y="-266" type="line"/>
      <point x="330" y="-122" type="line"/>
    </contour>
  </outline>
</glyph>
<glyph name="Hcircumflex" format="2">
  <advance width="668"/>
  <unicode hex="0124"/>
  <note>
Hcircumflex
</note>
  <outline>
    <contour>
      <point x="270" y="773" type="line"/>
      <point x="375" y="773" type="line"/>
      <point x="467" y="865" type="line"/>
      <point x="519" y="773" type="line"/>
      <point x="608" y="773" type="line"/>
      <point x="519" y="930" type="line"/>
      <point x="426" y="930" type="line"/>
    </contour>
    <contour>
      <point x="176" y="705" type="line"/>
      <point x="25" y="0" type="line"/>
      <point x="132" y="0" type="line"/>
      <point x="198" y="313" type="line"/>
      <point x="496" y="313" type="line"/>
      <point x="429" y="0" type="line"/>
      <point x="536" y="0" type="line"/>
      <point x="686" y="705" type="line"/>
      <point x="580" y="705" type="line"/>
      <point x="517" y="407" type="line"/>
      <point x="219" y="407" type="line"/>
      <point x="282" y="705" type="line"/>
    </contour>
  </outline>
</glyph>
<glyph name="Hbar" format="2">
  <advance width="710"/>
  <unicode hex="0126"/>
  <note>
Hbar
</note>
  <outline>
    <contour>
      <point x="197" y="705" type="line"/>
      <point x="174" y="601" type="line"/>
      <point x="101" y="601" type="line"/>
      <point x="82" y="513" type="line"/>
      <point x="156" y="513" type="line"/>
      <point x="46" y="0" type="line"/>
      <point x="153" y="0" type="line"/>
      <point x="219" y="313" type="line"/>
      <point x="517" y="313" type="line"/>
      <point x="450" y="0" type="line"/>
      <point x="557" y="0" type="line"/>
      <point x="666" y="513" type="line"/>
      <point x="738" y="513" type="line"/>
      <point x="757" y="601" type="line"/>
      <point x="685" y="601" type="line"/>
      <point x="707" y="705" type="line"/>
      <point x="601" y="705" type="line"/>
      <point x="579" y="601" type="line"/>
      <point x="281" y="601" type="line"/>
      <point x="303" y="705" type="line"/>
    </contour>
    <contour>
      <point x="538" y="407" type="line"/>
      <point x="239" y="407" type="line"/>
      <point x="262" y="513" type="line"/>
      <point x="560" y="513" type="line"/>
    </contour>
  </outline>
</glyph>
